<?xml version="1.0" standalone="no"?>
<!DOCTYPE svg PUBLIC "-//W3C//DTD SVG 1.1//EN" "http://www.w3.org/Graphics/SVG/1.1/DTD/svg11.dtd" >
<svg xmlns="http://www.w3.org/2000/svg">
<metadata></metadata>
<defs>
<font id="arian_amubold_italic" horiz-adv-x="1144" >
<font-face units-per-em="2048" ascent="1536" descent="-512" />
<missing-glyph horiz-adv-x="586" />
<glyph horiz-adv-x="2048" />
<glyph horiz-adv-x="2048" />
<glyph unicode="&#xd;" horiz-adv-x="586" />
<glyph unicode=" "  horiz-adv-x="586" />
<glyph unicode="&#x09;" horiz-adv-x="586" />
<glyph unicode="&#xa0;" horiz-adv-x="586" />
<glyph unicode="!" horiz-adv-x="514" d="M-89 0l72 273h289l-73 -273h-288zM54 383l143 719l97 364h305l-104 -386l-237 -697h-204z" />
<glyph unicode="&#x22;" horiz-adv-x="846" d="M37 904l30 303l69 259h288l-74 -277l-121 -285h-192zM440 904l30 303l69 259h288l-72 -272l-126 -290h-189z" />
<glyph unicode="#" horiz-adv-x="1248" d="M63 369v222h184l49 249h-233v222h277l82 426h239l-83 -426h172l82 426h241l-84 -426h144v-222h-187l-49 -249h236v-222h-280l-71 -369h-240l73 369h-172l-72 -369h-238l71 369h-141zM485 591h173l49 249h-172z" />
<glyph unicode="$" horiz-adv-x="1264" d="M-49 66l69 265q73 -30 162 -55t192 -33l111 413q-59 24 -119 54t-108 72.5t-78.5 100t-30.5 135.5q0 98 40.5 177t113.5 137t175 93.5t225 46.5l22 79h230l-22 -80q65 -5 136 -15.5t154 -27.5l-71 -266q-69 19 -138.5 34.5t-147.5 22.5l-102 -383q60 -25 117 -57t102 -77 t72 -106.5t27 -144.5q0 -104 -41 -184t-114 -136.5t-172 -90t-216 -45.5l-50 -187h-231l49 185q-51 4 -102.5 11t-98 17t-87 21.5t-68.5 23.5zM441 1029q0 -35 30 -60.5t84 -49.5l78 291q-94 -20 -143 -65.5t-49 -115.5zM609 257q85 20 133 65.5t48 117.5q0 38 -28 68.5 t-71 56.5z" />
<glyph unicode="%" horiz-adv-x="1689" d="M8 -22l1478 1510h171l-1478 -1510h-171zM123 993q0 87 27 175t79 159t126 116t169 45q70 0 121 -19t84.5 -52.5t49.5 -81t16 -104.5q0 -36 -6.5 -87.5t-23 -108t-44.5 -113t-71 -101.5t-101.5 -73t-137.5 -28q-140 0 -214 72.5t-74 200.5zM314 991q0 -32 7.5 -53t21 -33 t32.5 -17t42 -5q33 0 60.5 18.5t49.5 48t38 66.5t26.5 73.5t15.5 69.5t5 54q0 33 -6.5 54.5t-19 34t-30.5 17.5t-40 5q-35 0 -63.5 -17.5t-51 -46.5t-39 -65t-27.5 -73t-16 -71.5t-5 -59.5zM863 250q0 87 27 175t79 159t126 116t169 45q70 0 121 -19t84.5 -52.5t49.5 -81 t16 -104.5q0 -36 -6.5 -87.5t-23 -108t-44.5 -113t-71 -101.5t-102 -73t-137 -28q-140 0 -214 72.5t-74 200.5zM1054 248q0 -32 7.5 -53t21 -33t32.5 -17t42 -5q33 0 60.5 18.5t49.5 48t38 66.5t26.5 73.5t15.5 69t5 54.5q0 33 -6.5 54.5t-19 34t-30.5 17.5t-40 5 q-35 0 -63.5 -17.5t-51 -46.5t-39 -65t-27.5 -73t-16 -71.5t-5 -59.5z" />
<glyph unicode="&#x26;" horiz-adv-x="1546" d="M34 361q0 76 22 147.5t61.5 130t94.5 101.5t120 63q-21 16 -37.5 40t-28 52t-17.5 57t-6 55q0 126 48 216.5t131 149.5t193.5 87t235.5 28q117 0 227.5 -12.5t191.5 -31.5l-72 -263q-84 31 -174 45.5t-195 14.5q-57 0 -112 -9t-98 -33t-69 -65t-26 -105q0 -27 10.5 -52.5 t29.5 -45t46 -31.5t60 -12h82l-67 -256h-56q-65 0 -120.5 -17.5t-96.5 -50.5t-64 -80.5t-23 -107.5q0 -73 52 -114t171 -41q142 0 225 58.5t110 158.5l52 194h-146l64 256h623l-67 -256h-179l-62 -236q-28 -106 -87 -184.5t-142.5 -130.5t-188 -77.5t-223.5 -25.5 q-111 0 -201.5 26t-155.5 75t-100.5 120t-35.5 162z" />
<glyph unicode="'" horiz-adv-x="540" d="M193 904l30 298l71 264h289l-74 -276l-125 -286h-191z" />
<glyph unicode="(" horiz-adv-x="720" d="M24 123q0 97 11 195.5t34 196.5q27 120 75 245.5t114.5 248.5t150.5 239.5t184 217.5h322q-100 -102 -189 -218t-162.5 -242t-129 -259t-87.5 -269q-25 -105 -36.5 -204t-11.5 -192q0 -130 27 -253.5t75 -235.5h-267q-55 119 -82.5 254t-27.5 276z" />
<glyph unicode=")" horiz-adv-x="720" d="M-360 -407q100 102 189 218t162.5 242t129 259t87.5 269q25 105 36.5 204t11.5 192q0 130 -27 253.5t-75 235.5h267q55 -119 82.5 -254t27.5 -276q0 -97 -11 -195.5t-34 -196.5q-27 -120 -75 -245.5t-114.5 -248.5t-150.5 -239.5t-184 -217.5h-322z" />
<glyph unicode="*" horiz-adv-x="747" d="M-22 1123l71 222l206 -88l-17 223h239l-17 -222l209 85l68 -224l-219 -51l152 -176l-194 -139l-116 188l-110 -191l-197 141l148 177z" />
<glyph unicode="+" horiz-adv-x="1031" d="M-17 588l63 239h353l93 349h255l-93 -349h354l-64 -239h-354l-94 -351h-255l94 351h-352z" />
<glyph unicode="," horiz-adv-x="566" d="M-139 -132q30 12 54 24t42 27.5t31.5 35t22.5 45.5h-87l73 273h288l-65 -242q-17 -65 -45.5 -113.5t-66.5 -86t-86 -65.5t-105 -51z" />
<glyph unicode="-" horiz-adv-x="592" d="M-30 405l68 251h559l-67 -251h-560z" />
<glyph unicode="." horiz-adv-x="565" d="M-76 0l73 273h287l-73 -273h-287z" />
<glyph unicode="/" horiz-adv-x="620" d="M-240 0l808 1466h243l-810 -1466h-241z" />
<glyph unicode="0" horiz-adv-x="1229" d="M32 432q0 89 16.5 201.5t51 230t89 229.5t130.5 200t175.5 141.5t223.5 53.5q120 0 200 -35t128 -95.5t68 -141t20 -171.5q0 -64 -8.5 -144t-27 -167t-47.5 -177t-69 -174t-92.5 -157.5t-118 -128.5t-144.5 -87t-173 -32q-120 0 -201 36t-130 97.5t-70 144t-21 176.5z M299 416q0 -43 8 -80.5t26.5 -65t50 -43t79.5 -15.5q65 0 120 46t99.5 119.5t78 166t56 185.5t34 177.5t11.5 142.5q0 43 -7.5 80.5t-25 65.5t-47.5 43.5t-75 15.5q-49 0 -93 -26.5t-82 -71.5t-70 -105t-58 -127.5t-45.5 -139t-33 -138.5t-20 -126.5t-6.5 -103.5z" />
<glyph unicode="1" horiz-adv-x="1229" d="M362 0l328 1227h-197l65 239h465l-393 -1466h-268z" />
<glyph unicode="2" horiz-adv-x="1229" d="M-67 0l56 219q74 46 166.5 106t188.5 129t188 146t163.5 157.5t115 164t43.5 165.5q0 43 -16.5 74.5t-45 52t-66 30t-79.5 9.5q-66 0 -149.5 -17t-187.5 -57l69 261q33 9 72.5 18t82.5 15.5t88 10.5t88 4q101 0 179.5 -30.5t132 -83.5t81.5 -124t28 -152 q0 -120 -53.5 -231.5t-141.5 -214.5t-201 -195.5t-233 -174.5q-13 -9 -28.5 -18t-34.5 -16h450l-64 -248h-892z" />
<glyph unicode="3" horiz-adv-x="1229" d="M-48 38l63 242q40 -17 83.5 -29t87 -20.5t84 -12.5t73.5 -4q60 0 122 15t112.5 49t82 89.5t31.5 137.5q0 35 -12 63.5t-32.5 49t-48 32t-57.5 11.5h-141l62 236h112q43 0 86.5 12.5t78.5 38.5t56.5 66t21.5 95q0 40 -14 67.5t-39 45t-59 25t-74 7.5q-73 0 -158.5 -14 t-169.5 -49l69 258q68 20 136.5 29.5t148.5 9.5q97 0 176 -27t135 -75t87 -114.5t31 -146.5q0 -77 -18 -136.5t-50 -104t-75.5 -75t-94.5 -49.5q33 -22 55.5 -51.5t36.5 -63.5t20 -70.5t6 -72.5q0 -90 -26 -164t-71.5 -132t-107 -100.5t-132.5 -70.5t-147.5 -41.5 t-151.5 -13.5q-37 0 -84 2.5t-97.5 9.5t-101 18t-95.5 28z" />
<glyph unicode="4" horiz-adv-x="1229" d="M-39 327l64 239q97 121 206.5 238t226.5 229.5t241 220.5t251 212h236l-236 -886h137l-66 -253h-139l-89 -327h-283l89 327h-638zM370 580h296l111 419q-11 -15 -25 -28.5t-26 -25.5q-47 -43 -95 -90.5t-94.5 -95t-89 -93.5t-77.5 -86z" />
<glyph unicode="5" horiz-adv-x="1229" d="M-33 51l64 246q38 -23 81 -38.5t86 -26t84 -15t77 -4.5q83 0 153.5 28.5t121.5 78t79.5 115.5t28.5 141q0 65 -34.5 101.5t-103.5 36.5q-64 0 -122.5 -26t-109.5 -87h-254q16 61 39.5 134t51.5 151t58.5 158t61.5 156t60 144t55 122h735l-65 -248h-504q-10 -19 -23 -49 t-27.5 -65.5t-28 -72.5t-25.5 -70q-3 -8 -7 -20t-6 -20q35 18 73.5 23t70.5 5q84 0 154 -24.5t120.5 -71t78.5 -114t28 -153.5q0 -127 -47.5 -237.5t-137.5 -192.5t-220 -129.5t-296 -47.5q-38 0 -82 4.5t-90 13.5t-91.5 22.5t-86.5 31.5z" />
<glyph unicode="6" horiz-adv-x="1229" d="M40 456q0 110 24.5 229.5t72.5 234.5t118 218t161 181t202.5 123.5t242.5 45.5q67 0 146 -9.5t164 -38.5l-65 -248q-63 32 -121.5 47.5t-112.5 15.5q-91 0 -168 -38t-139.5 -101t-110.5 -146q-21 -36 -39 -73q19 9 39 16q31 11 63.5 19t65.5 12.5t63 4.5 q95 0 172.5 -27.5t132 -77.5t84.5 -121.5t30 -158.5q0 -117 -42.5 -223.5t-118.5 -187t-181 -128t-231 -47.5q-77 0 -157.5 23.5t-146 79t-107 147t-41.5 228.5zM310 456q0 -53 10.5 -96.5t34.5 -75t62 -48.5t92 -17t104.5 23.5t89.5 67t62.5 106t23.5 139.5q0 75 -42 116 t-137 41q-41 0 -85 -10t-84.5 -28t-74.5 -43q-27 -20 -46 -43q-10 -70 -10 -132z" />
<glyph unicode="7" horiz-adv-x="1229" d="M68 0q54 148 136.5 305t185 314t222.5 309t249 290h-597l65 248h938l-58 -221q-135 -141 -263 -295t-238.5 -313t-198 -320t-140.5 -317h-301z" />
<glyph unicode="8" horiz-adv-x="1229" d="M-15 392q0 70 20.5 136t58.5 122.5t92.5 101.5t122.5 74q-33 39 -56 91.5t-23 114.5q0 72 19.5 134t54.5 112.5t83 89.5t105.5 65.5t121.5 40.5t131 14q93 0 173.5 -25t139.5 -72.5t93 -116.5t34 -157q0 -60 -16 -113.5t-45.5 -98.5t-70.5 -80.5t-91 -59.5 q47 -45 77 -109.5t30 -152.5q0 -128 -50 -225.5t-132.5 -164.5t-190 -101t-221.5 -34q-93 0 -176.5 26t-146.5 77.5t-100 129t-37 181.5zM255 401q0 -84 53.5 -134t149.5 -50q58 0 112.5 18t97 52t68 82t25.5 108q0 91 -57.5 140t-153.5 49q-54 0 -106.5 -17t-94.5 -51 t-68 -83.5t-26 -113.5zM473 1054q0 -32 9.5 -59t30.5 -46.5t53 -31t77 -11.5q111 0 175 53t64 146q-1 35 -15.5 61.5t-39.5 44.5t-58 27t-70 9q-44 0 -85 -13t-72.5 -38t-50 -60.5t-18.5 -81.5z" />
<glyph unicode="9" horiz-adv-x="1229" d="M39 26l65 248q63 -32 121.5 -47.5t112.5 -15.5q83 0 153 28.5t128 77.5t103.5 115t79.5 140q-53 -26 -117 -40.5t-121 -14.5q-95 0 -172.5 27.5t-132.5 77.5t-84.5 121.5t-29.5 158.5q0 117 42.5 223.5t118.5 187t181 128t231 47.5q77 0 157.5 -23.5t146 -79t107 -147 t41.5 -228.5q0 -110 -21.5 -229.5t-66 -234.5t-111.5 -218t-158.5 -181t-207 -123.5t-256.5 -45.5q-67 0 -146 9.5t-164 38.5zM421 911q0 -75 42 -116t137 -41q39 0 81 9t81 25.5t72.5 40t55.5 51.5q5 34 7.5 66.5t2.5 63.5q0 53 -10.5 96.5t-34.5 75t-62 48.5t-92 17 t-104.5 -23.5t-89.5 -67t-62.5 -106t-23.5 -139.5z" />
<glyph unicode=":" horiz-adv-x="566" d="M-76 0l72 273h288l-72 -273h-288zM135 789l73 273h288l-73 -273h-288z" />
<glyph unicode=";" horiz-adv-x="566" d="M-136 -131q55 23 90 53t56 78h-87l73 273h288l-64 -242q-15 -56 -40 -103t-62 -85.5t-87 -70t-116 -57.5zM135 789l73 273h288l-73 -273h-288z" />
<glyph unicode="&#x3c;" horiz-adv-x="1112" d="M14 607l55 205l1076 423l-70 -260l-717 -272l568 -284l-64 -240z" />
<glyph unicode="=" horiz-adv-x="1190" d="M2 384l64 239h964l-65 -239h-963zM112 793l64 240h964l-64 -240h-964z" />
<glyph unicode="&#x3e;" horiz-adv-x="1112" d="M-95 178l70 260l717 272l-568 284l64 240l848 -428l-55 -205z" />
<glyph unicode="?" horiz-adv-x="878" d="M18 0l70 264h278l-70 -264h-278zM117 1200l68 253q71 13 161.5 24t194.5 11q113 0 190 -28.5t124.5 -76t68 -108.5t20.5 -126q0 -74 -20.5 -131t-54.5 -102.5t-78.5 -83t-92.5 -73t-96.5 -72t-90 -81t-73 -99t-46.5 -126.5h-270q22 91 58 161.5t79 126t91 99t94.5 80 t89 69t74.5 66t51 70.5t19 84q0 35 -16 58.5t-43.5 37.5t-64 20t-77.5 6q-49 0 -100.5 -6t-99.5 -14.5t-89.5 -19t-70.5 -19.5z" />
<glyph unicode="@" horiz-adv-x="1939" d="M66 523q0 150 35 280t98.5 237.5t151.5 190.5t193.5 140.5t225.5 87t247 29.5q187 0 339.5 -59t261 -164.5t168 -252.5t59.5 -322q0 -91 -17.5 -179t-50 -167t-80.5 -146t-109.5 -116t-135 -76.5t-158.5 -27.5q-75 0 -128.5 25.5t-82.5 74.5q-115 -100 -287 -100 q-79 0 -150 30t-125 88.5t-85.5 145.5t-31.5 202q0 138 39.5 255t110 202.5t168.5 134t216 48.5q69 0 131 -20t111 -65l13 63h275l-165 -779q-1 -4 -2.5 -14.5t-1.5 -21.5q0 -20 12 -26t38 -6q60 0 114.5 34.5t96 97.5t66 151.5t24.5 196.5q0 146 -45.5 262t-129 196.5 t-200 123.5t-258.5 43q-123 0 -227 -30.5t-188 -85t-148 -129.5t-107 -164t-65 -188t-22 -202q0 -190 52 -334.5t149.5 -242.5t238.5 -148t320 -50q130 0 235.5 23t191 66t152.5 103.5t121 135.5h202q-74 -136 -179.5 -231t-226.5 -155t-250 -87.5t-249 -27.5 q-137 0 -261 27.5t-229.5 81.5t-191 134t-145 185.5t-92 236t-32.5 285.5zM684 431q0 -51 8.5 -91t27 -68t48.5 -43t73 -15q61 0 109.5 33t82 90t51.5 132.5t18 160.5q0 108 -41 164t-119 56q-51 0 -97.5 -27t-82.5 -80.5t-57 -131.5t-21 -180z" />
<glyph unicode="A" horiz-adv-x="1473" d="M-225 0q50 106 118 231t146.5 258t163.5 268.5t171 263t168.5 241.5t154.5 204h410q25 -95 45.5 -209t37 -240t28.5 -258.5t20 -263.5t12 -257t4 -238h-290q0 56 -1.5 127t-5.5 152.5t-9.5 171.5t-12.5 183h-392q42 67 84.5 132t85.5 131h196q-9 80 -19.5 157t-23.5 151 h-35q-73 -100 -147 -208.5t-145 -218.5t-137.5 -219t-125 -209.5t-106.5 -189.5t-82 -160h-313z" />
<glyph unicode="B" horiz-adv-x="1382" d="M-68 0l71 265l321 1201q85 0 155 3t133 7t123 7t125 3q110 0 194.5 -26t141.5 -73.5t86.5 -114t29.5 -147.5q0 -60 -15.5 -117t-45.5 -106t-74.5 -88t-101.5 -63q33 -19 57.5 -46t40 -58.5t23 -66.5t7.5 -70q0 -95 -25 -169.5t-69.5 -131.5t-105.5 -96.5t-133.5 -64.5 t-154 -36.5t-165.5 -11.5h-618zM293 265h273q66 0 128.5 9.5t110.5 35.5t77 73t29 122q0 60 -50.5 94.5t-149.5 34.5h-228l71 263h163q60 0 114.5 11t96 36.5t66 67t24.5 101.5q0 63 -42.5 90.5t-120.5 27.5q-50 0 -98.5 -2t-89 -4.5t-71 -4.5t-44.5 -2z" />
<glyph unicode="C" horiz-adv-x="1273" d="M21 481q0 118 38 265q49 184 119.5 323t171 232t236.5 140t317 47q79 0 190.5 -13.5t244.5 -40.5l-73 -266q-118 34 -223 50.5t-179 16.5q-90 0 -167 -26.5t-141.5 -87t-116 -159t-90.5 -242.5q-18 -67 -26.5 -124t-8.5 -105q0 -136 76 -197t220 -61q70 0 180.5 14.5 t242.5 48.5l-73 -279q-94 -19 -188 -29t-193 -10q-136 0 -240 33.5t-174.5 98t-106.5 158t-36 213.5z" />
<glyph unicode="D" horiz-adv-x="1475" d="M-68 0l71 265l322 1201q65 0 131 3.5t131 7.5t130 7.5t128 3.5q143 0 246.5 -37t170.5 -104.5t99 -162t32 -208.5q0 -61 -10 -131.5t-28 -140.5q-44 -170 -113.5 -301t-171.5 -220.5t-240.5 -136t-321.5 -46.5h-576zM296 265h236q110 0 194.5 25.5t149 82.5t111.5 148.5 t81 223.5q35 137 35 234q0 132 -69.5 195.5t-210.5 63.5q-39 0 -81 -2.5t-79.5 -6t-67 -6t-43.5 -2.5z" />
<glyph unicode="E" horiz-adv-x="1303" d="M-68 0l71 265l321 1201h1027l-70 -261h-733l-84 -308h647l-68 -263h-649l-99 -369h755l-70 -265h-1048z" />
<glyph unicode="F" horiz-adv-x="1257" d="M-68 0l392 1466h1027l-70 -261h-733l-84 -308h647l-68 -263h-649l-170 -634h-292z" />
<glyph unicode="G" horiz-adv-x="1499" d="M37 488q0 22 4 77t18.5 129.5t41 162t71 176t110 170.5t157 145.5t212.5 101.5t277 38q97 0 217.5 -13t272.5 -48l-72 -272q-43 15 -98.5 29.5t-116 25.5t-121.5 18t-115 7q-98 0 -175 -28.5t-135.5 -76.5t-100.5 -109.5t-70.5 -127.5t-46 -131t-26.5 -120t-12 -94.5 t-3 -54.5q0 -69 18.5 -119.5t53 -83t85 -48t113.5 -15.5q92 0 169.5 5t143.5 15l103 387h-377l69 263h666l-173 -650l-67 -249q-94 0 -180.5 -3.5t-149.5 -7.5q-57 -4 -112.5 -6.5t-124.5 -2.5q-121 0 -218 33t-165.5 97.5t-105.5 159.5t-37 220z" />
<glyph unicode="H" horiz-adv-x="1446" d="M-68 0l392 1466h292l-153 -569h561l154 569h292l-393 -1466h-292l170 634h-562l-170 -634h-291z" />
<glyph unicode="I" horiz-adv-x="592" d="M-68 0l392 1466h292l-393 -1466h-291z" />
<glyph unicode="J" horiz-adv-x="594" d="M-477 -346l70 262q39 -10 65.5 -11.5t40.5 -1.5q44 0 85.5 12.5t78 45.5t67 90t54.5 145l341 1270h293l-359 -1340q-33 -125 -92.5 -217t-138.5 -152t-173.5 -89.5t-198.5 -29.5q-10 0 -25 1t-33 2.5t-37.5 4.5t-37.5 8z" />
<glyph unicode="K" horiz-adv-x="1337" d="M-68 0l392 1466h293l-151 -561q57 15 137 56t167.5 110.5t176 167.5t163.5 227h326q-69 -123 -147.5 -226t-161 -187.5t-166 -151t-164.5 -115.5q60 -84 113 -178t92.5 -194t63 -204.5t23.5 -209.5h-289q-1 68 -18 148.5t-50.5 167t-82 175.5t-112.5 174 q-79 -25 -143 -30l-170 -635h-292z" />
<glyph unicode="L" horiz-adv-x="1072" d="M-68 0l392 1466h292l-322 -1201h641l-70 -265h-933z" />
<glyph unicode="M" horiz-adv-x="1786" d="M-68 0l392 1466h235q35 -32 78.5 -103t86 -165t78 -202t54.5 -212q65 104 149.5 206t175.5 192t181.5 163.5t168.5 120.5h279l-393 -1466h-292l285 1062q-60 -58 -125.5 -130.5t-132 -156.5t-131 -177.5t-120.5 -193.5h-235q-11 100 -28 194.5t-38 178.5t-45 156t-48 126 l-284 -1059h-291z" />
<glyph unicode="N" horiz-adv-x="1476" d="M-68 0l392 1466h260q28 -26 67 -86t82 -140t85 -172t75.5 -181.5t55 -169.5t23.5 -135l235 884h293l-393 -1466h-272q-11 169 -44.5 331.5t-79 305.5t-96.5 260.5t-97 195.5l-294 -1093h-292z" />
<glyph unicode="O" horiz-adv-x="1512" d="M30 488q0 20 5 73.5t19 127.5t40.5 162t68.5 176.5t103 171.5t145 147.5t193.5 103t249.5 38.5q144 0 249.5 -38t174.5 -105.5t102.5 -161t33.5 -205.5q0 -33 -6.5 -93.5t-24 -137t-46.5 -163.5t-74 -172.5t-107.5 -164t-146 -138.5t-190 -95.5t-239.5 -35.5 q-144 0 -248 38t-171 105.5t-99 161t-32 205.5zM323 487q0 -128 66 -194t203 -66q85 0 153.5 29t121.5 77t92.5 110t68 129t46.5 133.5t28.5 122.5t14.5 97t4 57q0 129 -71 193t-208 64q-90 0 -160.5 -30.5t-123.5 -80.5t-91.5 -114.5t-64.5 -133t-41.5 -135t-24 -121 t-11 -91.5t-2.5 -46z" />
<glyph unicode="P" horiz-adv-x="1353" d="M-68 0l392 1466q67 0 132.5 3.5t130 7.5t128.5 7.5t128 3.5q127 0 220 -27.5t154.5 -77t91.5 -119.5t30 -155q0 -142 -51.5 -245t-137.5 -169.5t-197.5 -98.5t-232.5 -32q-62 0 -123.5 7.5t-121.5 23.5l68 255q54 -15 105.5 -20.5t86.5 -5.5q66 0 122 14.5t97 47.5t64 85 t23 127q0 29 -11 53t-35.5 41t-64.5 26.5t-97 9.5q-77 0 -146 -7.5t-137 -7.5l-326 -1213h-292z" />
<glyph unicode="Q" horiz-adv-x="1544" d="M30 488q0 20 5.5 73.5t20.5 127.5t42 162t70 176.5t105 171.5t147 147.5t194.5 103t249.5 38.5q144 0 248 -38t171 -105.5t99 -161t32 -205.5q0 -33 -6.5 -93.5t-24 -137t-46.5 -163.5t-74 -173q-44 -83 -104 -159q24 -13 51 -25q42 -19 95 -34l-67 -237q-72 10 -127 29 t-99 43q-36 19 -66 41q-59 -33 -127 -56q-106 -35 -239 -35q-144 0 -248 38t-171 105.5t-99 161t-32 205.5zM323 487q0 -128 66 -194t203 -66q64 0 118 16q-19 10 -40 20q-42 19 -95 34l68 237q72 -11 127 -29.5t99 -42.5q40 -21 72 -46q10 13 18 27q40 62 68.5 129 t46.5 133.5t28.5 122.5t14.5 97t4 57q0 257 -269 257q-90 0 -160.5 -30.5t-125 -80.5t-93.5 -114.5t-66 -133t-43.5 -135t-25.5 -121t-12 -91.5t-3 -46z" />
<glyph unicode="R" horiz-adv-x="1378" d="M-79 0l392 1466q68 0 139.5 4t139.5 7.5t129.5 7t110.5 3.5q127 0 220.5 -27.5t155 -77t91 -119.5t29.5 -155q0 -130 -42.5 -221.5t-110 -150.5t-150.5 -89.5t-163 -37.5q54 -61 98 -134t78.5 -152t57.5 -161.5t35 -162.5h-302q-9 45 -25.5 101.5t-40 117t-54 121 t-67.5 114t-81 96t-94 66.5l69 258q58 -16 108.5 -25.5t85.5 -9.5q61 0 115.5 13.5t95.5 43.5t65 78t24 116q0 72 -53 104t-168 32q-70 0 -139 -6t-132 -6l-325 -1214h-292z" />
<glyph unicode="S" horiz-adv-x="1244" d="M-78 60l70 272q44 -18 94.5 -36t106.5 -31.5t116.5 -22t124.5 -8.5t122 13t101 39t68.5 64.5t25.5 90.5q0 39 -19 68t-50.5 52.5t-72.5 43t-86 37.5q-65 27 -128.5 56t-114.5 72.5t-82.5 106.5t-31.5 158q0 110 47 194.5t131 142t199.5 87t252.5 29.5q91 0 195.5 -11 t234.5 -39l-72 -274q-89 28 -182 48t-200 20q-62 0 -118 -11t-98 -34t-66.5 -58t-24.5 -83q0 -30 16.5 -53t45 -42.5t65 -36t77.5 -33.5q67 -28 135 -60.5t123 -80.5t89.5 -117t34.5 -170q0 -121 -49 -210.5t-136.5 -148t-209 -87.5t-265.5 -29q-61 0 -128.5 7t-131 18.5 t-118.5 26.5t-91 30z" />
<glyph unicode="T" horiz-adv-x="1206" d="M126 1205l70 261h1159l-70 -261h-430l-324 -1205h-293l324 1205h-436z" />
<glyph unicode="U" horiz-adv-x="1443" d="M55 394q0 34 4 68.5t15 72.5l250 931h294l-267 -991q-10 -36 -10 -70q0 -45 17 -78t46.5 -55.5t69.5 -33.5t87 -11q77 0 136.5 22t103.5 62.5t74.5 98.5t50.5 130l248 926h295l-259 -957q-72 -264 -236 -397.5t-417 -133.5q-112 0 -204.5 27.5t-158.5 80.5t-102.5 130.5 t-36.5 177.5z" />
<glyph unicode="V" horiz-adv-x="1289" d="M150 1245q0 120 11 221h287q-12 -89 -13 -196v-27q0 -95 6 -197q7 -118 20.5 -242t31.5 -247q1 -8 4 -28t5.5 -45.5t4.5 -52t1 -45.5q10 22 25 47.5t29.5 49.5t26.5 42.5t17 25.5q90 131 176 265t158.5 256t126.5 224t78 170h310q-26 -67 -67 -151.5t-93.5 -179.5 t-114 -197.5t-127 -206.5t-133.5 -206.5t-133.5 -197t-127 -178t-113.5 -149.5h-246q-20 99 -41.5 218.5t-40.5 248.5t-34.5 263.5t-24.5 264.5t-9 250z" />
<glyph unicode="W" horiz-adv-x="1951" d="M171 1206q0 71 2.5 136t9.5 124h287q-8 -60 -12 -129t-4 -144q0 -149 10.5 -281.5t22.5 -241.5t22.5 -192t10.5 -132q33 47 60.5 86t51 74t45.5 68.5t45 69.5t49.5 77.5t58.5 91.5q-3 43 -5.5 90t-4.5 95t-3.5 93.5t-1.5 85.5q0 79 3 151t11 138h287q-11 -81 -17 -177 t-6 -202q0 -128 8.5 -238t18 -203t18 -168t8.5 -132q21 42 56 103.5t78.5 135.5t93.5 157t100.5 167t98.5 166.5t88 156t69.5 134t42.5 100.5h310q-34 -90 -94.5 -208.5t-137.5 -252t-164.5 -274t-176 -273.5t-172.5 -251t-154 -207h-246q-19 97 -38 213.5t-34 239.5 q-42 -65 -85 -127.5t-84 -121t-78.5 -110.5t-70.5 -94h-236q-28 119 -53.5 267t-45 308t-31 322t-11.5 309z" />
<glyph unicode="X" horiz-adv-x="1338" d="M-210 0q84 127 175.5 238t187.5 211.5t194 192.5l132 122q-19 35 -39 70q-50 91 -95.5 189.5t-83 208t-59.5 234.5h289q18 -96 50.5 -186.5t73.5 -176.5q35 -73 73 -143q94 91 180 181q151 157 268 325h342q-92 -133 -185 -247.5t-186.5 -216t-188.5 -193.5l-96 -92 q30 -55 60 -112q48 -89 91 -185t77.5 -200.5t54.5 -219.5h-288q-18 94 -48 179t-67 165.5t-80 157.5q-5 10 -11 19l-50 -46q-82 -77 -158.5 -154.5t-145.5 -157t-128 -163.5h-339z" />
<glyph unicode="Y" horiz-adv-x="1322" d="M142 1466h282q23 -131 81 -281t136 -301q85 72 166 147t153 150t133.5 147t108.5 138h330q-68 -101 -154.5 -203.5t-186 -205t-210 -205.5t-226.5 -203l-174 -649h-295l174 649q-59 103 -111 209t-93.5 210.5t-71 205t-42.5 192.5z" />
<glyph unicode="Z" horiz-adv-x="1371" d="M-106 0l64 236q30 48 83 113.5t123 142.5t153.5 162.5t173.5 172.5t183.5 172t183.5 162q5 4 24 18.5t39 25.5h-694l70 261h1118l-63 -238q-87 -67 -185 -149t-197.5 -171t-196.5 -180t-182.5 -175.5t-155.5 -158.5t-115 -129h785l-70 -265h-1141z" />
<glyph unicode="[" horiz-adv-x="620" d="M-195 -407l59 222l436 1651h459l-58 -222h-194l-378 -1429h192l-58 -222h-458z" />
<glyph unicode="\" horiz-adv-x="717" d="M156 1466h237l130 -1466h-236z" />
<glyph unicode="]" horiz-adv-x="620" d="M-297 -408l58 222h194l378 1429h-192l58 222h458l-437 -1652l-58 -221h-459z" />
<glyph unicode="^" horiz-adv-x="919" d="M-118 635l567 822h202l129 -822h-272l-58 452l-295 -452h-273z" />
<glyph unicode="_" horiz-adv-x="1086" d="M-85 -375l55 205h1158l-55 -205h-1158z" />
<glyph unicode="`" horiz-adv-x="441" d="M21 1488h297l87 -311h-262z" />
<glyph unicode="a" d="M-13 344q0 66 16 146.5t51 162.5t89.5 160t131.5 138t177 96.5t226 36.5q58 0 114 -5.5t106 -14t92 -19.5t72 -23l-273 -1022h-254l30 105q2 8 8 27t17 40q-36 -58 -76.5 -95.5t-81 -59.5t-78.5 -30.5t-69 -8.5q-142 0 -220 91t-78 275zM249 348q-1 -76 25 -114 q23 -35 73 -34h10q43 3 93.5 42t98.5 104.5t89.5 153t67.5 187.5l45 171q-21 5 -40 7.5t-45 2.5q-78 0 -139 -28.5t-107.5 -74t-79 -103t-53 -115t-29.5 -110t-9 -89.5z" />
<glyph unicode="b" horiz-adv-x="1141" d="M-67 37l381 1429h267l-132 -486q-2 -8 -8 -27t-17 -40q29 46 65.5 78.5t75 52t76 28.5t68.5 9q142 0 220.5 -91t78.5 -275q0 -73 -18 -156t-55 -165t-92.5 -158t-131.5 -134t-171.5 -92.5t-212.5 -34.5q-59 0 -116 5.5t-109 14t-95.5 19.5t-73.5 23zM242 201 q21 -5 45 -7.5t50 -2.5q71 0 129 26.5t103.5 69.5t78.5 98.5t54.5 113.5t32 113.5t10.5 98.5q0 72 -23.5 110t-71.5 38q-44 0 -94.5 -35t-99.5 -98.5t-93 -153.5t-74 -200z" />
<glyph unicode="c" horiz-adv-x="977" d="M-13 354q0 83 18 169.5t53.5 167.5t88.5 152.5t123 125t157.5 84.5t192.5 31q32 0 72 -3t81.5 -10t82 -17t73.5 -24l-58 -227q-66 30 -135.5 44.5t-134.5 14.5q-57 0 -104.5 -23t-86.5 -62t-68.5 -90t-50 -107.5t-30.5 -114.5t-10 -110q0 -84 44.5 -119.5t121.5 -35.5 q78 0 158.5 17.5t157.5 57.5l-63 -248q-65 -29 -126 -39t-133 -10q-213 0 -318.5 98.5t-105.5 277.5z" />
<glyph unicode="d" horiz-adv-x="1143" d="M-13 344q0 75 18.5 159t55.5 166t93 157t131.5 132.5t171 91.5t211.5 34q37 0 72.5 -2t70.5 -6l104 390h267l-393 -1466h-254l30 105q2 8 8 27t17 40q-36 -58 -76.5 -95.5t-80.5 -59.5t-78 -30.5t-69 -8.5q-142 0 -220.5 91t-78.5 275zM249 348q0 -72 23.5 -110t75.5 -38 q43 0 94 36t100 100.5t92.5 154t71.5 196.5l45 171q-21 5 -45 7.5t-50 2.5q-71 0 -129 -26.5t-103 -69.5t-78 -98.5t-54.5 -113.5t-32 -113t-10.5 -99z" />
<glyph unicode="e" horiz-adv-x="1088" d="M-2 363q0 90 19.5 179t57 169t92.5 148.5t125.5 118t156.5 78t185 28.5q78 0 145.5 -18t117 -54t77.5 -90t28 -126q0 -77 -41 -145t-130.5 -120.5t-229.5 -86t-338 -42.5q-1 -11 -1.5 -22t-0.5 -22q0 -49 13 -79.5t35.5 -48t51.5 -24t61 -6.5q27 0 63 1.5t80.5 8.5 t97 21.5t111.5 40.5l-63 -243q-23 -14 -58.5 -23.5t-75 -15.5t-81 -9t-76.5 -3q-119 0 -199.5 29.5t-130 81.5t-71 122.5t-21.5 151.5zM315 614q94 6 171.5 19.5t133 35.5t85.5 52.5t30 69.5q0 36 -29 56t-75 20q-60 0 -111.5 -19.5t-93 -53.5t-70 -80.5t-41.5 -99.5z" />
<glyph unicode="f" horiz-adv-x="744" d="M-19 0l223 835h-134l61 227h134q34 129 83.5 209.5t112.5 128.5t137 68t155 20q38 0 78 -4t81 -11l-62 -229q-28 10 -56 15t-51 5q-43 0 -76 -15t-58 -42t-43 -64t-31 -81h221l-62 -227h-220l-224 -835h-269z" />
<glyph unicode="g" horiz-adv-x="1142" d="M-69 -385l59 228q58 -20 111.5 -32t98.5 -12q129 0 214 66.5t131 213.5q2 8 8 27t17 40q-29 -47 -65.5 -79t-75 -51.5t-76 -28.5t-68.5 -9q-142 0 -220.5 91t-78.5 275q0 75 18.5 159t56 166t93.5 157t132 132.5t171 91.5t210 34q58 0 115.5 -5.5t109.5 -14t95.5 -19.5 t73.5 -23l-261 -977q-32 -114 -89.5 -202t-137 -148t-177.5 -91t-210 -31q-51 0 -118 11t-137 31zM248 348q0 -72 23.5 -110t74.5 -38q45 0 96 36.5t100.5 101.5t92 154.5t70.5 194.5l45 171q-21 5 -45 7.5t-50 2.5q-71 0 -128.5 -26.5t-102.5 -69.5t-78 -98.5t-55 -113.5 t-32.5 -113t-10.5 -99z" />
<glyph unicode="h" horiz-adv-x="1146" d="M-76 0l393 1466h268l-128 -480q-3 -12 -9.5 -34t-16.5 -43q25 39 58.5 71.5t74 55.5t87 35.5t96.5 12.5q63 0 112 -21t82 -55.5t50 -80.5t17 -95q-1 -29 -4.5 -59t-11.5 -59l-193 -714h-268l198 729q6 23 9.5 41.5t3.5 33.5q0 29 -20 43.5t-54 14.5q-43 0 -96.5 -35.5 t-106 -99.5t-98.5 -154t-75 -198l-100 -375h-268z" />
<glyph unicode="i" horiz-adv-x="538" d="M-75 0l283 1062h270l-286 -1062h-267zM238 1177l79 289h268l-78 -289h-269z" />
<glyph unicode="j" horiz-adv-x="537" d="M-451 -412l58 219q26 -6 57.5 -9t60.5 -3q37 0 66 6.5t52 26t41.5 56t34.5 95.5l288 1083h269l-294 -1105q-31 -116 -80 -190.5t-110.5 -117.5t-133 -59.5t-146.5 -16.5q-29 0 -73.5 3.5t-89.5 11.5zM238 1177l78 289h268l-77 -289h-269z" />
<glyph unicode="k" horiz-adv-x="1048" d="M-76 0l392 1466h268l-206 -776q45 9 95.5 42.5t101 84t98 114t85.5 131.5h298q-34 -65 -80 -134.5t-101.5 -135.5t-119.5 -125.5t-134 -103.5q71 -121 111 -261q37 -131 37 -279v-23h-257q-5 78 -13.5 142t-23 119.5t-36 105.5t-52.5 100q-37 -9 -74 -12l-121 -455h-268z " />
<glyph unicode="l" horiz-adv-x="546" d="M-75 0l390 1466h270l-393 -1466h-267z" />
<glyph unicode="m" horiz-adv-x="1693" d="M-77 0l285 1062h262l-35 -91q-7 -25 -15.5 -46t-13.5 -35q60 91 145 142.5t185 51.5q54 0 94.5 -15.5t69 -42t46 -62.5t24.5 -76q30 45 68.5 81t83 61.5t93.5 39.5t99 14q82 0 133.5 -34.5t77.5 -87.5q27 -54 29 -120q0 -8 -1 -16q0 -57 -14 -112l-193 -714h-268l198 729 q10 38 10 66q0 17 -4 31q-11 36 -47 36q-43 0 -93.5 -30t-100 -90t-94.5 -151.5t-78 -214.5l-101 -376h-268l198 729q10 38 10 66q0 17 -4 31q-11 36 -47 36q-43 0 -93.5 -30.5t-100 -91t-94.5 -152t-78 -213.5l-100 -375h-268z" />
<glyph unicode="n" horiz-adv-x="1145" d="M-77 0l285 1062h252l-25 -91q-7 -25 -15.5 -46t-13.5 -35q30 45 68 81t82 61t92 38.5t98 13.5q63 0 112 -21t82 -55.5t50 -80.5t17 -95q-1 -29 -4.5 -59t-11.5 -59l-193 -714h-268l198 729q6 23 9.5 41.5t3.5 33.5q0 26 -18 42t-47 16q-47 0 -102 -35.5t-108.5 -99.5 t-99.5 -154t-75 -198l-100 -375h-268z" />
<glyph unicode="o" horiz-adv-x="1131" d="M-11 357q0 35 6.5 84.5t21 107t38 119.5t58.5 121.5t81.5 113t106.5 94t135 64t166 23.5q102 0 176.5 -27.5t123.5 -75.5t72.5 -112.5t23.5 -139.5q0 -35 -6.5 -85.5t-21 -110t-38 -123.5t-58.5 -126t-81.5 -117.5t-106.5 -97.5t-135 -66.5t-166 -24.5q-102 0 -176.5 31 t-123.5 83.5t-72.5 121t-23.5 143.5zM252 346q0 -77 38 -113.5t112 -36.5q64 0 113.5 32.5t86 83t62 112.5t41 121t22.5 108t7 74q0 66 -38.5 102.5t-110.5 36.5q-63 0 -112.5 -32.5t-86.5 -83.5t-62.5 -112.5t-41.5 -119t-23 -104.5t-7 -68z" />
<glyph unicode="p" horiz-adv-x="1143" d="M-186 -407l394 1469h254l-30 -105q-2 -8 -8 -27t-17 -40q36 58 76.5 95.5t80.5 59.5t78 30.5t69 8.5q142 0 220.5 -91t78.5 -275q0 -75 -18.5 -159t-55.5 -166t-93 -157t-131.5 -132.5t-171 -91.5t-211.5 -34q-37 0 -72.5 2t-70.5 6l-105 -393h-267zM246 204 q21 -5 45 -7.5t50 -2.5q71 0 129 26.5t103 69.5t78 98.5t54.5 113.5t32 113t10.5 99q0 72 -23.5 110t-75.5 38q-43 0 -94 -36t-100 -100.5t-92.5 -154t-71.5 -196.5z" />
<glyph unicode="q" horiz-adv-x="1143" d="M-14 344q0 72 18 155.5t55 165.5t92.5 158t131.5 134t171.5 92.5t212.5 34.5q58 0 115.5 -5.5t109.5 -14t95.5 -19.5t73.5 -23l-381 -1429h-267l132 486q2 8 8 27t17 40q-29 -47 -65.5 -79t-75 -51.5t-76 -28.5t-68.5 -9q-142 0 -220.5 91t-78.5 275zM249 348 q0 -72 23.5 -110t71.5 -38q44 0 94.5 35t99.5 98.5t93 153.5t74 200l47 171q-21 5 -45 7.5t-50 2.5q-71 0 -129 -26.5t-103.5 -69.5t-78.5 -98.5t-54.5 -113.5t-32 -113t-10.5 -99z" />
<glyph unicode="r" horiz-adv-x="851" d="M-77 0l285 1062h252l-25 -91q-7 -25 -15.5 -46t-13.5 -35q60 94 141 144t176 50q15 0 34.5 -1.5t40 -4.5t40.5 -7t36 -9l-70 -263q-38 26 -74 38t-70 12q-63 0 -118.5 -37t-102.5 -101.5t-84.5 -151t-63.5 -184.5l-100 -375h-268z" />
<glyph unicode="s" horiz-adv-x="965" d="M-80 46l58 229q70 -29 154 -52t175 -23q31 0 65 6.5t62.5 22.5t46.5 42.5t18 65.5q0 37 -30 61.5t-75 45.5t-98 42.5t-98 53t-75 78t-30 116.5q0 94 37.5 160.5t101 108.5t147 61.5t176.5 19.5q43 -1 88 -5.5t87.5 -12t81 -17.5t69.5 -20l-58 -222q-80 26 -151 40.5 t-137 14.5q-86 0 -130.5 -26t-44.5 -77q0 -22 17.5 -38t46 -30.5t64.5 -28.5t74 -31.5t74 -41t64.5 -55.5t46 -75.5t17.5 -101.5q0 -103 -37.5 -175t-102.5 -117.5t-151.5 -66t-184.5 -20.5q-45 0 -97.5 5.5t-102.5 14.5t-94 21.5t-74 26.5z" />
<glyph unicode="t" horiz-adv-x="775" d="M44 253q0 65 22 147l116 435h-138l62 227h137l57 211l302 120l-89 -331h213l-61 -227h-213l-126 -471q-17 -63 -17 -101q0 -37 24 -50t56 -13q15 0 34.5 1t41 3t43.5 6t41 10l-61 -230q-32 -6 -65 -9t-65 -3q-66 0 -123 14.5t-99.5 47.5t-67 85.5t-24.5 127.5z" />
<glyph unicode="u" d="M-10 216q0 32 3.5 66t12.5 66l193 714h268l-198 -729q-6 -23 -9.5 -41.5t-3.5 -33.5q0 -26 18 -42t47 -16q47 0 102 35.5t108.5 99.5t99.5 154t75 198l100 375h268l-285 -1062h-252l25 91q7 25 15.5 46t13.5 35q-30 -45 -68 -81t-82 -61t-92 -38.5t-98 -13.5 q-65 0 -114 18.5t-81.5 50.5t-49 75.5t-16.5 93.5z" />
<glyph unicode="v" horiz-adv-x="1050" d="M99 829q0 58 4 117t11 116h265q-9 -69 -12 -127t-4 -110q0 -44 1 -96t2.5 -106.5t4.5 -110.5t8 -107q2 -14 3 -40t-4 -49q7 22 20 47.5t21 38.5q53 87 107.5 178.5t103.5 178.5t89 165t64 138h283q-26 -63 -68 -146t-95 -176.5t-113.5 -193.5t-122.5 -197t-124 -186.5 t-117 -162.5h-237q-20 89 -36.5 195t-28.5 216t-18.5 218t-6.5 200z" />
<glyph unicode="w" horiz-adv-x="1510" d="M67 759q0 79 5 156.5t13 146.5h265q-11 -80 -16 -155t-5 -143q0 -88 4.5 -188t14.5 -199v-15.5t-0.5 -20t-1.5 -20.5t-3 -17q8 13 19 31t19 29q51 75 99.5 151t96.5 151q-1 22 -1 47.5v45.5q0 79 5 156.5t13 146.5h265q-11 -80 -16 -155t-5 -143q0 -85 4 -183t15 -194 q2 -14 2.5 -38.5t-2.5 -42.5q3 8 8 19t11 22.5t11.5 21.5t9.5 16q64 99 121.5 193.5t106 181t86 163t63.5 139.5h283q-26 -63 -68 -146t-95 -176.5t-113.5 -193.5t-122.5 -197t-124 -186.5t-117 -162.5h-257q-16 69 -29 147t-24 162q-62 -86 -122 -166.5t-107 -142.5h-237 q-18 82 -32 177.5t-23.5 195.5t-14 199t-4.5 187z" />
<glyph unicode="x" horiz-adv-x="1098" d="M-162 0q70 105 140 191t139.5 160t137.5 138q34 32 67 63q-13 25 -26 49q-32 63 -62.5 133t-56.5 150.5t-44 177.5h264q12 -68 33 -132t48 -124q17 -38 35 -75q51 48 99 99q53 55 101.5 112t90.5 120h300q-69 -101 -138 -185.5t-138 -157.5t-137 -138q-34 -32 -67 -64 q17 -32 35 -65q36 -65 68 -136.5t58.5 -149.5t41.5 -166h-260q-15 74 -39 138.5t-52 121.5q-20 41 -41 79q-50 -49 -100 -99q-111 -112 -202 -240h-295z" />
<glyph unicode="y" horiz-adv-x="1070" d="M-327 -384l64 241q35 -19 63.5 -30.5t57.5 -11.5q27 0 57 11.5t66.5 39.5t82 75.5t104.5 120.5q-17 87 -30.5 186.5t-23.5 201t-15.5 199.5t-5.5 182q0 57 3 115t11 116h262q-8 -63 -12 -120t-4 -106q0 -92 7 -198t20 -215q2 -16 3 -41t-1 -41q3 7 9 17.5t12.5 22 t13.5 22t12 18.5q56 85 109.5 171.5t100.5 170t85.5 159.5t64.5 140h285q-26 -62 -67 -143.5t-92 -173.5t-110 -190t-120.5 -193t-123 -182.5t-118.5 -158.5q-88 -110 -162 -193.5t-145 -140t-145 -85.5t-162 -29q-6 0 -21 1t-36 5.5t-46.5 13t-52.5 23.5z" />
<glyph unicode="z" horiz-adv-x="1084" d="M-104 0l52 190q31 46 74.5 98.5t95 108t108.5 112t113 110t109 102t98 88.5q8 7 19.5 14t18.5 11h-440l62 228h823l-50 -190q-50 -34 -110 -80.5t-123.5 -100.5t-128 -112t-124 -115.5t-112.5 -111.5t-92 -99q-6 -7 -14 -14.5t-15 -12.5q56 -2 129 -6.5t151 -13.5 t155 -21.5t141 -28.5l-62 -226q-114 24 -223.5 38t-218 21t-217 9t-219.5 2z" />
<glyph unicode="{" horiz-adv-x="700" d="M-41 413l62 235q73 0 119 36t77.5 95t53.5 134.5t45.5 154.5t54 154.5t79 134.5t121 95t179.5 36h114l-60 -227h-70q-45 0 -75.5 -28t-52 -75t-38 -108t-34.5 -126t-39.5 -130t-54 -120t-78.5 -95t-112 -56q32 -14 52.5 -33.5t32.5 -43.5t16.5 -51.5t4.5 -58.5 q0 -38 -7.5 -82.5t-19 -91.5t-24.5 -93t-24.5 -88t-19 -76.5t-7.5 -57.5t14.5 -35t49.5 -12h92l-60 -227h-104q-122 0 -188 58t-66 179q0 54 16 116t35.5 128.5t36 135t16.5 134.5q0 48 -32.5 68.5t-104.5 20.5z" />
<glyph unicode="|" horiz-adv-x="500" d="M-200 -407l505 1873h243l-506 -1873h-242z" />
<glyph unicode="}" horiz-adv-x="700" d="M-322 -427l60 227h70q45 0 75.5 28t52 75t38 108t34.5 126t39.5 130t54 120t78.5 95t112 56q-32 14 -52.5 33.5t-32.5 43.5t-16.5 51.5t-4.5 58.5q0 57 16 127.5t35 139.5t35 128t16 94q0 23 -14.5 35t-49.5 12h-92l60 227h104q122 0 188 -58t66 -179q0 -54 -16.5 -116 t-36 -128.5t-35.5 -135t-16 -134.5q0 -48 32.5 -68.5t104.5 -20.5l-62 -235q-73 0 -119 -36t-77.5 -95t-53.5 -134.5t-45.5 -154.5t-54 -154.5t-79 -134.5t-121 -95t-179.5 -36h-114z" />
<glyph unicode="~" horiz-adv-x="1082" d="M-56 283l80 301q154 140 335 140q36 0 69 -6.5t63.5 -16.5t58.5 -23t55 -26q42 -20 81 -35.5t71 -15.5q21 0 55.5 15.5t79 43.5t96 67.5t107.5 86.5l-86 -321q-88 -69 -167.5 -100.5t-166.5 -31.5q-62 0 -116.5 20.5t-108.5 45.5q-46 22 -90 39.5t-80 17.5 q-23 0 -48.5 -8.5t-63.5 -31t-92 -61.5t-132 -100z" />
<glyph unicode="&#xad;" horiz-adv-x="592" d="M-30 405l68 251h559l-67 -251h-560z" />
<glyph unicode="&#x401;" horiz-adv-x="1303" d="M-68 0l71 265l321 1201h1027l-70 -261h-733l-84 -308h647l-68 -263h-649l-99 -369h755l-70 -265h-1048zM514 1566l71 266h274l-70 -266h-275zM898 1566l71 266h274l-71 -266h-274z" />
<glyph unicode="&#x402;" horiz-adv-x="1663" d="M126 1205l70 261h1159l-70 -261h-430l-92 -342q85 29 164 40t149 11q99 0 183 -26t144.5 -76t95 -123.5t34.5 -169.5q0 -109 -49.5 -207t-146 -172.5t-238 -118t-325.5 -43.5l70 265q99 0 173.5 19.5t125 55t75.5 85.5t25 111q0 73 -50.5 107t-141.5 34q-37 0 -82 -5 t-93.5 -16t-98 -29.5t-96.5 -45.5l-150 -559h-293l324 1205h-436z" />
<glyph unicode="&#x403;" horiz-adv-x="1093" d="M-71 0l392 1466h953l-70 -261h-658l-325 -1205h-292zM611 1566l260 311h317l-297 -311h-280z" />
<glyph unicode="&#x404;" horiz-adv-x="1295" d="M-112 500q0 31 5 90.5t20.5 135t44 161t76.5 170.5t117.5 163t166.5 137.5t224.5 95t290.5 35.5q161 0 367 -44l-71 -269q-104 32 -192.5 43.5t-159.5 11.5q-164 0 -291 -86t-207 -247h617l-69 -263h-634q-8 -39 -11 -73.5t-3 -66.5q0 -132 71 -195t214 -63 q49 0 97.5 4.5t98.5 13t103.5 20.5t112.5 26l-75 -285q-77 -14 -159.5 -25.5t-180.5 -11.5q-144 0 -251.5 36.5t-179 104t-107 164t-35.5 217.5z" />
<glyph unicode="&#x405;" horiz-adv-x="1224" d="M-97 60l70 272q44 -18 94.5 -36t106.5 -31.5t116.5 -22t124.5 -8.5t122 13t101 39t68.5 64.5t25.5 90.5q0 39 -19 68t-50.5 52.5t-72.5 43t-86 37.5q-65 27 -128.5 56t-114.5 72.5t-82.5 106.5t-31.5 158q0 110 47 194.5t131 142t199.5 87t252.5 29.5q91 0 195.5 -11 t234.5 -39l-72 -274q-89 28 -182 48t-200 20q-62 0 -118 -11t-98 -34t-66.5 -58t-24.5 -83q0 -30 16.5 -53t45 -42.5t65 -36t77.5 -33.5q67 -28 135 -60.5t123 -80.5t89.5 -117t34.5 -170q0 -121 -49 -210.5t-136.5 -148t-209 -87.5t-265.5 -29q-61 0 -128.5 7t-131 18.5 t-118.5 26.5t-91 30z" />
<glyph unicode="&#x406;" horiz-adv-x="592" d="M-68 0l392 1466h292l-393 -1466h-291z" />
<glyph unicode="&#x407;" horiz-adv-x="592" d="M-68 0l392 1466h292l-393 -1466h-291zM165 1566l71 266h274l-70 -266h-275zM549 1566l71 266h274l-71 -266h-274z" />
<glyph unicode="&#x408;" horiz-adv-x="594" d="M-477 -346l70 262q39 -10 65.5 -11.5t40.5 -1.5q44 0 85.5 12.5t78 45.5t67 90t54.5 145l341 1270h293l-359 -1340q-33 -125 -92.5 -217t-138.5 -152t-173.5 -89.5t-198.5 -29.5q-10 0 -25 1t-33 2.5t-37.5 4.5t-37.5 8z" />
<glyph unicode="&#x409;" horiz-adv-x="2150" d="M-169 -20l67 279q44 2 90 22.5t94.5 71t100.5 137t108.5 220t118 319.5t128.5 437h923l-153 -571q66 22 132 31.5t119 9.5q105 0 189.5 -28t143.5 -80.5t90.5 -126.5t31.5 -167q0 -101 -33.5 -197t-109 -171t-197.5 -120.5t-298 -45.5h-601l71 264l251 941h-336 q-74 -251 -147.5 -440t-147.5 -325t-150 -225t-155 -141t-161 -73t-169 -21zM1138 265h254q91 0 154 21t102 56.5t56.5 82.5t17.5 99q0 71 -48.5 112t-133.5 41q-59 0 -137.5 -17.5t-172.5 -55.5z" />
<glyph unicode="&#x40a;" horiz-adv-x="2158" d="M-68 0l392 1466h292l-153 -569h562l152 569h294l-153 -571q66 22 132 31.5t119 9.5q105 0 189.5 -28t143.5 -80.5t90.5 -126.5t31.5 -167q0 -101 -33.5 -197t-109 -171t-197.5 -120.5t-298 -45.5h-601l169 634h-561l-170 -634h-291zM1148 265h254q91 0 154 21t102 56.5 t56.5 82.5t17.5 99q0 71 -48.5 112t-133.5 41q-59 0 -137.5 -18t-172.5 -55z" />
<glyph unicode="&#x40b;" horiz-adv-x="1673" d="M126 1205l70 261h1159l-70 -261h-430l-64 -239q33 11 68 18.5t67.5 12t61 6.5t48.5 2q215 0 322 -91.5t107 -267.5q0 -40 -7 -89.5t-21 -100.5l-123 -456h-291l136 507q9 34 14 67t5 57q0 32 -14 54t-38.5 35.5t-57 19.5t-68.5 6q-39 0 -80 -5t-79 -13.5t-71 -19 t-55 -22.5l-184 -686h-293l324 1205h-436z" />
<glyph unicode="&#x40c;" horiz-adv-x="1337" d="M-68 0l392 1466h293l-151 -561q57 15 137 56t167.5 110.5t176 167.5t163.5 227h326q-69 -123 -147.5 -226t-161 -187.5t-166 -151t-164.5 -115.5q60 -84 113 -178t92.5 -194t63 -204.5t23.5 -209.5h-289q-1 68 -18 148.5t-50.5 167t-82 175.5t-112.5 174 q-79 -25 -143 -30l-170 -635h-292zM613 1566l260 311h317l-297 -311h-280z" />
<glyph unicode="&#x40e;" horiz-adv-x="1232" d="M-32 0q91 98 203 225t231 268q-51 130 -95 259.5t-77 254t-52 240.5t-19 219h288q0 -165 42.5 -344.5t115.5 -382.5q88 109 169 215t148 200.5t116.5 174.5t73.5 137h310q-29 -69 -78 -154t-112 -180t-137.5 -198t-154.5 -206.5t-162.5 -205.5t-161 -196t-151 -177 t-132.5 -149h-365zM545 1812q0 16 1 31t6 33h192q-2 -11 -4 -23t-2 -22q0 -37 22 -56t66 -19q57 0 94.5 32.5t64.5 87.5h206q-51 -136 -146 -211t-226 -75q-63 0 -113.5 14.5t-86.5 43t-55 69t-19 95.5z" />
<glyph unicode="&#x40f;" horiz-adv-x="1420" d="M-68 0l393 1466h294l-323 -1205h531l325 1205h292l-392 -1466h-366l-87 -317h-288l86 317h-465z" />
<glyph unicode="&#x410;" horiz-adv-x="1473" d="M-225 0q50 106 118 231t146.5 258t163.5 268.5t171 263t168.5 241.5t154.5 204h410q25 -95 45.5 -209t37 -240t28.5 -258.5t20 -263.5t12 -257t4 -238h-290q0 56 -1.5 127t-5.5 152.5t-9.5 171.5t-12.5 183h-392q42 67 84.5 132t85.5 131h196q-9 80 -19.5 157t-23.5 151 h-35q-73 -100 -147 -208.5t-145 -218.5t-137.5 -219t-125 -209.5t-106.5 -189.5t-82 -160h-313z" />
<glyph unicode="&#x411;" horiz-adv-x="1357" d="M-68 0l71 265l321 1201h1082l-70 -262h-788l-83 -309q66 22 132 31.5t119 9.5q105 0 189.5 -28t143.5 -80.5t90.5 -126.5t31.5 -167q0 -101 -33.5 -197t-109 -171t-197.5 -120.5t-298 -45.5h-601zM295 265h254q91 0 154 21t102 56.5t56.5 82.5t17.5 99q0 71 -48.5 112 t-133.5 41q-59 0 -137.5 -18t-172.5 -55z" />
<glyph unicode="&#x412;" horiz-adv-x="1382" d="M-68 0l71 265l321 1201q85 0 155 3t133 7t123 7t125 3q110 0 194.5 -26t141.5 -73.5t86.5 -114t29.5 -147.5q0 -60 -15.5 -117t-45.5 -106t-74.5 -88t-101.5 -63q33 -19 57.5 -46t40 -58.5t23 -66.5t7.5 -70q0 -95 -25 -169.5t-69.5 -131.5t-105.5 -96.5t-133.5 -64.5 t-154 -36.5t-165.5 -11.5h-618zM293 265h273q66 0 128.5 9.5t110.5 35.5t77 73t29 122q0 60 -50.5 94.5t-149.5 34.5h-228l71 263h163q60 0 114.5 11t96 36.5t66 67t24.5 101.5q0 63 -42.5 90.5t-120.5 27.5q-50 0 -98.5 -2t-89 -4.5t-71 -4.5t-44.5 -2z" />
<glyph unicode="&#x413;" horiz-adv-x="1127" d="M-68 0l392 1466h953l-70 -261h-658l-325 -1205h-292z" />
<glyph unicode="&#x414;" horiz-adv-x="1441" d="M-281 -216l128 481h158q64 57 123.5 153t119.5 241.5t123 344.5t134 462h941l-322 -1201h160l-128 -481h-294l58 216h-850l-57 -216h-294zM345 265h486l252 940h-355q-49 -167 -95.5 -307t-93.5 -256.5t-95 -210t-99 -166.5z" />
<glyph unicode="&#x415;" horiz-adv-x="1303" d="M-68 0l71 265l321 1201h1027l-70 -261h-733l-84 -308h647l-68 -263h-649l-99 -369h755l-70 -265h-1048z" />
<glyph unicode="&#x416;" horiz-adv-x="1957" d="M-197 0q40 90 112 197.5t165.5 218t204 214.5t227.5 187q-47 49 -87.5 113.5t-72.5 145t-53 178t-27 212.5h281q12 -129 39.5 -224.5t66.5 -162t86.5 -107t98.5 -59.5l148 553h293l-150 -560q51 16 116 53.5t139 104t155.5 165.5t165.5 237h328q-80 -140 -162.5 -252.5 t-166 -200.5t-166 -153.5t-161.5 -110.5q73 -81 134.5 -176t105.5 -193t68.5 -195.5t24.5 -184.5h-290q-2 73 -23 157t-61 169.5t-97 168t-130 152.5q-14 -2 -26.5 -4t-25.5 -3l-171 -640h-293l175 653l-35 11q-106 -71 -199.5 -155t-171 -171t-138 -174t-100.5 -164h-327z " />
<glyph unicode="&#x417;" horiz-adv-x="1197" d="M-143 95l72 275q43 -26 93.5 -49t106.5 -40.5t117 -28t124 -10.5q70 0 136.5 15.5t118 47.5t82.5 81t31 116q0 68 -58.5 100t-177.5 32h-276l69 263h250q56 0 111.5 9.5t99 33.5t70.5 65t27 104q0 32 -15.5 55t-42.5 37.5t-64 21.5t-80 7q-108 0 -219 -22.5t-239 -75.5 l78 290q79 26 175 46t214 20q108 0 198 -23.5t155.5 -69t101.5 -112t36 -153.5q0 -56 -14 -112.5t-44 -106.5t-77 -91t-113 -66q71 -38 99.5 -98t28.5 -133q0 -132 -55.5 -233.5t-148.5 -170.5t-213.5 -105t-250.5 -36q-66 0 -140.5 9.5t-144.5 26t-128.5 37.5t-92.5 44z " />
<glyph unicode="&#x418;" horiz-adv-x="1478" d="M-68 0l392 1466h294l-222 -824q8 20 20 43t25.5 45.5t27.5 42t25 33.5q64 75 132.5 147t137 138t134.5 125t125 107.5t109 85t87 57.5h283l-393 -1466h-294l282 1055q-58 -54 -127.5 -123.5t-145 -150.5t-155 -172.5t-158.5 -190.5t-154.5 -204.5t-142.5 -213.5h-282z " />
<glyph unicode="&#x419;" horiz-adv-x="1478" d="M-68 0l392 1466h294l-222 -824q8 20 20 43t25.5 45.5t27.5 42t25 33.5q64 75 132.5 147t137 138t134.5 125t125 107.5t109 85t87 57.5h283l-393 -1466h-294l282 1055q-58 -54 -127.5 -123.5t-145 -150.5t-155 -172.5t-158.5 -190.5t-154.5 -204.5t-142.5 -213.5h-282z M668 1813q0 16 1 31t6 33h192q-2 -11 -4 -23t-2 -22q0 -37 22 -56t66 -19q57 0 94.5 32.5t64.5 87.5h206q-51 -136 -146 -211t-226 -75q-63 0 -113.5 14.5t-86.5 43t-55 69t-19 95.5z" />
<glyph unicode="&#x41a;" horiz-adv-x="1337" d="M-68 0l392 1466h293l-151 -561q57 15 137 56t167.5 110.5t176 167.5t163.5 227h326q-69 -123 -147.5 -226t-161 -187.5t-166 -151t-164.5 -115.5q60 -84 113 -178t92.5 -194t63 -204.5t23.5 -209.5h-289q-1 68 -18 148.5t-50.5 167t-82 175.5t-112.5 174 q-79 -25 -143 -30l-170 -635h-292z" />
<glyph unicode="&#x41b;" horiz-adv-x="1378" d="M-227 -20l67 279q44 2 90 22.5t94.5 71t100.5 137t108.5 220t118 319.5t128.5 437h922l-393 -1466h-292l323 1205h-337q-74 -251 -147.5 -440t-147.5 -325t-150 -225t-155 -141t-161 -73t-169 -21z" />
<glyph unicode="&#x41c;" horiz-adv-x="1786" d="M-68 0l392 1466h235q35 -32 78.5 -103t86 -165t78 -202t54.5 -212q65 104 149.5 206t175.5 192t181.5 163.5t168.5 120.5h279l-393 -1466h-292l285 1062q-60 -58 -125.5 -130.5t-132 -156.5t-131 -177.5t-120.5 -193.5h-235q-11 100 -28 194.5t-38 178.5t-45 156t-48 126 l-284 -1059h-291z" />
<glyph unicode="&#x41d;" horiz-adv-x="1446" d="M-68 0l392 1466h292l-153 -569h561l154 569h292l-393 -1466h-292l170 634h-562l-170 -634h-291z" />
<glyph unicode="&#x41e;" horiz-adv-x="1512" d="M30 488q0 20 5 73.5t19 127.5t40.5 162t68.5 176.5t103 171.5t145 147.5t193.5 103t249.5 38.5q144 0 249.5 -38t174.5 -105.5t102.5 -161t33.5 -205.5q0 -33 -6.5 -93.5t-24 -137t-46.5 -163.5t-74 -172.5t-107.5 -164t-146 -138.5t-190 -95.5t-239.5 -35.5 q-144 0 -248 38t-171 105.5t-99 161t-32 205.5zM323 487q0 -128 66 -194t203 -66q85 0 153.5 29t121.5 77t92.5 110t68 129t46.5 133.5t28.5 122.5t14.5 97t4 57q0 129 -71 193t-208 64q-90 0 -160.5 -30.5t-123.5 -80.5t-91.5 -114.5t-64.5 -133t-41.5 -135t-24 -121 t-11 -91.5t-2.5 -46z" />
<glyph unicode="&#x41f;" horiz-adv-x="1420" d="M-68 0l392 1466h1120l-393 -1466h-294l323 1205h-531l-325 -1205h-292z" />
<glyph unicode="&#x420;" horiz-adv-x="1353" d="M-68 0l392 1466q67 0 132.5 3.5t130 7.5t128.5 7.5t128 3.5q127 0 220 -27.5t154.5 -77t91.5 -119.5t30 -155q0 -142 -51.5 -245t-137.5 -169.5t-197.5 -98.5t-232.5 -32q-62 0 -123.5 7.5t-121.5 23.5l68 255q54 -15 105.5 -20.5t86.5 -5.5q66 0 122 14.5t97 47.5t64 85 t23 127q0 29 -11 53t-35.5 41t-64.5 26.5t-97 9.5q-77 0 -146 -7.5t-137 -7.5l-326 -1213h-292z" />
<glyph unicode="&#x421;" horiz-adv-x="1273" d="M21 481q0 118 38 265q49 184 119.5 323t171 232t236.5 140t317 47q79 0 190.5 -13.5t244.5 -40.5l-73 -266q-118 34 -223 50.5t-179 16.5q-90 0 -167 -26.5t-141.5 -87t-116 -159t-90.5 -242.5q-18 -67 -26.5 -124t-8.5 -105q0 -136 76 -197t220 -61q70 0 180.5 14.5 t242.5 48.5l-73 -279q-94 -19 -188 -29t-193 -10q-136 0 -240 33.5t-174.5 98t-106.5 158t-36 213.5z" />
<glyph unicode="&#x422;" horiz-adv-x="1206" d="M126 1205l70 261h1159l-70 -261h-430l-324 -1205h-293l324 1205h-436z" />
<glyph unicode="&#x423;" horiz-adv-x="1232" d="M-32 0q91 98 203 225t231 268q-51 130 -95 259.5t-77 254t-52 240.5t-19 219h288q0 -165 42.5 -344.5t115.5 -382.5q88 109 169 215t148 200.5t116.5 174.5t73.5 137h310q-29 -69 -78 -154t-112 -180t-137.5 -198t-154.5 -206.5t-162.5 -205.5t-161 -196t-151 -177 t-132.5 -149h-365z" />
<glyph unicode="&#x424;" horiz-adv-x="1747" d="M57.5 515.5q-18.5 117.5 23.5 276.5q33 122 98 222t163.5 171.5t230.5 111t298 40.5l35 129h288l-35 -131q139 -8 244.5 -52.5t168 -127t77 -202t-27.5 -276.5q-33 -122 -98 -219t-162.5 -165t-227 -105t-292.5 -38l-40 -150h-288l40 151q-133 7 -239.5 48t-172 120 t-84 196.5zM341.5 599.5q2.5 -59.5 32.5 -102t90.5 -66t156.5 -26.5l182 676q-105 -4 -179.5 -30.5t-126.5 -71.5t-85 -107.5t-53 -137.5t-17.5 -134.5zM910 405q103 4 176.5 28t124.5 66t83 101t52 134t18.5 137.5t-30.5 107.5t-88.5 71.5t-154.5 30.5z" />
<glyph unicode="&#x425;" horiz-adv-x="1338" d="M-210 0q84 127 175.5 238t187.5 211.5t194 192.5l132 122q-19 35 -39 70q-50 91 -95.5 189.5t-83 208t-59.5 234.5h289q18 -96 50.5 -186.5t73.5 -176.5q35 -73 73 -143q94 91 180 181q151 157 268 325h342q-92 -133 -185 -247.5t-186.5 -216t-188.5 -193.5l-96 -92 q30 -55 60 -112q48 -89 91 -185t77.5 -200.5t54.5 -219.5h-288q-18 94 -48 179t-67 165.5t-80 157.5q-5 10 -11 19l-50 -46q-82 -77 -158.5 -154.5t-145.5 -157t-128 -163.5h-339z" />
<glyph unicode="&#x426;" horiz-adv-x="1472" d="M-68 0l392 1466h293l-322 -1201h532l323 1201h294l-323 -1201h177l-128 -481h-295l58 216h-1001z" />
<glyph unicode="&#x427;" horiz-adv-x="1337" d="M133 820q0 40 7 89.5t21 100.5l123 456h291l-136 -507q-9 -34 -14 -67t-5 -57q0 -32 14 -54t38.5 -35.5t57 -19.5t68.5 -6q39 0 81 6t80.5 15t71.5 21t55 24l183 680h292l-394 -1466h-291l134 501q-68 -25 -132.5 -32.5t-115.5 -7.5q-215 0 -322 91.5t-107 267.5z" />
<glyph unicode="&#x428;" horiz-adv-x="1971" d="M-68 0l392 1466h293l-323 -1201h396l324 1201h292l-322 -1201h396l323 1201h292l-393 -1466h-1670z" />
<glyph unicode="&#x429;" horiz-adv-x="2023" d="M-68 0l392 1466h293l-323 -1201h396l324 1201h292l-322 -1201h396l323 1201h292l-322 -1201h186l-128 -481h-293l57 216h-1563z" />
<glyph unicode="&#x42a;" horiz-adv-x="1521" d="M112 1205l70 261h650l-153 -571q66 22 132 31.5t119 9.5q105 0 189.5 -28t143.5 -80.5t90.5 -126.5t31.5 -167q0 -101 -33.5 -197t-109 -171t-197.5 -120.5t-298 -45.5h-601l71 266l251 939h-356zM509 265h254q91 0 154 21t102 56.5t56.5 82.5t17.5 99q0 71 -48.5 112 t-133.5 41q-59 0 -137.5 -18t-172.5 -55z" />
<glyph unicode="&#x42b;" horiz-adv-x="1851" d="M-68 0l71 265l321 1201h294l-153 -571q66 22 127 31.5t114 9.5q105 0 188 -28t140 -80.5t87 -126.5t30 -167q0 -101 -32 -197t-105.5 -171t-194 -120.5t-296.5 -45.5h-591zM295 265h244q91 0 152.5 21t98.5 56.5t53 82.5t16 99q0 71 -43.5 112t-128.5 41 q-59 0 -132.5 -18t-167.5 -55zM1191 0l392 1466h292l-393 -1466h-291z" />
<glyph unicode="&#x42c;" horiz-adv-x="1307" d="M-68 0l71 265l321 1201h294l-153 -571q66 22 132 31.5t119 9.5q105 0 189.5 -28t143.5 -80.5t90.5 -126.5t31.5 -167q0 -101 -33.5 -197t-109 -171t-197.5 -120.5t-298 -45.5h-601zM295 265h254q91 0 154 21t102 56.5t56.5 82.5t17.5 99q0 71 -48.5 112t-133.5 41 q-59 0 -137.5 -18t-172.5 -55z" />
<glyph unicode="&#x42d;" horiz-adv-x="1286" d="M-121 22l71 269q105 -32 201.5 -43.5t166.5 -11.5q111 0 194.5 34t145.5 88.5t104 124.5t69 142h-632l69 263h626q3 30 4.5 52t1.5 32q0 75 -23 125t-63.5 80t-95 42t-116.5 12q-97 0 -201.5 -19.5t-197.5 -45.5l76 285q76 14 158.5 25.5t181.5 11.5q144 0 251 -36.5 t178.5 -104t107 -164t35.5 -217.5q0 -34 -5.5 -94.5t-22 -136.5t-46 -161.5t-77.5 -169.5t-116.5 -161t-163.5 -136t-218.5 -94t-280.5 -35q-66 0 -120.5 3.5t-101 9.5t-85.5 14t-75 17z" />
<glyph unicode="&#x42e;" horiz-adv-x="2083" d="M-68 0l392 1466h294l-155 -578h258q23 71 56.5 143t78.5 138.5t103.5 124.5t132 101t163 68t198.5 25q139 0 240 -35t165.5 -100t95.5 -157.5t31 -206.5q0 -35 -6 -97.5t-21.5 -140.5t-42.5 -165.5t-69.5 -173.5t-102 -164.5t-140 -139t-184 -96t-233.5 -35.5 q-145 0 -248 34t-169 97.5t-96.5 153.5t-30.5 202q0 16 3 58.5t12 102.5h-265l-167 -625h-293zM934 463q0 -116 62.5 -172t198.5 -56q80 0 144 28.5t114 76.5t87 110t64 128.5t44.5 133t27.5 123t14 98.5t4 60q0 117 -63 177t-194 60q-85 0 -151.5 -29.5t-117.5 -78.5 t-88.5 -112t-63.5 -131t-42 -135.5t-25 -124.5t-12 -98.5t-3 -57.5z" />
<glyph unicode="&#x42f;" horiz-adv-x="1384" d="M-207 0q55 82 121 166t142 166t161 158.5t178 143.5q-107 45 -165.5 124t-58.5 200q0 42 10.5 95.5t37.5 110t73 111t117 97t169.5 68.5t230.5 26h599l-393 -1466h-294l162 606q-78 -27 -154.5 -69.5t-148.5 -94.5t-138.5 -110.5t-124.5 -116.5t-105 -113.5t-80 -101.5 h-339zM466 964q0 -66 46 -105.5t140 -39.5q18 0 53.5 4.5t79 13.5t90 22.5t85.5 30.5l84 315h-259q-66 0 -115.5 -12t-84.5 -32t-58.5 -45t-36.5 -52t-18.5 -53t-5.5 -47z" />
<glyph unicode="&#x430;" d="M-13 344q0 66 16 146.5t51 162.5t89.5 160t131.5 138t177 96.5t226 36.5q58 0 114 -5.5t106 -14t92 -19.5t72 -23l-273 -1022h-254l30 105q2 8 8 27t17 40q-36 -58 -76.5 -95.5t-81 -59.5t-78.5 -30.5t-69 -8.5q-142 0 -220 91t-78 275zM249 348q0 -75 25.5 -113.5 t82.5 -34.5q43 3 93.5 42t98.5 104.5t89.5 153t67.5 187.5l45 171q-21 5 -40 7.5t-45 2.5q-78 0 -139 -28.5t-107.5 -74t-79 -103t-53 -115t-29.5 -110t-9 -89.5z" />
<glyph unicode="&#x431;" horiz-adv-x="1181" d="M28 345q-2 59 11 147.5t40.5 190.5t69 209t96 202.5t122.5 171.5t149 117q47 24 95 37.5t97 21t97.5 10.5t96.5 5q27 1 55.5 3t62 5.5t74.5 9.5t93 16l-59 -230q-70 -20 -126 -25.5t-110 -5.5q-81 0 -138 -7.5t-101.5 -30t-82 -65t-80.5 -111.5q52 25 97.5 35.5 t81.5 10.5q87 0 153 -27.5t109.5 -76t65.5 -114t22 -141.5q0 -59 -14 -135.5t-44 -157t-78 -158t-115 -138.5t-155.5 -98.5t-200.5 -37.5q-96 0 -167 24.5t-118 71.5t-71.5 115t-27.5 156zM290 370q0 -36 5.5 -67t19.5 -54t39 -36t64 -13q69 0 120.5 31.5t89 81t62 109 t39 115.5t20 101t5.5 65q0 71 -31.5 102.5t-85.5 33.5q-30 1 -64.5 -4.5t-70 -17t-70 -29.5t-64.5 -41q-18 -53 -32.5 -105.5t-24.5 -101t-15.5 -92t-5.5 -78.5z" />
<glyph unicode="&#x432;" horiz-adv-x="1096" d="M3 363q0 84 19 170t55.5 166t90.5 150t123.5 122.5t154 82.5t183.5 30q78 0 144 -17.5t113.5 -51.5t74 -85.5t26.5 -118.5q0 -41 -14.5 -83t-46 -82t-80.5 -75.5t-117 -62.5q45 -27 67 -63t32 -81q9 -41 2.5 -85.5t-29 -87.5t-60 -81.5t-90.5 -68t-121 -46.5t-151 -17 q-100 0 -171 31t-116.5 83.5t-67 122.5t-21.5 148zM267 341q0 -47 15 -75t36 -43t43.5 -20t37.5 -5q45 0 79 13.5t56.5 35.5t33.5 50t11 56q0 34 -15.5 52.5t-41 27.5t-58 9.5t-66.5 -1.5t-67 -5t-58 -2q-6 -47 -6 -93zM323 625q90 5 163.5 17.5t125 33t80 49t28.5 66.5 q0 73 -94 73q-52 0 -98 -19t-85 -52t-69.5 -76.5t-50.5 -91.5z" />
<glyph unicode="&#x433;" horiz-adv-x="974" d="M-57 243q0 93 37.5 156.5t97.5 107t134.5 73t148.5 54.5q55 19 99.5 37t75.5 37t48 40t17 46q0 33 -26 50.5t-94 17.5q-66 0 -147.5 -14t-179.5 -44l62 238q69 20 143.5 31t136.5 11q81 0 148 -16.5t115 -50t75 -84t27 -119.5q0 -76 -28.5 -132t-74.5 -97.5t-105 -72 t-121 -54t-121 -44t-105 -42.5t-74.5 -48.5t-28.5 -62.5q0 -30 29 -45.5t92 -15.5q92 0 194.5 22.5t196.5 57.5l-66 -243q-34 -12 -77.5 -23t-89.5 -19t-89 -12.5t-75 -4.5q-87 0 -156.5 17.5t-118 51.5t-74.5 83.5t-26 112.5z" />
<glyph unicode="&#x434;" horiz-adv-x="1164" d="M-9 347q0 50 11 122t38.5 151.5t72.5 158.5t113 142t161 102t216 39q45 0 93.5 -8t81.5 -18q0 45 -7 85t-27 71.5t-54.5 50.5t-88.5 22q-66 3 -142 -11t-175 -47l61 239q69 21 138.5 31.5t132.5 10.5q102 0 182.5 -30t136 -91.5t85 -154t29.5 -217.5q0 -129 -18.5 -254.5 t-56 -238.5t-93 -209t-129.5 -166t-165.5 -109.5t-201.5 -39.5q-102 0 -176 27t-122.5 75.5t-72 116.5t-23.5 150zM254 340q0 -39 10.5 -65.5t29 -43t43.5 -24t54 -7.5q78 0 141 48.5t110 129.5t78 187t45 221q-36 26 -78.5 40t-96.5 14q-60 0 -108 -28t-85.5 -72.5 t-64.5 -100t-44.5 -111t-25.5 -105.5t-8 -83z" />
<glyph unicode="&#x435;" horiz-adv-x="1088" d="M-2 363q0 90 19.5 179t57 169t92.5 148.5t125.5 118t156.5 78t185 28.5q78 0 145.5 -18t117 -54t77.5 -90t28 -126q0 -77 -41 -145t-130.5 -120.5t-229.5 -86t-338 -42.5q-1 -11 -1.5 -22t-0.5 -22q0 -49 13 -79.5t35.5 -48t51.5 -24t61 -6.5q27 0 63 1.5t80.5 8.5 t97 21.5t111.5 40.5l-63 -243q-23 -14 -58.5 -23.5t-75 -15.5t-81 -9t-76.5 -3q-119 0 -199.5 29.5t-130 81.5t-71 122.5t-21.5 151.5zM315 614q94 6 171.5 19.5t133 35.5t85.5 52.5t30 69.5q0 36 -29 56t-75 20q-60 0 -111.5 -19.5t-93 -53.5t-70 -80.5t-41.5 -99.5z" />
<glyph unicode="&#x436;" horiz-adv-x="2014" d="M-140 5l59 223q51 -17 90.5 -22.5t74.5 -5.5q50 0 96 23t85.5 62t72.5 90t56 107.5t36 114t13 110.5q0 36 -6 65t-21.5 49.5t-41.5 31t-66 10.5q-39 0 -95.5 -13t-120.5 -46l68 256q38 11 79.5 17.5t81.5 6.5q190 0 285.5 -97.5t95.5 -278.5q0 -10 -0.5 -19.5t-1.5 -19.5 h120l106 393h266l-106 -393h119q39 85 96.5 160.5t130.5 132t159.5 89.5t183.5 33q44 0 94 -5t109 -22l-60 -223q-46 17 -87 22.5t-76 5.5q-50 0 -95.5 -23t-85.5 -62t-73 -90t-56 -107.5t-36 -114.5t-13 -110q0 -36 6 -65t21.5 -49.5t41.5 -31t67 -10.5q38 0 93 11.5 t120 43.5l-68 -253q-83 -23 -159 -23q-191 0 -288.5 96.5t-97.5 279.5q0 43 6 88h-113l-118 -442h-266l118 442h-109q-35 -93 -92.5 -177t-132.5 -147.5t-166 -101.5t-194 -38q-45 0 -98 6.5t-107 20.5z" />
<glyph unicode="&#x437;" horiz-adv-x="991" d="M-131 37l62 233q34 -14 75 -26.5t86 -22t92 -15t93 -5.5q37 0 80 6t79 23.5t60 48t24 80.5q0 41 -37.5 56t-122.5 15h-227l62 227h204q37 0 72.5 7.5t63.5 24t45.5 42t17.5 61.5q0 38 -28 54t-95 16q-79 0 -163.5 -13t-178.5 -35l65 243q30 5 66 10t74.5 8.5t75.5 6 t69 2.5q189 0 286.5 -69t97.5 -194q0 -81 -41 -154t-129 -117q51 -28 71 -69.5t20 -94.5q0 -103 -43 -179.5t-115 -127.5t-166 -76t-196 -25q-44 0 -101.5 4.5t-114 13t-106 19t-77.5 22.5z" />
<glyph unicode="&#x438;" d="M-10 216q0 32 3.5 66t12.5 66l193 714h268l-198 -729q-6 -23 -9.5 -41.5t-3.5 -33.5q0 -26 18 -42t47 -16q47 0 102 35.5t108.5 99.5t99.5 154t75 198l100 375h268l-285 -1062h-252l25 91q7 25 15.5 46t13.5 35q-30 -45 -68 -81t-82 -61t-92 -38.5t-98 -13.5 q-65 0 -114 18.5t-81.5 50.5t-49 75.5t-16.5 93.5z" />
<glyph unicode="&#x439;" d="M-10 216q0 32 3.5 66t12.5 66l193 714h268l-198 -729q-6 -23 -9.5 -41.5t-3.5 -33.5q0 -26 18 -42t47 -16q47 0 102 35.5t108.5 99.5t99.5 154t75 198l100 375h268l-285 -1062h-252l25 91q7 25 15.5 46t13.5 35q-30 -45 -68 -81t-82 -61t-92 -38.5t-98 -13.5 q-65 0 -114 18.5t-81.5 50.5t-49 75.5t-16.5 93.5zM410 1424q0 16 1 31t6 33h192q-2 -11 -4 -23t-2 -22q0 -37 22 -56t66 -19q57 0 94.5 32.5t64.5 87.5h206q-51 -136 -146 -211t-226 -75q-63 0 -113.5 14.5t-86.5 43t-55 69t-19 95.5z" />
<glyph unicode="&#x43a;" horiz-adv-x="1074" d="M-76 0l284 1062h268l-98 -374q61 16 116.5 53t105.5 87t94.5 110t82.5 124h287q-41 -78 -89.5 -150t-102.5 -135t-114 -116t-124 -93q83 -116 131.5 -259t53.5 -309h-263q-8 152 -48 267.5t-109 200.5q-42 -9 -86 -12l-121 -456h-268z" />
<glyph unicode="&#x43b;" horiz-adv-x="1208" d="M-174 -20l62 229q40 1 81.5 23.5t85.5 82.5t93.5 166t106.5 276q28 82 67 140t89.5 95t111.5 53.5t133 16.5h481l-283 -1062h-269l222 835h-159q-19 0 -39 -5t-38.5 -19t-35.5 -39.5t-30 -66.5q-53 -168 -107 -287t-109 -199.5t-111.5 -128t-114.5 -72t-117 -31.5 t-120 -7z" />
<glyph unicode="&#x43c;" horiz-adv-x="1419" d="M-76 0l283 1062h238q26 -33 52.5 -87.5t49.5 -120.5t41.5 -137.5t28.5 -138.5q44 70 103.5 143t123 139t124 119t105.5 83h276l-285 -1062h-269l174 642q-46 -44 -91.5 -98.5t-87 -113.5t-78 -118.5t-64.5 -113.5h-220q0 253 -66 442l-171 -640h-267z" />
<glyph unicode="&#x43d;" horiz-adv-x="1168" d="M-76 0l283 1062h270l-110 -404h352l109 404h270l-286 -1062h-269l116 431h-352l-116 -431h-267z" />
<glyph unicode="&#x43e;" horiz-adv-x="1131" d="M-11 357q0 35 6.5 84.5t21 107t38 119.5t58.5 121.5t81.5 113t106.5 94t135 64t166 23.5q102 0 176.5 -27.5t123.5 -75.5t72.5 -112.5t23.5 -139.5q0 -35 -6.5 -85.5t-21 -110t-38 -123.5t-58.5 -126t-81.5 -117.5t-106.5 -97.5t-135 -66.5t-166 -24.5q-102 0 -176.5 31 t-123.5 83.5t-72.5 121t-23.5 143.5zM252 346q0 -77 38 -113.5t112 -36.5q64 0 113.5 32.5t86 83t62 112.5t41 121t22.5 108t7 74q0 66 -38.5 102.5t-110.5 36.5q-63 0 -112.5 -32.5t-86.5 -83.5t-62.5 -112.5t-41.5 -119t-23 -104.5t-7 -68z" />
<glyph unicode="&#x43f;" horiz-adv-x="1140" d="M-76 0l283 1062h863l-285 -1062h-270l225 835h-325l-223 -835h-268z" />
<glyph unicode="&#x440;" horiz-adv-x="1143" d="M-186 -407l394 1469h254l-30 -105q-2 -8 -8 -27t-17 -40q36 58 76.5 95.5t80.5 59.5t78 30.5t69 8.5q142 0 220.5 -91t78.5 -275q0 -75 -18.5 -159t-55.5 -166t-93 -157t-131.5 -132.5t-171 -91.5t-211.5 -34q-37 0 -72.5 2t-70.5 6l-105 -393h-267zM246 204 q21 -5 45 -7.5t50 -2.5q71 0 129 26.5t103 69.5t78 98.5t54.5 113.5t32 113t10.5 99q0 72 -23.5 110t-75.5 38q-43 0 -94 -36t-100 -100.5t-92.5 -154t-71.5 -196.5z" />
<glyph unicode="&#x441;" horiz-adv-x="977" d="M-13 354q0 83 18 169.5t53.5 167.5t88.5 152.5t123 125t157.5 84.5t192.5 31q32 0 72 -3t81.5 -10t82 -17t73.5 -24l-58 -227q-66 30 -135.5 44.5t-134.5 14.5q-57 0 -104.5 -23t-86.5 -62t-68.5 -90t-50 -107.5t-30.5 -114.5t-10 -110q0 -84 44.5 -119.5t121.5 -35.5 q78 0 158.5 17.5t157.5 57.5l-63 -248q-65 -29 -126 -39t-133 -10q-213 0 -318.5 98.5t-105.5 277.5z" />
<glyph unicode="&#x442;" horiz-adv-x="1693" d="M-77 0l285 1062h262l-35 -91q-7 -25 -15.5 -46t-13.5 -35q60 91 145 142.5t185 51.5q54 0 94.5 -15.5t69 -42t46 -62.5t24.5 -76q30 45 68.5 81t83 61.5t93.5 39.5t99 14q82 0 133.5 -34.5t77.5 -88t28.5 -119t-14.5 -128.5l-193 -714h-268l198 729q17 62 6 97.5 t-47 35.5q-43 0 -93.5 -30t-100 -90t-94.5 -151.5t-78 -214.5l-101 -376h-268l198 729q17 62 6 97.5t-47 35.5q-43 0 -93.5 -30.5t-100 -91t-94.5 -152t-78 -213.5l-100 -375h-268z" />
<glyph unicode="&#x443;" horiz-adv-x="1070" d="M-327 -384l64 241q35 -19 63.5 -30.5t57.5 -11.5q27 0 57 11.5t66.5 39.5t82 75.5t104.5 120.5q-17 87 -30.5 186.5t-23.5 201t-15.5 199.5t-5.5 182q0 57 3 115t11 116h262q-8 -63 -12 -120t-4 -106q0 -92 7 -198t20 -215q2 -16 3 -41t-1 -41q3 7 9 17.5t12.5 22 t13.5 22t12 18.5q56 85 109.5 171.5t100.5 170t85.5 159.5t64.5 140h285q-26 -62 -67 -143.5t-92 -173.5t-110 -190t-120.5 -193t-123 -182.5t-118.5 -158.5q-88 -110 -162 -193.5t-145 -140t-145 -85.5t-162 -29q-6 0 -21 1t-36 5.5t-46.5 13t-52.5 23.5z" />
<glyph unicode="&#x444;" horiz-adv-x="1626" d="M5 336q0 54 9.5 130t33.5 159.5t66.5 165.5t108 147t157.5 105.5t216 40.5q38 0 77 -6.5t73 -18.5l111 407h267l-110 -398q34 9 63.5 12.5t48.5 3.5q74 0 137.5 -17.5t110 -58t73 -105.5t26.5 -161q0 -73 -11.5 -157.5t-38.5 -169.5t-71.5 -163.5t-110.5 -139 t-155.5 -96.5t-205.5 -36q-44 0 -81 4t-70 14l-107 -405h-267l106 399q-29 -8 -52.5 -10t-44.5 -2q-78 0 -144 20t-113.5 63t-74.5 110.5t-27 162.5zM267 331q0 -75 34.5 -102.5t96.5 -27.5q29 0 64 5.5t60 19.5l166 616q-17 9 -42.5 15t-58.5 6q-64 0 -112 -32.5t-83.5 -83 t-59.5 -112t-38.5 -120.5t-20.5 -108.5t-6 -75.5zM786 215q20 -10 45 -12t58 -2q60 0 107 30.5t82.5 79t60 108.5t40 118.5t22.5 109t7 80.5q0 75 -29 105.5t-91 30.5q-43 0 -76.5 -8t-60.5 -23z" />
<glyph unicode="&#x445;" horiz-adv-x="1098" d="M-162 0q70 105 140 191t139.5 160t137.5 138q34 32 67 63q-13 25 -26 49q-32 63 -62.5 133t-56.5 150.5t-44 177.5h264q12 -68 33 -132t48 -124q17 -38 35 -75q51 48 99 99q53 55 101.5 112t90.5 120h300q-69 -101 -138 -185.5t-138 -157.5t-137 -138q-34 -32 -67 -64 q17 -32 35 -65q36 -65 68 -136.5t58.5 -149.5t41.5 -166h-260q-15 74 -39 138.5t-52 121.5q-20 41 -41 79q-50 -49 -100 -99q-111 -112 -202 -240h-295z" />
<glyph unicode="&#x446;" horiz-adv-x="1185" d="M-3 257q0 58 17 118l184 687h268l-193 -714q-7 -24 -10 -47t-3 -43q0 -26 10.5 -42t37.5 -16q41 0 90 32t98 93.5t93 152.5t76 209l100 375h268l-201 -745q-6 -21 -10 -37t-4 -27q0 -19 14 -26.5t51 -7.5h186q-15 -102 -39.5 -177t-53.5 -128.5t-60 -88.5t-60 -57h-285 q70 51 112 111t65 121q-30 3 -56.5 10t-47.5 21t-36 36t-24 54q-63 -66 -141.5 -104.5t-156.5 -38.5q-77 0 -131.5 22.5t-89.5 60.5t-51.5 88.5t-16.5 107.5z" />
<glyph unicode="&#x447;" horiz-adv-x="1075" d="M56 578q0 57 17 119l97 365h268l-106 -393q-14 -50 -14 -90q0 -26 13.5 -42t41.5 -16q39 0 85 29.5t91 82t84 126t64 161.5l40 142h268l-286 -1062h-268l88 331q5 16 12.5 35.5t16.5 33.5q-22 -29 -49.5 -48t-57 -30t-59.5 -16t-57 -5q-77 0 -131.5 22t-89.5 60t-51.5 88 t-16.5 107z" />
<glyph unicode="&#x448;" horiz-adv-x="1692" d="M-9.5 219.5q-2.5 65.5 14.5 128.5l193 714h268l-198 -729q-17 -62 -6 -97.5t47 -35.5q43 0 93.5 30t100 90t94.5 151.5t78 214.5l101 376h268l-198 -729q-17 -62 -6 -97.5t47 -35.5q43 0 93.5 30t100 91t94.5 152.5t78 213.5l100 375h268l-285 -1062h-262l35 91 q7 25 15.5 46t13.5 35q-60 -91 -145 -142.5t-185 -51.5q-54 0 -94.5 15.5t-69 42t-46 62t-24.5 76.5q-30 -45 -68.5 -81.5t-83 -62t-93.5 -39t-99 -13.5q-82 0 -133.5 34.5t-77.5 88t-28.5 119z" />
<glyph unicode="&#x449;" horiz-adv-x="1775" d="M-3 257q0 58 17 118l185 687h268l-194 -714q-7 -24 -10 -47t-3 -43q0 -26 15.5 -41t43.5 -15q40 0 88.5 30.5t97.5 91t94 151.5t77 212l100 375h267l-193 -714q-14 -50 -14 -90q0 -26 13 -41t38 -15q45 0 96 30t100.5 91t94 151.5t76.5 212.5l100 375h268l-200 -745 l-9 -36t-4 -27q0 -19 14 -27t51 -8h186q-15 -102 -39.5 -177t-53.5 -128.5t-60 -88.5t-60 -57h-285q70 51 112 111t65 121q-30 3 -56.5 10t-47.5 21t-36 36t-24 54q-31 -34 -69.5 -60t-79.5 -44t-82.5 -27.5t-78.5 -9.5q-103 0 -169.5 39.5t-95.5 100.5q-64 -72 -141 -106 t-162 -34q-77 0 -133 22t-93.5 60t-55.5 88t-18 107z" />
<glyph unicode="&#x44a;" horiz-adv-x="1267" d="M12 887l59 222q63 -19 121.5 -28.5t124.5 -13.5t145.5 -4.5t185.5 -0.5q-27 -62 -52.5 -124.5t-47 -120.5t-38 -108t-25.5 -87q63 54 139 80t154 26q63 0 120.5 -18.5t102 -55.5t70.5 -93.5t26 -132.5q0 -77 -21 -140t-58 -113t-87 -87t-108 -62t-121 -37t-125 -12 q-117 0 -197.5 26t-131 67.5t-72.5 93t-22 102.5q0 55 11.5 124.5t31 145t44.5 152.5t52 147q-31 0 -67.5 3t-73.5 9t-73 16t-67 24zM421 303q0 -25 9 -44.5t29 -33t52 -21t78 -7.5q78 0 123 23t67.5 53.5t29 60.5t7.5 44v12q0 57 -35.5 83.5t-89.5 26.5q-30 0 -63.5 -8 t-67 -23t-65 -36.5t-58.5 -48.5l-6 -22q-5 -17 -7.5 -31t-2.5 -28z" />
<glyph unicode="&#x44b;" horiz-adv-x="1605" d="M11 268q0 59 18 125l179 669h268l-115 -428q57 48 123.5 72t140.5 24q62 0 119.5 -18t102 -55t71 -93.5t26.5 -133.5t-21 -140t-58 -113.5t-87 -88t-108 -62t-121 -37t-125 -12.5q-94 0 -170.5 21.5t-130.5 60t-83 92t-29 117.5zM276 285q0 -16 11 -32t32 -28.5t50.5 -20 t66.5 -7.5q71 0 115.5 23.5t69 54t33.5 61t9 44.5q0 64 -32 93t-92 29q-61 0 -126 -30.5t-119 -85.5l-6 -22q-5 -18 -8.5 -38.5t-3.5 -40.5zM992 0l283 1062h270l-286 -1062h-267z" />
<glyph unicode="&#x44c;" horiz-adv-x="1113" d="M1 268q0 59 18 125l179 669h268l-115 -428q57 47 129 71t145 24q62 0 119.5 -18t102 -54.5t71 -93t26.5 -133.5t-21 -140.5t-58 -113.5t-87 -87.5t-108 -62.5t-121 -37t-125 -12q-94 0 -172 21.5t-133.5 60t-86.5 92t-31 117.5zM266 285q0 -17 13 -32.5t35.5 -28 t53.5 -20t68 -7.5q52 0 89 11t62 28t39.5 38.5t22.5 41.5t10.5 37.5t3.5 26.5v12q0 57 -35.5 83.5t-89.5 26.5q-30 0 -63.5 -8t-67 -23t-65 -36.5t-58.5 -48.5l-6 -22q-5 -18 -8.5 -38.5t-3.5 -40.5z" />
<glyph unicode="&#x44d;" horiz-adv-x="1013" d="M-107 11l59 224q128 -35 265 -35q54 0 100.5 11t87 37t74.5 70.5t62 111.5h-425l62 227h423q1 11 1.5 21t0.5 20q0 87 -47 125.5t-132 38.5q-66 0 -147.5 -10t-170.5 -36l65 242q82 15 142 20.5t114 5.5q218 0 329.5 -100.5t111.5 -286.5q0 -87 -29 -200 q-32 -128 -85 -225t-130 -162.5t-179.5 -98.5t-233.5 -33q-152 0 -318 33z" />
<glyph unicode="&#x44e;" horiz-adv-x="1578" d="M-77 0l284 1062h266l-106 -399h168q27 76 69.5 151.5t105.5 135.5t149 97t200 37q106 0 176.5 -27.5t113.5 -75t61 -112.5t18 -140q0 -77 -14 -163t-43.5 -169t-75.5 -159t-109.5 -134t-146 -92t-184.5 -34q-105 0 -177.5 26t-117.5 74t-65 116t-20 153q0 17 1 41t6 54 h-175l-118 -442h-266zM739 340q0 -68 28 -104t88 -36q47 0 85.5 20.5t69 54t53.5 77.5t40.5 91t29 93t18.5 85t10 67.5t3 38.5q0 66 -26.5 100.5t-92.5 34.5q-61 0 -107 -34t-80 -86t-57 -115t-36.5 -121t-19.5 -103.5t-6 -62.5z" />
<glyph unicode="&#x44f;" horiz-adv-x="1123" d="M-173 0q49 74 105.5 143t115 128t116 107.5t108.5 81.5q-39 12 -70.5 34.5t-53.5 53t-34 67t-12 77.5q0 64 19.5 116.5t54 93.5t80.5 71t99 50t110.5 29.5t114.5 9.5h473l-285 -1062h-269l106 397q-53 -21 -112 -56.5t-120.5 -85t-123 -113.5t-119.5 -142h-303zM368 698 q0 -43 34.5 -67.5t94.5 -24.5q45 0 83 5t89 23l53 200h-163q-35 0 -69 -7t-61 -23.5t-44 -42.5t-17 -63z" />
<glyph unicode="&#x451;" horiz-adv-x="1088" d="M-2 363q0 90 19.5 179t57 169t92.5 148.5t125.5 118t156.5 78t185 28.5q78 0 145.5 -18t117 -54t77.5 -90t28 -126q0 -77 -41 -145t-130.5 -120.5t-229.5 -86t-338 -42.5q-1 -11 -1.5 -22t-0.5 -22q0 -49 13 -79.5t35.5 -48t51.5 -24t61 -6.5q27 0 63 1.5t80.5 8.5 t97 21.5t111.5 40.5l-63 -243q-23 -14 -58.5 -23.5t-75 -15.5t-81 -9t-76.5 -3q-119 0 -199.5 29.5t-130 81.5t-71 122.5t-21.5 151.5zM315 614q94 6 171.5 19.5t133 35.5t85.5 52.5t30 69.5q0 36 -29 56t-75 20q-60 0 -111.5 -19.5t-93 -53.5t-70 -80.5t-41.5 -99.5z M345 1178l71 266h274l-70 -266h-275zM729 1178l71 266h274l-71 -266h-274z" />
<glyph unicode="&#x452;" horiz-adv-x="1097" d="M-77 0l315 1177h-156l49 181h156l29 108h268l-29 -108h162l-49 -181h-161l-51 -191q-3 -12 -9.5 -34t-16.5 -43q50 79 123 127t173 48q63 0 109 -21t75 -55.5t43 -80.5t14 -95q0 -73 -16 -162t-43.5 -185t-64 -195.5t-78.5 -193t-87 -178t-89 -150.5h-286q43 68 89 155.5 t90.5 183.5t84 195.5t69.5 192t47.5 172.5t17.5 137q0 28 -12.5 43t-41.5 15q-43 0 -94 -38.5t-100.5 -105t-92 -155t-69.5 -188.5l-100 -375h-268z" />
<glyph unicode="&#x453;" horiz-adv-x="974" d="M-57 243q0 93 37.5 156.5t97.5 107t134.5 73t148.5 54.5q55 19 99.5 37t75.5 37t48 40t17 46q0 33 -26 50.5t-94 17.5q-66 0 -147.5 -14t-179.5 -44l62 238q69 20 143.5 31t136.5 11q81 0 148 -16.5t115 -50t75 -84t27 -119.5q0 -76 -28.5 -132t-74.5 -97.5t-105 -72 t-121 -54t-121 -44t-105 -42.5t-74.5 -48.5t-28.5 -62.5q0 -30 29 -45.5t92 -15.5q92 0 194.5 22.5t196.5 57.5l-66 -243q-34 -12 -77.5 -23t-89.5 -19t-89 -12.5t-75 -4.5q-87 0 -156.5 17.5t-118 51.5t-74.5 83.5t-26 112.5zM356 1177l260 311h317l-297 -311h-280z" />
<glyph unicode="&#x454;" horiz-adv-x="991" d="M-127 11l59 224q128 -35 265 -35q54 0 100.5 11t87 37t74.5 70.5t62 111.5h-425l62 227h423q1 11 1.5 21t0.5 20q0 87 -47 125.5t-132 38.5q-66 0 -147.5 -10t-170.5 -36l65 242q82 15 142 20.5t114 5.5q218 0 329.5 -100.5t111.5 -286.5q0 -87 -29 -200 q-32 -128 -85 -225t-130 -162.5t-179.5 -98.5t-233.5 -33q-152 0 -318 33z" />
<glyph unicode="&#x455;" horiz-adv-x="965" d="M-80 46l58 229q70 -29 154 -52t175 -23q31 0 65 6.5t62.5 22.5t46.5 42.5t18 65.5q0 37 -30 61.5t-75 45.5t-98 42.5t-98 53t-75 78t-30 116.5q0 94 37.5 160.5t101 108.5t147 61.5t176.5 19.5q43 -1 88 -5.5t87.5 -12t81 -17.5t69.5 -20l-58 -222q-80 26 -151 40.5 t-137 14.5q-86 0 -130.5 -26t-44.5 -77q0 -22 17.5 -38t46 -30.5t64.5 -28.5t74 -31.5t74 -41t64.5 -55.5t46 -75.5t17.5 -101.5q0 -103 -37.5 -175t-102.5 -117.5t-151.5 -66t-184.5 -20.5q-45 0 -97.5 5.5t-102.5 14.5t-94 21.5t-74 26.5z" />
<glyph unicode="&#x456;" horiz-adv-x="538" d="M-75 0l283 1062h270l-286 -1062h-267zM238 1177l79 289h268l-78 -289h-269z" />
<glyph unicode="&#x457;" horiz-adv-x="538" d="M-75 0l283 1062h270l-286 -1062h-267zM40 1178l71 266h274l-70 -266h-275zM424 1178l71 266h274l-71 -266h-274z" />
<glyph unicode="&#x458;" horiz-adv-x="537" d="M-451 -412l58 219q26 -6 57.5 -9t60.5 -3q37 0 66 6.5t52 26t41.5 56t34.5 95.5l288 1083h269l-294 -1105q-31 -116 -80 -190.5t-110.5 -117.5t-133 -59.5t-146.5 -16.5q-29 0 -73.5 3.5t-89.5 11.5zM238 1177l78 289h268l-77 -289h-269z" />
<glyph unicode="&#x459;" horiz-adv-x="1781" d="M-178 -22l62 231q40 1 81.5 23.5t85.5 82.5t93.5 166t106.5 276q28 82 67 140t89.5 95t111.5 53.5t133 16.5h481l-115 -428q57 48 128.5 72t145.5 24q62 0 119.5 -18t102 -55t71 -93.5t26.5 -133.5t-21 -140t-58 -113.5t-87 -88t-108 -62t-121 -37t-125 -12.5 q-94 0 -172 21.5t-133.5 60t-86.5 92t-31 117.5q0 59 18 125l118 442h-160q-19 0 -39 -5t-38.5 -19t-35.5 -39.5t-30 -66.5q-53 -168 -107 -287t-109 -200t-111.5 -128.5t-114.5 -72.5t-117 -32t-120 -7zM933 285q0 -16 13 -32t35.5 -28.5t53.5 -20t68 -7.5q49 0 91 14 t72 39.5t47 61.5t17 81q0 57 -35 83t-89 26q-30 0 -64 -8t-67.5 -23t-65 -36.5t-58.5 -48.5l-6 -22q-5 -18 -8.5 -38.5t-3.5 -40.5z" />
<glyph unicode="&#x45a;" horiz-adv-x="1743" d="M-77 0l283 1062h270l-110 -404h353l108 404h268l-115 -428q57 48 128.5 72t145.5 24q62 0 119.5 -18t102 -55t71 -93.5t26.5 -133.5t-21 -140t-58 -113t-87 -87.5t-108 -62.5t-121 -37t-125 -12q-94 0 -172 21.5t-133.5 59.5t-86.5 91.5t-31 117.5q0 59 18 125l10 38 h-352l-116 -431h-267zM895 285q0 -16 13 -31.5t35.5 -28t53.5 -20t68 -7.5q108 0 167.5 52.5t59.5 142.5q0 57 -35 83t-89 26q-30 0 -64 -8t-67.5 -23t-65 -36.5t-58.5 -48.5l-6 -22q-5 -18 -8.5 -38.5t-3.5 -40.5z" />
<glyph unicode="&#x45b;" horiz-adv-x="1146" d="M-76 0l315 1177h-157l49 181h157l29 108h268l-29 -108h161l-49 -181h-160l-51 -191q-3 -12 -9.5 -34t-16.5 -43q25 39 58.5 71.5t74 55.5t87 35.5t96.5 12.5q63 0 112 -21t82 -55.5t50 -80.5t17 -95q-1 -29 -4.5 -59t-11.5 -59l-193 -714h-268l198 729q6 23 9.5 41.5 t3.5 33.5q0 29 -20 43.5t-54 14.5q-43 0 -96.5 -35.5t-106 -99.5t-98.5 -154t-75 -198l-100 -375h-268z" />
<glyph unicode="&#x45c;" horiz-adv-x="1074" d="M-76 0l284 1062h268l-98 -374q61 16 116.5 53t105.5 87t94.5 110t82.5 124h287q-41 -78 -89.5 -150t-102.5 -135t-114 -116t-124 -93q83 -116 131.5 -259t53.5 -309h-263q-8 152 -48 267.5t-109 200.5q-42 -9 -86 -12l-121 -456h-268zM390 1177l260 311h317l-297 -311 h-280z" />
<glyph unicode="&#x45e;" horiz-adv-x="1070" d="M-327 -384l64 241q35 -19 63.5 -30.5t57.5 -11.5q27 0 57 11.5t66.5 39.5t82 75.5t104.5 120.5q-17 87 -30.5 186.5t-23.5 201t-15.5 199.5t-5.5 182q0 57 3 115t11 116h262q-8 -63 -12 -120t-4 -106q0 -92 7 -198t20 -215q2 -16 3 -41t-1 -41q3 7 9 17.5t12.5 22 t13.5 22t12 18.5q56 85 109.5 171.5t100.5 170t85.5 159.5t64.5 140h285q-26 -62 -67 -143.5t-92 -173.5t-110 -190t-120.5 -193t-123 -182.5t-118.5 -158.5q-88 -110 -162 -193.5t-145 -140t-145 -85.5t-162 -29q-6 0 -21 1t-36 5.5t-46.5 13t-52.5 23.5zM357 1424 q0 16 1 31t6 33h192q-2 -11 -4 -23t-2 -22q0 -37 22 -56t66 -19q57 0 94.5 32.5t64.5 87.5h206q-51 -136 -146 -211t-226 -75q-63 0 -113.5 14.5t-86.5 43t-55 69t-19 95.5z" />
<glyph unicode="&#x45f;" horiz-adv-x="1141" d="M-77 0l285 1062h270l-225 -835h325l223 835h268l-283 -1062h-267l-61 -232h-265l61 232h-331z" />
<glyph unicode="&#x490;" horiz-adv-x="1117" d="M-68 0l392 1466h678l40 151h274l-109 -412h-658l-325 -1205h-292z" />
<glyph unicode="&#x491;" horiz-adv-x="974" d="M-57 243q0 93 37.5 156.5t97.5 107t134.5 73t148.5 54.5q55 19 99.5 37t75.5 37t48 40t17 46q0 33 -26 50.5t-94 17.5q-66 0 -147.5 -14t-179.5 -44l62 238q39 11 81.5 20t84.5 14l45 172h265l-47 -181q99 -26 157.5 -88.5t58.5 -164.5q0 -76 -28.5 -132t-74.5 -97.5 t-105 -72t-121 -54t-121 -44t-105 -42.5t-74.5 -48.5t-28.5 -62.5q0 -30 29 -45.5t92 -15.5q92 0 194.5 22.5t196.5 57.5l-66 -243q-34 -12 -77.5 -23t-89.5 -19t-89 -12.5t-75 -4.5q-87 0 -156.5 17.5t-118 51.5t-74.5 83.5t-26 112.5z" />
<glyph unicode="&#x531;" horiz-adv-x="1504" d="M57 394q0 34 4 68.5t15 72.5l250 931h294l-267 -991q-10 -36 -10 -70q0 -45 17 -78t46.5 -55.5t69.5 -33.5t87 -11q56 0 102 11.5t84 33.5q-35 29 -77 51.5t-96 36.5l121 202q64 -17 113 -43.5t91 -59.5q15 37 27 81l248 926h295l-259 -957q-38 -139 -100 -239 q38 -29 83 -52.5t103 -39.5l-142 -213q-73 19 -125 50t-94 69q-156 -106 -378 -106q-112 0 -204.5 27.5t-158.5 80.5t-102.5 130.5t-36.5 177.5z" />
<glyph unicode="&#x532;" horiz-adv-x="1445" d="M-68 0l257 957q71 264 235.5 397.5t417.5 133.5q112 0 204.5 -27.5t158.5 -80.5t102.5 -130.5t36.5 -177.5q0 -34 -4 -68.5t-15 -72.5l-27 -104h-292l42 164q10 36 10 70q0 45 -17 78t-46.5 55.5t-69.5 33.5t-87 11q-77 0 -136.5 -22t-103.5 -62.5t-75 -98.5t-50 -130 l-70 -259h864l-70 -263h-864l-108 -404h-293z" />
<glyph unicode="&#x533;" horiz-adv-x="1492" d="M99 840q0 71 18 147t54.5 148t91.5 136.5t130 112.5t170 76.5t210 28.5q111 0 203 -30.5t158 -86t102.5 -133.5t36.5 -173q0 -67 -20 -144l-69 -255h229l-70 -263h-230l-108 -404h-288l108 404h-233q-112 0 -203 30.5t-155.5 87.5t-99.5 137.5t-35 180.5zM388 854 q0 -88 55.5 -137.5t155.5 -49.5h296l86 318q10 36 10 71q0 45 -17.5 79.5t-48.5 58t-73.5 35t-92.5 11.5q-77 0 -134.5 -21t-98.5 -55t-68 -76.5t-42.5 -85.5t-21.5 -82t-6 -66z" />
<glyph unicode="&#x534;" horiz-adv-x="1489" d="M82 827l36 130q71 264 235.5 397.5t417.5 133.5q112 0 204.5 -27.5t158.5 -80.5t102.5 -130.5t36.5 -177.5q0 -34 -4 -68.5t-15 -72.5l-71 -264h227l-70 -263h-228l-108 -404h-292l265 991q10 36 10 70q0 45 -17 78t-46.5 55.5t-69.5 33.5t-87 11q-77 0 -136.5 -22 t-103.5 -62.5t-75 -98.5t-50 -130l-27 -99h-293z" />
<glyph unicode="&#x535;" horiz-adv-x="1444" d="M57 394q0 34 4 68.5t15 72.5l250 931h292l-108 -404h862l-69 -263h-863l-87 -324q-10 -36 -10 -70q0 -45 17 -78t46.5 -55.5t69.5 -33.5t87 -11q77 0 136.5 22t103.5 62.5t74.5 98.5t50.5 130l24 94h293l-33 -125q-71 -264 -235.5 -397.5t-417.5 -133.5 q-112 0 -204.5 27.5t-158.5 80.5t-102.5 130.5t-36.5 177.5z" />
<glyph unicode="&#x536;" horiz-adv-x="1490" d="M-66 0l108 411h288l-39 -146h66q89 24 177 61.5t168.5 87.5t150 111.5t121 133.5t81.5 154t32 173q1 50 -15 96t-47.5 81t-77.5 55.5t-106 20.5q-89 0 -154 -27t-110.5 -73t-75 -107t-47.5 -128l-21 -77h-296l32 116q34 122 90 222.5t138.5 172t193.5 111t254 39.5 q132 0 232.5 -41t168 -110t100.5 -160.5t30 -192.5q-3 -97 -35.5 -203t-95.5 -204t-157 -180t-221 -132h336l-70 -265h-1199z" />
<glyph unicode="&#x537;" horiz-adv-x="1251" d="M-67 0l392 1466h293l-106 -404h739l-70 -263h-739l-146 -534h642l-69 -265h-936z" />
<glyph unicode="&#x538;" horiz-adv-x="1425" d="M-69 0l72 265l187 692q71 264 235.5 397.5t417.5 133.5q112 0 204.5 -27.5t158.5 -80.5t102.5 -130.5t36.5 -177.5q0 -34 -4 -68.5t-15 -72.5l-28 -104h-294l45 164q10 36 10 70q0 45 -17 78t-46.5 55.5t-69.5 33.5t-87 11q-77 0 -136.5 -22t-103.5 -62.5t-75 -98.5 t-50 -130l-177 -661h881l-70 -265h-1177z" />
<glyph unicode="&#x539;" horiz-adv-x="1756" d="M-65 0l245 922q35 132 100.5 237t161.5 178t221.5 112t280.5 39q153 0 265.5 -38.5t186.5 -103.5t110.5 -152t36.5 -183q0 -28 -3 -58t-10 -56h210l-69 -263h-210l-70 -250q-56 -201 -179 -303.5t-312 -102.5q-93 0 -168 27t-127.5 76t-80.5 118t-28 152q0 114 38 213.5 t105.5 173.5t161 116.5t205.5 42.5h237q9 27 13 56t4 57q0 46 -18.5 88t-58.5 74t-103 51t-151 19q-114 0 -196 -32.5t-138 -87t-90.5 -125.5t-55.5 -148l-228 -849h-286zM775 347q0 -60 36 -92t103 -32q36 0 67 12t57 38.5t46.5 68.5t37.5 103l51 189h-176q-57 0 -98.5 -24 t-69 -64t-41 -92t-13.5 -107z" />
<glyph unicode="&#x53a;" horiz-adv-x="1546" d="M23 448q0 50 11 115t39 133t76.5 134t123 117.5t179.5 83t245 31.5h345l107 404h288l-107 -404h229l-70 -263h-230l-93 -347q-32 -110 -90.5 -197.5t-139 -149t-181 -94.5t-217.5 -33t-212 33t-162.5 94t-104 148t-36.5 195zM310 464q0 -54 16.5 -98t48 -75t77 -47.5 t102.5 -16.5q121 0 210.5 70.5t127.5 209.5l79 292h-298q-85 0 -144.5 -19.5t-100 -50.5t-64 -69t-35.5 -75t-15.5 -69.5t-3.5 -51.5z" />
<glyph unicode="&#x53b;" horiz-adv-x="1363" d="M-57 0l392 1466h293l-116 -434q57 24 119.5 38t132.5 14q106 0 195.5 -30t153.5 -84.5t100 -130t36 -166.5q0 -33 -5 -69.5t-16 -74.5l-41 -151h-292l55 202q12 45 12 84q0 84 -59.5 128t-160.5 44q-39 0 -80 -6.5t-81 -20.5t-78.5 -35t-72.5 -51l-195 -723h-292z" />
<glyph unicode="&#x53c;" horiz-adv-x="1082" d="M-68 0l392 1466h292l-322 -1201h641l-70 -265h-933z" />
<glyph unicode="&#x53d;" horiz-adv-x="1811" d="M-67 0l392 1466h294l-104 -404h522l-158 -581q-18 -65 -18 -115q0 -67 39.5 -102t123.5 -35q105 0 170.5 71t102.5 207l151 555h296l-160 -599q-34 -127 -85 -218.5t-122 -150t-163 -86.5t-207 -28q-102 0 -183 26.5t-137 76t-85.5 120.5t-29.5 161q0 37 5.5 78.5 t17.5 84.5l75 272h-227l-217 -799h-293z" />
<glyph unicode="&#x53e;" horiz-adv-x="1583" d="M93 465q0 140 51.5 273t142.5 251h-111l127 477h279l-60 -218h33q76 55 159 99.5t170 75.5t175.5 48t175.5 17q102 0 199.5 -15t178.5 -40l-73 -274q-69 33 -157.5 52.5t-180.5 19.5q-70 0 -127.5 -7t-95.5 -16q87 -11 152 -38t112 -65.5t78 -84.5t49 -94t25.5 -95.5 t7.5 -87.5q0 -35 -7.5 -86.5t-25 -112t-46.5 -126t-71.5 -128.5t-100 -119.5t-132 -99.5t-167.5 -68t-207 -25q-151 0 -256.5 40.5t-171.5 108t-95.5 155.5t-29.5 183zM382 465q0 -119 71.5 -178.5t198.5 -59.5q87 0 155 27t119 71t86.5 99.5t58 113.5t32.5 112.5t10 95.5 q0 113 -84.5 178t-265.5 65h-125q-57 -53 -104 -114.5t-81 -128.5t-52.5 -138t-18.5 -143z" />
<glyph unicode="&#x53f;" horiz-adv-x="1412" d="M142 796q0 33 5 69.5t16 74.5l143 526h292l-157 -577q-12 -45 -12 -84q0 -84 59.5 -128t160.5 -44q39 0 80 6.5t81.5 20.5t79.5 35.5t73 51.5l85 315h291l-284 -1062h-293l118 437q-57 -24 -120 -38t-133 -14q-107 0 -196 30t-153 84.5t-100 130t-36 166.5z" />
<glyph unicode="&#x540;" horiz-adv-x="1240" d="M12 634l69 263h485q72 0 126 15.5t89.5 41.5t53.5 59.5t18 70.5q0 26 -7.5 48t-27.5 37.5t-54.5 24.5t-88.5 9h-367l70 263h305q115 0 202 -27.5t144.5 -75.5t86.5 -112.5t29 -138.5q0 -53 -14.5 -108t-46 -104.5t-81.5 -90t-121 -64.5q39 -23 63.5 -50t38 -55.5 t18 -58.5t4.5 -59q0 -31 -4.5 -61t-12.5 -59v1l-108 -403h-288l119 441q4 14 6.5 30.5t2.5 30.5q0 28 -11.5 52t-35.5 42t-61.5 28t-89.5 10h-511z" />
<glyph unicode="&#x541;" horiz-adv-x="1474" d="M-19 292q0 83 33 145.5t89.5 104t132.5 62.5t162 21q121 0 232.5 -42.5t211.5 -108.5q49 51 91 109.5t72.5 123t47.5 134.5t17 142q0 119 -63.5 187.5t-188.5 68.5q-89 0 -152.5 -27t-107.5 -73t-72.5 -107t-46.5 -128l-21 -77h-295l23 89q30 115 83 218.5t135 182 t196 125t265 46.5q136 0 237 -39.5t168 -108t99.5 -160.5t32.5 -197q0 -96 -23.5 -188.5t-65.5 -179t-99.5 -165t-125.5 -145.5q24 -23 45.5 -47t41.5 -47l-88 -323q-54 65 -109 125.5t-112 115.5q-115 -72 -233.5 -112t-227.5 -40q-64 0 -132 16.5t-124 54t-92 97.5 t-36 147zM261 295q0 -17 9 -29.5t23.5 -21.5t34 -13.5t40.5 -4.5q56 0 118.5 19.5t127.5 54.5q-58 35 -111 58.5t-101 23.5q-30 0 -56 -4t-45 -14t-29.5 -27t-10.5 -42z" />
<glyph unicode="&#x542;" horiz-adv-x="1462" d="M83 827l34 130q69 263 235.5 397t417.5 134q112 0 204.5 -27.5t158.5 -80.5t102.5 -130.5t36.5 -177.5q0 -34 -4 -68.5t-15 -72.5l-180 -668h228l-70 -263h-520l265 991q5 19 7 36.5t2 33.5q0 45 -16.5 78t-46 55.5t-69.5 33.5t-87 11q-79 0 -138.5 -22t-103.5 -62.5 t-74 -98.5t-49 -130l-24 -99h-294z" />
<glyph unicode="&#x543;" horiz-adv-x="1481" d="M22 799l70 263h163q26 96 75.5 171t119 127t157.5 79t191 27h537l-70 -259h-479q-37 0 -72 -9t-64.5 -27.5t-52.5 -45.5t-36 -63h267q108 0 192 -32.5t142 -88t88.5 -130t30.5 -159.5q0 -62 -18 -128l-140 -524h-585q-101 0 -182.5 28.5t-139 81t-88.5 126.5t-31 166 q0 32 4.5 66.5t14.5 69.5l69 261h-163zM384 402q0 -70 36 -103.5t127 -33.5h354l84 311q6 22 8.5 41.5t2.5 38.5q0 73 -48 108t-123 35h-348l-78 -296q-15 -56 -15 -101z" />
<glyph unicode="&#x544;" horiz-adv-x="1525" d="M56 394q0 34 4 68.5t15 72.5l250 931h294l-267 -991q-10 -36 -10 -70q0 -45 17 -78t46.5 -55.5t69.5 -33.5t87 -11q77 0 136.5 22t103.5 62.5t74.5 98.5t50.5 130l248 926h531l-70 -261h-237l-188 -696q-72 -264 -236 -397.5t-417 -133.5q-112 0 -204.5 27.5t-158.5 80.5 t-102.5 130.5t-36.5 177.5z" />
<glyph unicode="&#x545;" horiz-adv-x="1429" d="M13 363q0 11 0.5 22t2 24t4.5 30t9 41h292q-8 -25 -12.5 -41.5t-6.5 -28.5t-3 -20.5t-1 -15.5q0 -39 20.5 -66.5t57 -45.5t87 -26.5t109.5 -8.5q66 0 130.5 12.5t115.5 43t83 82t32 130.5q0 34 -12.5 60t-40 43.5t-72 26.5t-107.5 9h-618l69 263h580q50 0 105 6.5 t100.5 28t75.5 61.5t30 107q0 64 -53.5 101.5t-148.5 37.5q-133 0 -207 -44t-94 -129l1 -5h-296l12 46q23 89 72 159.5t123 120t173 75.5t222 26q113 0 202.5 -28.5t151.5 -80.5t95 -123.5t33 -157.5q0 -55 -12.5 -106t-40 -96.5t-71.5 -83.5t-108 -67q69 -45 98 -108.5 t29 -141.5q0 -125 -53.5 -221t-144 -162t-210 -100t-251.5 -34q-111 0 -211.5 23t-176 70.5t-120 120t-44.5 171.5z" />
<glyph unicode="&#x546;" horiz-adv-x="1481" d="M125 1205l70 261h523l-265 -991q-10 -36 -10 -70q0 -45 17 -78t46.5 -55.5t69.5 -33.5t87 -11q77 0 136.5 22t103.5 62.5t74.5 98.5t50.5 130l25 94h293l-34 -125q-71 -264 -235.5 -397.5t-417.5 -133.5q-112 0 -204.5 27.5t-158.5 80.5t-102.5 130.5t-36.5 177.5 q0 34 4 68.5t15 72.5l180 670h-231z" />
<glyph unicode="&#x547;" horiz-adv-x="1403" d="M28 471q0 130 40 248.5t112 215.5t172.5 166t221.5 101q-98 26 -172 26h-123l73 238h93q125 0 242.5 -28t225.5 -71.5t205.5 -95.5t181.5 -100l-82 -263q-69 38 -133.5 72.5t-124.5 64.5q-11 0 -22 0.5t-20 0.5q-93 0 -173.5 -21.5t-147.5 -59.5t-118.5 -91t-87.5 -116 t-54.5 -134.5t-18.5 -146.5q0 -49 14 -94.5t44 -80t78 -55t116 -20.5q82 0 144 27.5t107 73.5t74.5 106.5t48.5 126.5l22 78h299l-37 -136q-27 -101 -80.5 -195.5t-135.5 -167.5t-194.5 -117.5t-257.5 -44.5q-133 0 -232.5 39t-166 105.5t-100 156.5t-33.5 192z" />
<glyph unicode="&#x548;" horiz-adv-x="1443" d="M-71 0l259 957q72 264 236 397.5t417 133.5q112 0 204.5 -27.5t158.5 -80.5t102.5 -130.5t36.5 -177.5q0 -34 -4 -68.5t-15 -72.5l-250 -931h-294l267 991q10 36 10 70q0 45 -17 78t-46.5 55.5t-69.5 33.5t-87 11q-77 0 -136.5 -22t-103.5 -62.5t-75 -98.5t-50 -130 l-248 -926h-295z" />
<glyph unicode="&#x549;" horiz-adv-x="1444" d="M75 247l82 259q73 -27 139 -53t128 -52q101 -1 186.5 22.5t154.5 65.5t122 98.5t88.5 122.5t53.5 138t18 144q0 49 -14.5 94t-45.5 79t-79 54t-114 20q-85 0 -149 -28t-110 -74.5t-75 -106t-44 -122.5l-19 -81h-299l37 143q15 59 42.5 121t68.5 119.5t95 108t123 88 t153.5 59.5t185.5 22q130 0 229.5 -37t167 -103.5t101.5 -159t34 -204.5q0 -122 -39 -242t-113.5 -221.5t-183 -175.5t-246.5 -102q35 -20 69 -39.5t69 -40.5l-83 -267q-78 49 -173.5 100t-194 97.5t-193.5 86.5t-172 67z" />
<glyph unicode="&#x54a;" horiz-adv-x="1638" d="M68 827l43 157q36 131 113 226.5t181 157t228.5 91t255.5 29.5q139 0 256 -30t201.5 -88.5t131.5 -144.5t47 -199q0 -69 -21 -150l-235 -876h-292l249 933q12 46 12 87q0 80 -53 131.5t-150 74.5l-161 -601h-291l162 607q-139 -23 -227.5 -96.5t-124.5 -208.5l-27 -100 h-298z" />
<glyph unicode="&#x54b;" horiz-adv-x="1474" d="M-74 0l107 411h290l-39 -146h70q109 32 212 79.5t192 110.5l-94 34h1q-99 34 -187 68.5t-154.5 82t-105 114.5t-38.5 166q0 102 43 228.5t109 280.5q109 31 219 45t202 14q142 0 256 -28.5t194 -88.5t123 -152.5t43 -219.5q0 -116 -37 -227.5t-104.5 -209t-162 -174.5 t-209.5 -123h338l-69 -265h-1199zM464 943q0 -42 24 -73t73.5 -58t124 -54.5t176.5 -61.5q6 -2 18 -6.5t27.5 -10t31.5 -11t30 -9.5q52 74 81 158t29 179q0 67 -21.5 113t-62 74.5t-99.5 41t-134 12.5q-54 0 -109.5 -5.5t-111.5 -16.5q-14 -30 -28 -65.5t-25 -72t-17.5 -71 t-6.5 -63.5z" />
<glyph unicode="&#x54c;" horiz-adv-x="1577" d="M-71 0l259 957q72 264 236 397.5t417 133.5q112 0 204.5 -27.5t158.5 -80.5t102.5 -130.5t36.5 -177.5q0 -34 -4 -68.5t-15 -72.5l-71 -264h275l-70 -263h-276l-108 -404h-294l267 991q10 36 10 70q0 45 -17 78t-46.5 55.5t-69.5 33.5t-87 11q-77 0 -136.5 -22 t-103.5 -62.5t-75 -98.5t-50 -130l-248 -926h-295z" />
<glyph unicode="&#x54d;" horiz-adv-x="1443" d="M55 394q0 34 4 68.5t15 72.5l250 931h294l-267 -991q-10 -36 -10 -70q0 -45 17 -78t46.5 -55.5t69.5 -33.5t87 -11q77 0 136.5 22t103.5 62.5t74.5 98.5t50.5 130l248 926h295l-259 -957q-72 -264 -236 -397.5t-417 -133.5q-112 0 -204.5 27.5t-158.5 80.5t-102.5 130.5 t-36.5 177.5z" />
<glyph unicode="&#x54e;" horiz-adv-x="1484" d="M83 796q0 33 5 69.5t16 74.5l33 122h292l-47 -173q-12 -45 -12 -84q0 -84 59.5 -128t160.5 -44q39 0 80 6.5t81.5 20.5t79 35.5t72.5 51.5l194 719h292l-323 -1203h229l-70 -263h-522l117 437q-56 -24 -119 -38t-133 -14q-107 0 -196 30t-153 84.5t-100 130t-36 166.5z " />
<glyph unicode="&#x54f;" horiz-adv-x="1365" d="M-26 363q0 12 0.5 22.5t2.5 23t5.5 29.5t9.5 42h292q-8 -25 -12.5 -41t-7 -27t-3.5 -18.5t-1 -14.5q0 -41 22.5 -70t60 -47t86.5 -26.5t103 -8.5q85 0 149 15t107 42.5t65 66t22 85.5q0 37 -11.5 65t-43 51t-87 45t-142.5 48q-67 20 -134.5 52.5t-122 80t-89 112 t-34.5 147.5q0 111 45.5 195.5t123.5 141.5t182 85.5t221 28.5q129 0 225 -29.5t159.5 -80.5t94.5 -119.5t31 -145.5q0 -22 -4 -51.5t-13 -72.5h-294q9 43 13 68t4 34q0 64 -56 106t-171 42q-60 0 -109.5 -12.5t-85 -36t-55 -57.5t-19.5 -76q0 -36 18 -63.5t52 -49.5 t81.5 -40t107.5 -36q96 -28 171 -66t127.5 -88t80 -115t27.5 -147q0 -97 -37.5 -183.5t-116.5 -151t-202 -102t-293 -37.5q-126 0 -227 26t-171.5 75.5t-108.5 121t-38 162.5z" />
<glyph unicode="&#x550;" horiz-adv-x="1359" d="M-69 0l259 957q71 264 235.5 397.5t417.5 133.5q112 0 204.5 -27.5t158.5 -80.5t102.5 -130.5t36.5 -177.5q0 -34 -4 -68.5t-15 -72.5l-28 -104h-294l45 164q10 36 10 70q0 45 -17 78t-46.5 55.5t-69.5 33.5t-87 11q-77 0 -136.5 -22t-103.5 -62.5t-75 -98.5t-50 -130 l-248 -926h-295z" />
<glyph unicode="&#x551;" horiz-adv-x="1376" d="M-10 363q0 23 3.5 52.5t11.5 64.5h292q-4 -9 -8 -24.5t-7.5 -31t-5.5 -29.5t-2 -21q0 -67 68.5 -107t199.5 -40q69 0 135.5 13.5t118 43t83 76.5t31.5 114q0 40 -11 70t-38.5 50t-74 30t-117.5 10h-610l69 263h131q-37 55 -37 144q0 81 35.5 161t109.5 143.5t187 103 t269 39.5q111 0 200.5 -28.5t152 -79t96 -120t33.5 -152.5q0 -60 -14.5 -114.5t-43.5 -101.5t-72.5 -84.5t-101.5 -62.5q33 -19 57 -46.5t39.5 -60t23 -69t7.5 -74.5q0 -123 -53 -219t-144 -162.5t-212 -101t-257 -34.5q-112 0 -211 24t-173 72t-117 120t-43 169zM504 1036 q0 -74 57.5 -107t184.5 -33q49 0 98 9.5t88.5 33.5t64 63.5t24.5 99.5q0 43 -23.5 70t-58.5 42t-76 20.5t-75 5.5q-66 0 -118.5 -15.5t-89.5 -42.5t-56.5 -64.5t-19.5 -81.5z" />
<glyph unicode="&#x552;" horiz-adv-x="1065" d="M-67 0l392 1466h293l-107 -405h557l-70 -263h-559l-214 -798h-292z" />
<glyph unicode="&#x553;" horiz-adv-x="1748" d="M57.5 515.5q-18.5 117.5 23.5 276.5q33 122 98 222t163.5 171.5t230.5 111t298 40.5l35 129h288l-35 -131q139 -8 244.5 -52.5t168 -127t77 -202t-27.5 -276.5q-33 -122 -98 -219t-162.5 -165t-227 -105t-292.5 -38l-40 -150h-288l40 151q-133 7 -239.5 48t-172 120 t-84 196.5zM341.5 599.5q2.5 -59.5 32.5 -102t90.5 -66t156.5 -26.5l182 676q-105 -4 -179.5 -30.5t-126.5 -71.5t-85 -107.5t-53 -137.5t-17.5 -134.5zM910 405q103 4 176.5 28t124.5 66t83 101t52 134t18.5 137.5t-30.5 107.5t-88.5 71.5t-154.5 30.5z" />
<glyph unicode="&#x554;" horiz-adv-x="1491" d="M-138 109l70 254h147l173 652q33 124 92 213.5t140 147.5t181.5 85t215.5 27q113 0 209 -30t165.5 -87t108.5 -139.5t39 -187.5q-3 -135 -52 -233t-132.5 -161.5t-195.5 -94t-241 -30.5q-100 0 -188 20t-159 61l-64 -243h837l-70 -254h-835l-29 -109h-292l29 109h-149z M502 856q23 -26 53.5 -43.5t66.5 -28.5t75.5 -16t81.5 -5q73 0 133.5 18.5t104 55.5t68 91t24.5 125q0 43 -17 77.5t-47.5 58.5t-74 37t-95.5 13q-73 0 -127.5 -15.5t-95.5 -49.5t-70.5 -87t-50.5 -128z" />
<glyph unicode="&#x555;" horiz-adv-x="1512" d="M30 488q0 20 5 73.5t19 127.5t40.5 162t68.5 176.5t103 171.5t145 147.5t193.5 103t249.5 38.5q144 0 249.5 -38t174.5 -105.5t102.5 -161t33.5 -205.5q0 -33 -6.5 -93.5t-24 -137t-46.5 -163.5t-74 -172.5t-107.5 -164t-146 -138.5t-190 -95.5t-239.5 -35.5 q-144 0 -248 38t-171 105.5t-99 161t-32 205.5zM323 487q0 -128 66 -194t203 -66q85 0 153.5 29t121.5 77t92.5 110t68 129t46.5 133.5t28.5 122.5t14.5 97t4 57q0 129 -71 193t-208 64q-90 0 -160.5 -30.5t-123.5 -80.5t-91.5 -114.5t-64.5 -133t-41.5 -135t-24 -121 t-11 -91.5t-2.5 -46z" />
<glyph unicode="&#x556;" horiz-adv-x="1680" d="M-5 428q0 33 4.5 71t15.5 77l25 91h303l-40 -146q-13 -46 -13 -89q0 -42 12.5 -77.5t41.5 -61.5t76.5 -42.5t118.5 -22.5l161 598q-80 0 -151.5 18t-125 54t-85 90t-31.5 127q0 103 39 171t102 108t141.5 56t158.5 16h411l-109 -405q116 -5 205.5 -37.5t150.5 -88.5 t92.5 -133.5t31.5 -171.5q0 -31 -4.5 -76t-18 -96.5t-39.5 -107t-69.5 -109t-107 -101.5t-153 -84t-206.5 -57t-267 -21q-180 0 -307 33t-208 92t-118 142t-37 183zM586 1135q0 -12 5.5 -24.5t17 -23.5t29 -18t41.5 -7h84l49 182h-84q-72 0 -107 -30.5t-35 -78.5zM826 226 q96 8 164.5 35.5t114.5 65.5t73 82t41 86t18 77t4 55q0 40 -10 76t-37.5 63.5t-77.5 43.5t-129 16z" />
<glyph unicode="&#x559;" horiz-adv-x="535" d="M445 903l65 242q17 65 45.5 113.5t66.5 86t86 65.5t105 51l56 -153q-30 -12 -54 -24t-42 -27.5t-31.5 -35t-22.5 -45.5h87l-73 -273h-288z" />
<glyph unicode="&#x55a;" horiz-adv-x="486" d="M56 1129q30 12 54 24t42 27.5t31.5 35t22.5 45.5h-87l73 273h288l-65 -242q-17 -65 -45.5 -113.5t-66.5 -86t-86 -65.5t-105 -51z" />
<glyph unicode="&#x55b;" horiz-adv-x="472" d="M-120 1083l363 443h335l-396 -443h-302z" />
<glyph unicode="&#x55c;" horiz-adv-x="497" d="M-94.5 1217.5q14.5 55.5 47.5 95t79 66.5t95.5 48.5t96.5 40t81.5 42t51 54.5t5.5 77h188q18 -75 5 -129.5t-45.5 -94t-79.5 -67.5t-97 -50.5t-98.5 -42.5t-84 -44t-52.5 -55t-5 -74h-187q-15 78 -0.5 133.5z" />
<glyph unicode="&#x55d;" horiz-adv-x="458" d="M3 1526h317l125 -443h-284z" />
<glyph unicode="&#x55e;" horiz-adv-x="582" d="M-72 1160q0 87 26.5 171.5t79.5 150.5t131.5 107t183.5 41q52 0 98 -13t80.5 -39t54.5 -64.5t20 -90.5q0 -71 -34.5 -120t-87.5 -79t-117 -43.5t-122 -13.5l49 181q59 0 79 16.5t20 39.5q0 24 -17 33t-37 9q-53 0 -92.5 -26t-66 -67t-40 -92t-13.5 -101q0 -8 0.5 -29.5 t4.5 -46.5h-196q0 4 -1 15t-1.5 23t-1 23t-0.5 15z" />
<glyph unicode="&#x55f;" horiz-adv-x="1148" d="M175 1566l117 442h240l-62 -234h757l-54 -208h-998z" />
<glyph unicode="&#x561;" horiz-adv-x="1691" d="M-9.5 219.5q-2.5 65.5 14.5 128.5l193 714h268l-198 -729q-17 -62 -6 -97.5t47 -35.5q43 0 93.5 30t100 90t94.5 151.5t78 214.5l101 376h268l-198 -729q-17 -62 -6 -97.5t47 -35.5q43 0 93.5 30t100 91t94.5 152.5t78 213.5l100 375h268l-285 -1062h-262l35 91 q7 25 15.5 46t13.5 35q-60 -91 -145 -142.5t-185 -51.5q-54 0 -94.5 15.5t-69 42t-46 62t-24.5 76.5q-30 -45 -68.5 -81.5t-83 -62t-93.5 -39t-99 -13.5q-82 0 -133.5 34.5t-77.5 88t-28.5 119z" />
<glyph unicode="&#x562;" d="M-187 -407l395 1469h252l-25 -91q-7 -25 -15.5 -46t-13.5 -35q30 45 68 81t82 61t92 38.5t98 13.5q63 0 112 -21t82 -55.5t50 -80.5t17 -95q-1 -29 -4.5 -59t-11.5 -59l-87 -321h-268l92 336q6 23 9.5 41.5t3.5 33.5q0 26 -19.5 42t-47.5 16q-50 0 -106 -38.5 t-108.5 -104.5t-97 -155t-71.5 -189l-40 -148h645l-60 -227h-646l-109 -407h-268z" />
<glyph unicode="&#x563;" horiz-adv-x="1232" d="M-17 344q0 72 18 155.5t55 165.5t92.5 158t131.5 134t171.5 92.5t212.5 34.5q58 0 115.5 -5.5t109.5 -14t95.5 -19.5t73.5 -23l-212 -795h239l-60 -227h-240l-108 -407h-267l132 486q2 8 8 27t17 40q-29 -47 -65.5 -79t-75 -51.5t-76 -28.5t-68.5 -9q-142 0 -220.5 91 t-78.5 275zM246 348q0 -72 23.5 -110t71.5 -38q44 0 94.5 35t99.5 98.5t93 153.5t74 200l47 171q-21 5 -45 7.5t-50 2.5q-71 0 -129 -26.5t-103.5 -69.5t-78.5 -98.5t-54.5 -113.5t-32 -113t-10.5 -99z" />
<glyph unicode="&#x564;" horiz-adv-x="1226" d="M-77 0l285 1062h252l-25 -91q-7 -25 -15.5 -46t-13.5 -35q30 45 68 81t82 61t92 38.5t98 13.5q63 0 112 -21t82 -55.5t50 -80.5t17 -95q0 -29 -4 -59t-12 -59l-132 -487h221l-61 -227h-221l-110 -407h-268l308 1136q6 23 9.5 41.5t3.5 33.5q0 26 -18 42t-47 16 q-47 0 -102 -35.5t-108.5 -99.5t-99.5 -154t-75 -198l-100 -375h-268z" />
<glyph unicode="&#x565;" d="M-11 214q0 32 4 66.5t13 67.5l302 1118h268l-110 -404h615l-61 -227h-615l-136 -502q-6 -23 -9.5 -41.5t-3.5 -33.5q0 -28 17.5 -43t46.5 -15q51 0 108 40t109.5 104t95 144.5t63.5 161.5h267l-174 -650h-252l25 91q7 25 15.5 46t13.5 35q-30 -45 -68.5 -81t-83.5 -61 t-95 -38.5t-103 -13.5q-61 0 -108 19t-79 51.5t-48.5 75t-16.5 90.5z" />
<glyph unicode="&#x566;" d="M-11 212q0 32 4 67.5t13 68.5l193 714h268l-198 -729q-6 -23 -9.5 -41.5t-3.5 -33.5q0 -28 17.5 -43t46.5 -15q43 0 97 32t107.5 94t101.5 152.5t80 208.5l100 375h268l-333 -1241h220l-62 -228h-487l128 477q7 25 15.5 46t13.5 35q-24 -36 -59.5 -67.5t-78.5 -55 t-91.5 -37t-98.5 -13.5q-60 0 -107 18.5t-79.5 50.5t-49 74.5t-16.5 90.5z" />
<glyph unicode="&#x567;" horiz-adv-x="1029" d="M-76 0l391 1466h269l-106 -404h551l-62 -227h-551l-162 -608h438l-62 -227h-706z" />
<glyph unicode="&#x568;" horiz-adv-x="1145" d="M-187 -407l61 228l334 1241h252l-25 -91q-7 -25 -15.5 -46t-13.5 -35q28 42 64.5 78t81 61.5t96 40t108.5 14.5q63 0 110.5 -21t78.5 -55.5t46.5 -80.5t15.5 -95q0 -29 -4 -59t-12 -59l-193 -714h-268l198 729q6 23 9.5 41.5t3.5 33.5q0 28 -17.5 43t-46.5 15 q-52 0 -108.5 -38.5t-109.5 -105t-97 -155t-71 -188.5l-149 -554h615l-59 -228h-885z" />
<glyph unicode="&#x569;" horiz-adv-x="1434" d="M-187 -407l395 1469h252l-25 -91q-7 -25 -15.5 -46t-13.5 -35q60 91 158.5 142.5t243.5 51.5q113 0 194 -34t131.5 -92.5t72.5 -136t18 -163.5h134l-55 -224h-111q-13 -51 -31.5 -105t-45.5 -104.5t-63.5 -95.5t-84 -78.5t-106.5 -53t-132 -19.5q-71 0 -129 21.5 t-99.5 59.5t-64 91t-22.5 115q0 99 34 173t89 122.5t124 73t140 24.5h160q0 101 -49.5 153.5t-140.5 52.5q-95 0 -172 -39t-136.5 -105.5t-102 -155.5t-69.5 -189l-210 -782h-268zM659 260q6 -26 25.5 -43.5t54.5 -17.5q40 0 70.5 20.5t53.5 53.5t39 75t27 86h-136 q-36 0 -63.5 -17.5t-45 -43.5t-24.5 -56.5t-1 -56.5z" />
<glyph unicode="&#x56a;" horiz-adv-x="1241" d="M-11 347q0 27 5 72.5t17.5 100.5t34 117t54.5 122t78.5 115t106 96.5t137 66.5t172.5 25h206l107 404h266l-107 -404h221l-62 -227h-220l-93 -353q-30 -114 -76.5 -207t-111.5 -159t-150 -102t-193 -36q-195 0 -293.5 94.5t-98.5 274.5zM252 340q0 -81 35.5 -111.5 t100.5 -30.5q55 0 96 23.5t73 67t56.5 106t45.5 140.5l80 300h-156q-68 0 -119 -30.5t-88 -78t-61 -105t-38 -112.5t-19.5 -100.5t-5.5 -68.5z" />
<glyph unicode="&#x56b;" horiz-adv-x="1145" d="M-186 -407l502 1873h268l-128 -480q-3 -12 -9.5 -34t-16.5 -43q25 39 60 71.5t77.5 55.5t90.5 35.5t98 12.5q63 0 110.5 -21t78.5 -55.5t46.5 -80.5t15.5 -95q0 -29 -4 -59t-12 -59l-193 -714h-268l198 729q6 23 9.5 41.5t3.5 33.5q0 28 -17.5 43t-46.5 15 q-43 0 -97.5 -33t-108.5 -96t-102 -153.5t-78 -204.5l-209 -782h-268z" />
<glyph unicode="&#x56c;" horiz-adv-x="546" d="M-184 -407l391 1469h269l-332 -1241h248l-60 -228h-516z" />
<glyph unicode="&#x56d;" horiz-adv-x="1701" d="M-185 -407l500 1873h267l-127 -477q-7 -25 -15.5 -46t-13.5 -35q24 37 56.5 69t72 56t85 37.5t95.5 13.5q61 0 106.5 -20t75.5 -54t44.5 -78t14.5 -92q0 -35 -6 -74.5t-20 -92.5l-94 -340q-6 -23 -9.5 -42t-3.5 -35q0 -27 15.5 -41.5t38.5 -14.5q51 0 104.5 38.5t103 105 t90.5 155t68 188.5l100 375h268l-285 -1062h-252l25 91q7 25 15.5 46t13.5 35q-60 -91 -145 -142.5t-185 -51.5q-61 0 -106.5 20t-75.5 54t-44.5 78t-14.5 92q0 35 6 74.5t20 92.5l94 340q6 23 9.5 42t3.5 35q0 27 -15.5 41.5t-38.5 14.5q-41 0 -92 -32.5t-100.5 -92 t-93.5 -143.5t-71 -186l-217 -815h-267z" />
<glyph unicode="&#x56e;" d="M-4 347q0 38 8 95.5t26.5 124t50 137t79.5 134t113 115t152 80.5l-179 155l264 278h338l-249 -256l172 -148h322l-60 -223h-77q15 -38 21.5 -78t6.5 -82q0 -40 -11.5 -108t-39 -146t-72.5 -157.5t-112 -144t-158 -105t-210 -40.5q-87 0 -158 22.5t-121.5 68t-78 115 t-27.5 163.5zM260 346q0 -32 6 -59t21 -46.5t41.5 -30.5t67.5 -11q60 0 106.5 29.5t81.5 75t59 100.5t38.5 107t21 94t6.5 61q0 60 -15.5 100.5t-42.5 72.5h-43q-69 0 -121.5 -28.5t-91.5 -74t-64.5 -102t-41.5 -111t-22.5 -102t-6.5 -75.5z" />
<glyph unicode="&#x56f;" horiz-adv-x="1145" d="M-11 212q0 32 4 67.5t13 68.5l302 1118h268l-307 -1133q-6 -23 -9.5 -41.5t-3.5 -33.5q0 -28 17.5 -43t46.5 -15q43 0 97 32t107.5 94t101.5 152.5t80 208.5l100 375h268l-392 -1469h-268l128 479q7 25 15.5 46t13.5 35q-25 -38 -61 -70.5t-79 -55.5t-91.5 -36t-98.5 -13 q-60 0 -107 19t-79.5 51.5t-49 74.5t-16.5 89z" />
<glyph unicode="&#x570;" horiz-adv-x="1146" d="M-76 0l393 1466h268l-128 -480q-3 -12 -9.5 -34t-16.5 -43q25 39 58.5 71.5t74 55.5t87 35.5t96.5 12.5q63 0 112 -21t82 -55.5t50 -80.5t17 -95q-1 -29 -4.5 -59t-11.5 -59l-193 -714h-268l198 729q6 23 9.5 41.5t3.5 33.5q0 29 -20 43.5t-54 14.5q-43 0 -96.5 -35.5 t-106 -99.5t-98.5 -154t-75 -198l-100 -375h-268z" />
<glyph unicode="&#x571;" horiz-adv-x="1098" d="M-36 290q0 66 15 138.5t46 146t78.5 145.5t113.5 137.5t150.5 123t188.5 101.5q-50 17 -93 39.5t-74.5 52.5t-49.5 68t-18 86q0 40 8.5 78.5t16.5 59.5h267q-10 -24 -16.5 -49.5t-6.5 -57.5q0 -19 13.5 -34.5t41 -30t70 -30t100.5 -35.5q55 -19 74.5 -51t19.5 -68 q0 -57 -32.5 -95.5t-92.5 -66.5q78 -51 114.5 -118t36.5 -144q0 -23 -3 -47.5t-11 -52.5l-157 -586h-252l25 91q7 25 15.5 46t13.5 35q-60 -91 -140 -142.5t-180 -51.5q-72 0 -125 23.5t-88 65.5t-52 99t-17 124zM226 296q0 -50 26 -73.5t67 -23.5q44 0 87.5 29.5t82.5 76 t72.5 103t58 111t38.5 99.5t14 68q0 21 -9 44t-25.5 45t-38.5 41.5t-48 33.5q-74 -45 -134 -106.5t-102.5 -134t-65.5 -152.5t-23 -161z" />
<glyph unicode="&#x572;" horiz-adv-x="1145" d="M-77 0l285 1062h252l-25 -91q-7 -25 -15.5 -46t-13.5 -35q30 45 68 81t82 61t92 38.5t98 13.5q63 0 112 -21t82 -55.5t50 -80.5t17 -95q0 -29 -4 -59t-12 -59l-240 -893h220l-61 -228h-489l307 1136q6 23 9.5 41.5t3.5 33.5q0 26 -18 42t-47 16q-47 0 -102 -35.5 t-108.5 -99.5t-99.5 -154t-75 -198l-100 -375h-268z" />
<glyph unicode="&#x573;" horiz-adv-x="1152" d="M17 278q0 62 11 130.5t32 139.5t51 143.5t69 143.5h-69l62 227h155q67 87 146 161t165.5 128t179.5 84.5t189 30.5h186l-62 -228h-149q-87 0 -176 -49.5t-173 -131.5q84 -10 148.5 -40t108 -76t65.5 -106t22 -131q0 -33 -5.5 -71.5t-16.5 -79.5l-148 -553h-252l25 91 q7 25 15.5 46t13.5 35q-60 -91 -140 -142.5t-180 -51.5q-70 0 -121.5 21.5t-85 61t-50 95t-16.5 122.5zM280 306q0 -56 22.5 -81.5t60.5 -25.5t79.5 27t80.5 70t74 97.5t61 110t41.5 106.5t15.5 88q0 137 -194 137h-64q-40 -63 -72.5 -130.5t-56 -135.5t-36 -135t-12.5 -128 z" />
<glyph unicode="&#x574;" d="M-10 216q0 32 3.5 66t12.5 66l193 714h268l-198 -729q-6 -23 -9.5 -41.5t-3.5 -33.5q0 -26 18 -42t47 -16q47 0 102 35.5t108.5 99.5t99.5 154t75 198l209 779h486l-61 -228h-219l-332 -1238h-252l25 91q7 25 15.5 46t13.5 35q-30 -45 -68 -81t-82 -61t-92 -38.5 t-98 -13.5q-65 0 -114 18.5t-81.5 50.5t-49 75.5t-16.5 93.5z" />
<glyph unicode="&#x575;" horiz-adv-x="547" d="M-449 -412l63 229q17 -6 35.5 -10.5t36 -7t32 -3.5t23.5 -1q63 0 109 52t77 167l281 1048h269l-286 -1070q-31 -116 -81 -196t-112 -129.5t-134 -71.5t-148 -22q-30 0 -72.5 3.5t-92.5 11.5z" />
<glyph unicode="&#x576;" d="M-10 216q0 32 3.5 66t12.5 66l240 890h-219l59 228h490l-307 -1133q-6 -23 -9.5 -41.5t-3.5 -33.5q0 -26 18 -42t47 -16q47 0 102 35.5t108.5 99.5t99.5 154t75 198l100 375h268l-285 -1062h-252l25 91q7 25 15.5 46t13.5 35q-30 -45 -68 -81t-82 -61t-92 -38.5 t-98 -13.5q-65 0 -114 18.5t-81.5 50.5t-49 75.5t-16.5 93.5z" />
<glyph unicode="&#x577;" horiz-adv-x="889" d="M-228 -207q0 50 18.5 97t60 98.5t107 110.5t159.5 133q71 56 143 115t129.5 122t93.5 130t36 138q0 36 -12 60.5t-33 38.5t-50 20t-62 6q-27 0 -55.5 -1.5t-61.5 -5.5t-71.5 -12.5t-85.5 -21.5l63 240q49 9 113 16t128 7q91 0 164.5 -23t124.5 -67.5t78.5 -108.5 t27.5 -146q0 -71 -24.5 -139t-65.5 -132.5t-95 -124.5t-114 -115.5t-121.5 -105t-117.5 -92.5q-64 -50 -112 -88.5t-75 -65.5t-31.5 -41t18.5 -14h458l-60 -228h-453q-48 0 -88.5 13.5t-70 39.5t-46.5 63t-17 84z" />
<glyph unicode="&#x578;" horiz-adv-x="1145" d="M-77 0l285 1062h252l-25 -91q-7 -25 -15.5 -46t-13.5 -35q30 45 68 81t82 61t92 38.5t98 13.5q63 0 112 -21t82 -55.5t50 -80.5t17 -95q-1 -29 -4.5 -59t-11.5 -59l-193 -714h-268l198 729q6 23 9.5 41.5t3.5 33.5q0 26 -18 42t-47 16q-47 0 -102 -35.5t-108.5 -99.5 t-99.5 -154t-75 -198l-100 -375h-268z" />
<glyph unicode="&#x579;" horiz-adv-x="835" d="M-198 -207q0 50 18.5 97t60 98.5t107 110.5t159.5 133q55 43 106 83.5t88 76.5q-51 28 -94 57.5t-74.5 66t-49.5 82t-18 104.5q0 42 11 90t27 96t35 93t36 81h281q-19 -39 -39.5 -85.5t-38 -93t-28.5 -88.5t-11 -72q0 -33 18.5 -60.5t48.5 -51.5t68.5 -44.5t79.5 -40.5 l28 -14t37 -19t36.5 -19t27.5 -15q-43 -64 -92 -118.5t-104 -105.5t-116.5 -101t-130.5 -104q-64 -50 -111.5 -89t-75 -65.5t-32 -40.5t18.5 -14h458l-60 -228h-453q-48 0 -88.5 13.5t-70 39.5t-46.5 63t-17 84z" />
<glyph unicode="&#x57a;" horiz-adv-x="1692" d="M-8.5 219.5q-2.5 65.5 14.5 128.5l193 714h268l-198 -729q-17 -62 -6 -97.5t47 -35.5q43 0 93.5 30t100 90t94.5 151.5t78 214.5l101 376h268l-198 -729q-17 -62 -6 -97.5t47 -35.5q41 0 90.5 27.5t98 83t92.5 139.5t74 197l111 415h268l-394 -1469h-268l120 449 q3 10 8.5 27.5t12 36.5t12.5 36.5t10 27.5q-26 -47 -62.5 -82.5t-78.5 -60t-86.5 -37t-86.5 -12.5q-54 0 -94.5 15.5t-69 42t-46 62t-24.5 76.5q-30 -45 -68.5 -81.5t-83 -62t-93.5 -39t-99 -13.5q-82 0 -133.5 34.5t-77.5 88t-28.5 119z" />
<glyph unicode="&#x57b;" horiz-adv-x="1105" d="M-148 -207q0 68 33 125.5t88 108.5t126 97.5t148 92.5l-32 16q-85 41 -126 110.5t-41 158.5q0 38 11.5 91.5t32 120.5t48 147t59.5 172q39 10 87.5 19.5t99 16.5t100.5 11t93 4q103 0 181 -22.5t129.5 -65.5t77.5 -104t26 -137q0 -95 -30 -177t-80.5 -153t-116.5 -132.5 t-138.5 -114.5t-147 -98t-140.5 -84q-87 -51 -139 -84.5t-73.5 -54t-14.5 -28.5t37 -8h562l-60 -228h-578q-48 0 -88.5 13.5t-70 39.5t-46.5 63t-17 84zM314 511q0 -31 15 -55t53 -45l89 -50q54 39 100.5 81t81 89.5t54 101.5t19.5 116q0 30 -12 52t-33 36.5t-48.5 21 t-57.5 6.5q-46 0 -89.5 -5t-77.5 -12q-17 -46 -33.5 -95.5t-30 -95.5t-22 -84.5t-8.5 -61.5z" />
<glyph unicode="&#x57c;" horiz-adv-x="1192" d="M-77 0l285 1062h252l-25 -91q-7 -25 -15.5 -46t-13.5 -35q60 91 140 142.5t180 51.5q82 0 141.5 -24.5t97 -68.5t55.5 -105.5t18 -134.5q0 -67 -21 -140t-58 -143.5t-86 -133t-104 -107.5h205l-62 -227h-526l49 180q74 51 136 114.5t107 136t70.5 152.5t25.5 164 q0 57 -31 86t-74 29q-59 0 -115.5 -38.5t-106 -105t-89.5 -155t-67 -188.5l-100 -375h-268z" />
<glyph unicode="&#x57d;" d="M-10 216q0 32 3.5 66t12.5 66l193 714h268l-198 -729q-6 -23 -9.5 -41.5t-3.5 -33.5q0 -26 18 -42t47 -16q47 0 102 35.5t108.5 99.5t99.5 154t75 198l100 375h268l-285 -1062h-252l25 91q7 25 15.5 46t13.5 35q-30 -45 -68 -81t-82 -61t-92 -38.5t-98 -13.5 q-65 0 -114 18.5t-81.5 50.5t-49 75.5t-16.5 93.5z" />
<glyph unicode="&#x57e;" d="M-10 230q0 29 4 59t12 59l193 714h268l-198 -729q-6 -23 -9.5 -41.5t-3.5 -33.5q0 -58 64 -58q43 0 99 38.5t110.5 105t102 155t74.5 188.5l207 779h268l-439 -1645h219l-62 -228h-487l128 477q7 25 15.5 46t13.5 35q-24 -36 -59.5 -67.5t-78.5 -55t-91.5 -37 t-98.5 -13.5q-66 0 -113.5 21t-78 55.5t-45 80t-14.5 95.5z" />
<glyph unicode="&#x57f;" horiz-adv-x="1684" d="M-10 222q0 35 6 74.5t20 92.5l183 673h268l-198 -729q-6 -23 -9.5 -42t-3.5 -35q0 -27 15.5 -41.5t38.5 -14.5q48 0 100 35t100 95.5t88.5 142.5t66.5 177l111 412h252l-25 -91q-7 -25 -15.5 -46t-13.5 -35q60 91 145 142.5t185 51.5q61 0 106.5 -20t75.5 -54t44.5 -78 t14.5 -92q0 -35 -6 -74.5t-20 -92.5l-183 -673h-268l198 729q6 23 9.5 42t3.5 35q0 27 -15.5 41.5t-38.5 14.5q-49 0 -101 -34.5t-100 -95.5t-88.5 -143t-65.5 -176l-111 -413h-252l25 91q7 25 15.5 46t13.5 35q-60 -91 -145 -142.5t-185 -51.5q-61 0 -106.5 20t-75.5 54 t-44.5 78t-14.5 92z" />
<glyph unicode="&#x580;" horiz-adv-x="1145" d="M-187 -407l395 1469h252l-25 -91q-7 -25 -15.5 -46t-13.5 -35q28 42 64.5 78t81 61.5t96 40t108.5 14.5q63 0 110.5 -21t78.5 -55.5t46.5 -80.5t15.5 -95q0 -29 -4 -59t-12 -59l-193 -714h-268l198 729q6 23 9.5 41.5t3.5 33.5q0 28 -17.5 43t-46.5 15 q-52 0 -108.5 -38.5t-109.5 -105t-97 -155t-71 -188.5l-210 -782h-268z" />
<glyph unicode="&#x581;" horiz-adv-x="1142" d="M-69 -385l59 228q58 -20 111.5 -32t98.5 -12q129 0 214 66.5t131 213.5q2 8 8 27t17 40q-29 -47 -65.5 -79t-75 -51.5t-76 -28.5t-68.5 -9q-142 0 -220.5 91t-78.5 275q0 75 18.5 159t56 166t93.5 157t132 132.5t171 91.5t210 34q58 0 115.5 -5.5t109.5 -14t95.5 -19.5 t73.5 -23l-261 -977q-32 -114 -89.5 -202t-137 -148t-177.5 -91t-210 -31q-51 0 -118 11t-137 31zM248 348q0 -72 23.5 -110t74.5 -38q45 0 96 36.5t100.5 101.5t92 154.5t70.5 194.5l45 171q-21 5 -45 7.5t-50 2.5q-71 0 -128.5 -26.5t-102.5 -69.5t-78 -98.5t-55 -113.5 t-32.5 -113t-10.5 -99z" />
<glyph unicode="&#x582;" horiz-adv-x="847" d="M-76 0l283 1062h270l-225 -835h411l-61 -227h-678z" />
<glyph unicode="&#x583;" horiz-adv-x="1684" d="M-10 222q0 35 6 74.5t20 92.5l183 673h268l-198 -729q-6 -23 -9.5 -42t-3.5 -35q0 -27 15.5 -41.5t38.5 -14.5q49 0 101.5 36t101 98.5t89.5 146.5t67 180l215 805h267l-127 -477q-7 -25 -15.5 -46t-13.5 -35q24 37 56.5 69t72 56t85 37.5t95.5 13.5q61 0 106.5 -20 t75.5 -54t44.5 -78t14.5 -92q0 -35 -6 -74.5t-20 -92.5l-183 -673h-268l198 729q6 23 9.5 42t3.5 35q0 27 -15.5 41.5t-38.5 14.5q-49 0 -101 -35t-100.5 -96.5t-89.5 -144.5t-66 -178l-217 -815h-267l128 480q7 25 15.5 46t13.5 35q-24 -37 -56.5 -69t-72.5 -56 t-85.5 -37.5t-95.5 -13.5q-61 0 -106.5 20t-75.5 54t-44.5 78t-14.5 92z" />
<glyph unicode="&#x584;" horiz-adv-x="1253" d="M-161 0l60 227h149l223 835h254l-26 -91q-6 -22 -14.5 -43.5t-14.5 -39.5q60 103 149.5 149.5t200.5 46.5q63 0 118.5 -18.5t96.5 -55.5t64.5 -91t23.5 -125q0 -101 -35 -180t-104 -133.5t-170 -83t-233 -28.5q-50 0 -110 6t-112 17l-44 -165h668l-60 -227h-666 l-110 -407h-268l108 407h-148zM409 594q44 -10 94.5 -13t108.5 -3q64 0 111 13.5t77 38.5t44.5 60.5t14.5 78.5q0 23 -10 40.5t-26.5 29t-38.5 17.5t-45 6q-43 0 -90 -15t-92 -47t-84 -83t-64 -123z" />
<glyph unicode="&#x585;" horiz-adv-x="1131" d="M-11 357q0 35 6.5 84.5t21 107t38 119.5t58.5 121.5t81.5 113t106.5 94t135 64t166 23.5q102 0 176.5 -27.5t123.5 -75.5t72.5 -112.5t23.5 -139.5q0 -35 -6.5 -85.5t-21 -110t-38 -123.5t-58.5 -126t-81.5 -117.5t-106.5 -97.5t-135 -66.5t-166 -24.5q-102 0 -176.5 31 t-123.5 83.5t-72.5 121t-23.5 143.5zM252 346q0 -77 38 -113.5t112 -36.5q64 0 113.5 32.5t86 83t62 112.5t41 121t22.5 108t7 74q0 66 -38.5 102.5t-110.5 36.5q-63 0 -112.5 -32.5t-86.5 -83.5t-62.5 -112.5t-41.5 -119t-23 -104.5t-7 -68z" />
<glyph unicode="&#x586;" horiz-adv-x="1371" d="M-121 122l66 236q40 -31 87.5 -57t97.5 -45.5t101 -32t98 -15.5l160 594q-71 6 -132 27t-106.5 57.5t-71.5 88t-26 116.5q0 97 41 167.5t112.5 116.5t167 68.5t204.5 22.5h254l-120 -448q99 -6 174.5 -36.5t126.5 -82t77.5 -122t26.5 -157.5q0 -145 -50 -261.5 t-140 -199.5t-216 -129t-277 -49l-104 -388h-265l105 390q-43 5 -96.5 16.5t-107.5 28.5t-103 40.5t-84 53.5zM411 1112q0 -40 35 -63.5t101 -26.5l64 241q-92 -2 -146 -39t-54 -112zM594 210q87 4 154 37.5t112.5 88t69.5 127t24 156.5q0 88 -51.5 130.5t-149.5 47.5z" />
<glyph unicode="&#x587;" horiz-adv-x="1477" d="M-10 216q0 32 3.5 66t12.5 66l301 1118h269l-307 -1133q-6 -23 -9.5 -41.5t-3.5 -33.5q0 -26 18 -42t47 -16q47 0 102 35.5t108.5 99.5t99.5 154t75 198l100 375h268l-224 -835h452l-62 -227h-703l25 91q7 25 15.5 46t13.5 35q-30 -45 -68 -81t-82 -61t-92 -38.5 t-98 -13.5q-65 0 -114 18.5t-81.5 50.5t-49 75.5t-16.5 93.5z" />
<glyph unicode="&#x589;" horiz-adv-x="566" d="M-76 0l72 273h288l-72 -273h-288zM135 789l73 273h288l-73 -273h-288z" />
<glyph unicode="&#x58a;" horiz-adv-x="644" d="M22 497l76 297q40 -52 76.5 -87.5t70 -57.5t64.5 -32t60 -10q30 0 69 8t83.5 20.5t92 29.5t95.5 35l-67 -252q-86 -42 -167 -63.5t-153 -21.5q-85 0 -162 32t-138 102z" />
<glyph unicode="&#x58d;" horiz-adv-x="1941" d="M8 534q0 197 131 343q0 95 38.5 178t111.5 155.5t156 111t179 38.5q145 129 339 129q199 0 345 -131q95 0 178 -38.5t155.5 -111.5t111 -156t38.5 -179q129 -145 129 -339q0 -199 -131 -345q0 -95 -38.5 -178t-111.5 -155.5t-156 -111t-180 -38.5q-144 -129 -340 -129 q-197 0 -343 131q-95 0 -178 38.5t-155.5 111.5t-111 156t-38.5 180q-129 144 -129 340zM139 534q0 -167 119 -277q111 -102 264 -102q170 0 285 131q36 43 61 100q-103 -50 -220 -50q-209 0 -360 152q-78 77 -116 179l-4 11q-29 -71 -29 -144zM269 851q0 -161 111.5 -272 t268.5 -111q76 0 143 28q-152 53 -245.5 188t-93.5 296q0 115 51 220q-69 -27 -124 -83q-111 -110 -111 -266zM297 73q27 -69 83 -124q110 -111 266 -111q160 0 271.5 111t111.5 269q0 76 -28 143q-56 -152 -189.5 -246.5t-292.5 -94.5q-118 0 -222 53zM586 974 q0 -169 131 -284q43 -36 100 -61q-50 103 -50 219q0 209 151 360q77 79 180 117l11 4q-71 29 -146 29q-164 0 -274 -120q-103 -112 -103 -264zM819 -263q72 -29 144 -29q167 0 278 120q102 112 102 263q0 171 -133 285q-42 36 -99 61q50 -103 50 -219q0 -209 -151 -360 q-78 -79 -180 -117zM899 848q0 -77 28 -144q53 150 185 245t297 95q117 0 222 -52q-28 71 -83 125q-112 111 -269 111q-159 0 -269.5 -110.5t-110.5 -269.5zM1060 680q103 50 220 50q209 0 360 -152q77 -76 116 -179l4 -11q29 71 29 146q0 163 -119 276q-112 103 -263 103 q-171 0 -286 -134q-36 -42 -61 -99zM1136 570q154 -56 247.5 -189.5t93.5 -292.5q0 -118 -53 -222q69 27 124 83q111 110 111 266q0 160 -111 271.5t-269 111.5q-76 0 -143 -28z" />
<glyph unicode="&#x58e;" horiz-adv-x="1941" d="M8 534q0 194 129 339q0 96 38.5 179t111 156t155.5 111.5t178 38.5q146 131 345 131q194 0 339 -129q96 0 179 -38.5t156 -111t111.5 -155.5t38.5 -178q131 -146 131 -343q0 -196 -129 -340q0 -97 -38.5 -180t-111 -156t-155.5 -111.5t-178 -38.5q-146 -131 -343 -131 q-196 0 -340 129q-97 0 -180 38.5t-156 111t-111.5 155.5t-38.5 178q-131 146 -131 345zM139 534q0 -75 29 -146l4 11q39 103 116 179q151 152 360 152q117 0 220 -50q-25 57 -61 99q-115 134 -286 134q-151 0 -263 -103q-119 -113 -119 -276zM269 215q0 -156 111 -266 q55 -56 124 -83q-53 104 -53 222q0 159 93.5 292.5t247.5 189.5q-67 28 -143 28q-158 0 -269 -111.5t-111 -271.5zM297 992q105 52 222 52q165 0 297 -95t185 -245q28 67 28 144q0 159 -110.5 269.5t-269.5 110.5q-157 0 -269 -111q-55 -54 -83 -125zM585 91 q0 -151 102 -263q111 -120 278 -120q72 0 144 29l-11 4q-102 38 -180 117q-151 151 -151 360q0 116 50 219q-57 -25 -99 -61q-133 -114 -133 -285zM819 1329l11 -4q103 -38 180 -117q151 -151 151 -360q0 -116 -50 -219q57 25 100 61q131 115 131 284q0 152 -103 264 q-110 120 -274 120q-75 0 -146 -29zM899 218q0 -158 111.5 -269t271.5 -111q156 0 266 111q56 55 83 124q-104 -53 -222 -53q-159 0 -292.5 94.5t-189.5 246.5q-28 -67 -28 -143zM1060 386q25 -57 61 -100q115 -131 285 -131q153 0 264 102q119 110 119 277q0 73 -29 144 l-4 -11q-38 -102 -116 -179q-151 -152 -360 -152q-117 0 -220 50zM1136 496q67 -28 143 -28q157 0 268.5 111t111.5 272q0 156 -111 266q-55 56 -124 83q51 -105 51 -220q0 -161 -93.5 -296t-245.5 -188z" />
<glyph unicode="&#x58f;" horiz-adv-x="1480" d="M82 827l35 130q69 257 233.5 394t419.5 137q105 0 196.5 -27.5t159.5 -80.5t107 -130.5t39 -177.5q0 -34 -4.5 -69.5t-14.5 -71.5l-87 -323h235l-37 -138h-235l-29 -109h235l-37 -138h-235l-60 -223h-293l60 223h-272l37 138h272l29 109h-272l37 138h272l105 390 q9 34 9 68q0 39 -15 71t-44 55.5t-71.5 36.5t-96.5 13q-77 0 -135.5 -22.5t-101.5 -64t-73 -99.5t-49 -130l-27 -99h-292z" />
<glyph unicode="&#x2000;" horiz-adv-x="1004" />
<glyph unicode="&#x2001;" horiz-adv-x="2008" />
<glyph unicode="&#x2002;" horiz-adv-x="1004" />
<glyph unicode="&#x2003;" horiz-adv-x="2008" />
<glyph unicode="&#x2004;" horiz-adv-x="669" />
<glyph unicode="&#x2005;" horiz-adv-x="502" />
<glyph unicode="&#x2006;" horiz-adv-x="334" />
<glyph unicode="&#x2007;" horiz-adv-x="334" />
<glyph unicode="&#x2008;" horiz-adv-x="251" />
<glyph unicode="&#x2009;" horiz-adv-x="401" />
<glyph unicode="&#x200a;" horiz-adv-x="111" />
<glyph unicode="&#x2010;" horiz-adv-x="592" d="M-30 405l68 251h559l-67 -251h-560z" />
<glyph unicode="&#x2011;" horiz-adv-x="592" d="M-30 405l68 251h559l-67 -251h-560z" />
<glyph unicode="&#x2012;" horiz-adv-x="592" d="M-30 405l68 251h559l-67 -251h-560z" />
<glyph unicode="&#x2013;" horiz-adv-x="989" d="M-30 405l111 251h913l-109 -251h-915z" />
<glyph unicode="&#x2014;" horiz-adv-x="2013" d="M-30 405l222 251h1826l-219 -251h-1829z" />
<glyph unicode="&#x202f;" horiz-adv-x="401" />
<glyph unicode="&#x205f;" horiz-adv-x="502" />
<glyph unicode="&#xe000;" horiz-adv-x="1060" d="M0 0v1060h1060v-1060h-1060z" />
</font>
</defs>
</svg>
