<?xml version="1.0" standalone="no"?>
<!DOCTYPE svg PUBLIC "-//W3C//DTD SVG 1.1//EN" "http://www.w3.org/Graphics/SVG/1.1/DTD/svg11.dtd" >
<svg xmlns="http://www.w3.org/2000/svg">
<metadata></metadata>
<defs>
<font id="arian_amuitalic" horiz-adv-x="1229" >
<font-face units-per-em="2048" ascent="1536" descent="-512" />
<missing-glyph horiz-adv-x="500" />
<glyph horiz-adv-x="2048" />
<glyph horiz-adv-x="2048" />
<glyph unicode="&#xd;" horiz-adv-x="1024" />
<glyph unicode=" "  horiz-adv-x="500" />
<glyph unicode="&#x09;" horiz-adv-x="500" />
<glyph unicode="&#xa0;" horiz-adv-x="500" />
<glyph unicode="!" horiz-adv-x="514" d="M-38 0l54 205h198l-55 -205h-197zM104 364l155 777l87 325h214l-87 -325l-258 -777h-111z" />
<glyph unicode="&#x22;" horiz-adv-x="716" d="M78 947l27 279l64 240h197l-64 -240l-118 -279h-106zM396 947l28 279l64 240h197l-64 -240l-121 -279h-104z" />
<glyph unicode="#" horiz-adv-x="1248" d="M99 401v149h191l71 363h-262v149h291l84 429h144l-84 -429h302l84 429h145l-84 -429h166v-149h-194l-72 -363h266v-149h-295l-84 -426h-144l83 426h-302l-83 -426h-143l82 426h-162zM434 550h302l72 363h-303z" />
<glyph unicode="$" horiz-adv-x="1221" d="M-47 40l48 185q68 -28 164.5 -50.5t227.5 -26.5l145 543q-61 26 -120.5 56t-107 72t-76.5 99.5t-29 138.5q0 98 40.5 175t113 131t172.5 85t220 38l31 115h131l-31 -114q81 -2 162.5 -11t167.5 -26l-50 -185q-68 19 -144.5 34t-180.5 18l-132 -493q61 -26 120 -57.5 t106 -76.5t76 -107.5t29 -150.5q0 -106 -41 -186.5t-114.5 -136.5t-176 -88t-225.5 -40l-51 -192h-131l50 190q-59 1 -118 6.5t-111.5 14t-95.5 19t-69 21.5zM407 1069q0 -36 14 -64.5t38 -52t57 -42.5t71 -36l118 439q-63 -7 -117.5 -25t-94.5 -48t-63 -72.5t-23 -98.5z M525 153q66 8 122.5 28.5t98 53.5t65 79t23.5 106q0 41 -14 73.5t-38 58.5t-56.5 47.5t-70.5 39.5z" />
<glyph unicode="%" horiz-adv-x="1689" d="M178 -22l1181 1510h140l-1178 -1510h-143zM200 969q0 56 12 116.5t35.5 118t58 109.5t78.5 91t98 62t116 23q57 0 102 -18t75.5 -51t47 -79.5t16.5 -103.5q0 -44 -10 -99.5t-31.5 -113.5t-54.5 -113.5t-78 -98.5t-103 -69.5t-129 -26.5q-53 0 -95.5 17.5t-73.5 50.5 t-47.5 80t-16.5 105zM346 964q0 -124 111 -124q38 0 70 20.5t58.5 54.5t46 77t33 87.5t20.5 87t7 75.5q0 56 -28.5 89.5t-81.5 33.5q-41 0 -74.5 -23t-60 -59.5t-45.5 -81.5t-31.5 -89.5t-18.5 -83.5t-6 -64zM853 231q0 56 12 116.5t35.5 118t58 109.5t78.5 91t98 62t116 23 q57 0 102 -18t75.5 -51t47 -79.5t16.5 -103.5q0 -44 -10 -99.5t-31.5 -113.5t-54.5 -113.5t-78 -98.5t-102.5 -69.5t-129.5 -26.5q-53 0 -95.5 17.5t-73.5 50.5t-47.5 80t-16.5 105zM999 226q0 -124 111 -124q38 0 70 20.5t58.5 54.5t46 77t33 87.5t20.5 87t7 75.5 q0 56 -28.5 89.5t-81.5 33.5q-41 0 -74.5 -23t-60 -59.5t-45.5 -81.5t-31.5 -89.5t-18.5 -84t-6 -63.5z" />
<glyph unicode="&#x26;" horiz-adv-x="1452" d="M-5 344q0 91 29 167t78.5 133.5t115 95.5t138.5 54q-72 37 -107 100.5t-35 136.5q0 119 49.5 205t133 142t194 83t232.5 27q63 0 120.5 -3.5t107.5 -8.5t91 -11t70 -12l-49 -180q-37 10 -76 19.5t-82.5 16.5t-94 11t-111.5 4q-75 0 -146.5 -12t-127 -43.5t-89 -86 t-33.5 -138.5q0 -43 17 -78t47 -59.5t72.5 -38t93.5 -13.5h14l-46 -174h-14q-84 0 -156 -20t-124 -60.5t-81.5 -100.5t-29.5 -140q0 -107 72 -164.5t233 -57.5q181 0 287 74t141 203l71 266h-208l46 174h607l-46 -174h-196l-76 -285q-29 -107 -88.5 -185.5t-143.5 -130.5 t-190 -77t-227 -25q-108 0 -197 24.5t-152.5 71t-98.5 115t-35 155.5z" />
<glyph unicode="'" horiz-adv-x="397" d="M197 947l28 274l66 245h197l-66 -245l-119 -274h-106z" />
<glyph unicode="(" horiz-adv-x="607" d="M61 124q0 102 11.5 206t35.5 209q59 257 186.5 488.5t331.5 438.5h207q-79 -83 -159 -184.5t-151.5 -221t-129.5 -255t-94 -286.5q-28 -118 -41 -228t-13 -212q0 -145 23.5 -267t64.5 -219h-171q-51 111 -76 246.5t-25 284.5z" />
<glyph unicode=")" horiz-adv-x="607" d="M-220 -407q79 82 159 184t151.5 221t129.5 255t94 287q28 118 41 228t13 212q0 145 -23.5 267t-64.5 219h171q51 -111 76 -246.5t25 -284.5q0 -102 -11.5 -206t-35.5 -209q-59 -257 -186.5 -488.5t-331.5 -438.5h-207z" />
<glyph unicode="*" horiz-adv-x="747" d="M35 1206l84 142l221 -106l53 274h139l-94 -273l278 102l6 -142l-279 -62l127 -211l-141 -85l-84 237l-200 -238l-96 85l234 212z" />
<glyph unicode="+" horiz-adv-x="1031" d="M31 652l41 155h375l102 379h172l-102 -379h384l-41 -155h-384l-106 -395h-172l106 395h-375z" />
<glyph unicode="," horiz-adv-x="479" d="M-53 -213q63 25 103 73.5t64 139.5h-98l55 205h197l-55 -205q-29 -108 -90 -181.5t-149 -108.5z" />
<glyph unicode="-" horiz-adv-x="704" d="M25 440l49 181h492l-49 -181h-492z" />
<glyph unicode="." horiz-adv-x="466" d="M-53 0l55 205h196l-55 -205h-196z" />
<glyph unicode="/" horiz-adv-x="576" d="M-186 0l809 1466h139l-810 -1466h-138z" />
<glyph unicode="0" d="M64 424q0 93 17.5 208t54.5 233t93 230.5t133.5 199.5t176.5 140t221 53q114 0 190.5 -34.5t122.5 -93.5t65.5 -138t19.5 -168q0 -67 -9.5 -149t-29.5 -170t-50 -178.5t-72 -174.5t-95 -158t-119 -128.5t-144 -86t-170 -31.5q-116 0 -193.5 35t-124.5 96t-67 142t-20 173 zM238 406q0 -59 11.5 -109.5t39 -88t74 -59t116.5 -21.5q86 0 156.5 50t126 131t96.5 182.5t68 205t40 199t13 163.5q0 59 -11 110t-37.5 89t-71 59.5t-111.5 21.5q-86 0 -157 -50t-127.5 -131t-99 -182.5t-70.5 -205.5t-42 -199.5t-14 -164.5z" />
<glyph unicode="1" d="M438 0l351 1311h-217l42 155h389l-393 -1466h-172z" />
<glyph unicode="2" d="M-27 0l40 154q61 39 134.5 86.5t152.5 101.5t159.5 114.5t155 125t140 132t113.5 136t76 137t28 135.5q0 54 -18 93.5t-51 65.5t-79 39t-102 16q-12 1 -23.5 1h-22.5q-79 0 -146.5 -13.5t-141.5 -36.5l43 161q56 16 124 28t161 12q217 0 329.5 -93t112.5 -261 q0 -86 -33 -170.5t-90 -167t-134.5 -161.5t-167.5 -153t-188 -143t-195 -130q-38 -24 -94 -44h620l-44 -165h-859z" />
<glyph unicode="3" d="M-10 22l41 155q22 -9 59.5 -18t82.5 -15.5t91.5 -11t86.5 -4.5q72 0 141.5 13.5t128 46.5t100.5 89.5t59 143.5q5 22 6.5 42t1.5 38q0 58 -18.5 99t-49.5 66.5t-71 37t-83 11.5h-79l40 152h76q61 0 118 18t101 53.5t70.5 88t26.5 121.5q0 50 -18.5 86t-53 59.5t-83.5 35 t-109 11.5q-86 0 -156.5 -13.5t-121.5 -28.5l42 158q60 14 122 23.5t142 9.5q96 0 172.5 -21.5t130 -63t82 -101.5t28.5 -137q0 -81 -26.5 -146.5t-68.5 -114t-93 -79.5t-100 -44q31 -14 60.5 -39t52 -60.5t36.5 -81.5t14 -102q0 -46 -10 -93q-24 -120 -84.5 -202 t-144.5 -132t-186 -72t-210 -22q-39 0 -87 3.5t-96 9.5t-91 14t-72 17z" />
<glyph unicode="4" d="M3 351l48 180q101 126 214.5 247.5t235.5 238.5t251 229t261 220h155l-255 -950h149l-44 -165h-149l-94 -351h-181l94 351h-685zM250 516h482l181 679q-8 -14 -20.5 -29t-28.5 -28q-47 -39 -103 -89.5t-114.5 -107t-117.5 -115.5t-111.5 -115t-96 -106.5t-71.5 -88.5z " />
<glyph unicode="5" d="M2 31l41 155q27 -16 64.5 -27t81 -18t89 -10t87.5 -3q72 0 144.5 18t135.5 57.5t111.5 102t72.5 150.5q18 67 18 125q0 97 -52.5 151.5t-159.5 54.5q-85 0 -156.5 -29t-128.5 -96h-174q15 56 36.5 122.5t47 137.5t54 144t58 144t58 136t54.5 120h695l-44 -165h-545 q-11 -19 -26 -52t-32 -73.5t-34.5 -86t-34 -89t-29.5 -81.5t-21 -64q54 40 115.5 61t143.5 21q79 0 144.5 -23t113 -67.5t74 -108.5t26.5 -146q0 -74 -22 -158q-33 -123 -100.5 -210t-158.5 -141.5t-201.5 -79.5t-228.5 -25q-39 0 -82 3t-85 9.5t-80.5 16.5t-69.5 24z" />
<glyph unicode="6" d="M72 448q0 57 7.5 120.5t24.5 136.5q47 213 129.5 361.5t188.5 242.5t229.5 136.5t252.5 42.5q34 0 71.5 -2.5t73.5 -7.5t68.5 -11.5t57.5 -13.5l-43 -162q-34 13 -65 22t-61.5 14.5t-62.5 8t-68 2.5q-79 0 -145.5 -21.5t-122 -59t-101.5 -90t-82.5 -114t-65 -130 t-49.5 -139.5q33 33 75 61t89.5 48.5t100 32t106.5 11.5q91 0 165 -26.5t126.5 -74.5t81 -116.5t28.5 -152.5q0 -119 -42.5 -225.5t-118 -187.5t-180.5 -128.5t-230 -47.5q-50 0 -102 9.5t-100.5 32t-91.5 58t-75 88t-50.5 122.5t-18.5 160zM249 448q0 -70 15 -127.5 t48.5 -99t87 -64t129.5 -22.5q71 0 137.5 29.5t117.5 84t82 132.5t31 176q0 52 -14 94t-43.5 71.5t-74.5 45.5t-107 16q-58 0 -116.5 -18t-111 -49t-97 -71.5t-75.5 -85.5q-9 -60 -9 -112z" />
<glyph unicode="7" d="M123 0q56 153 145.5 316t205 328.5t254.5 331.5t295 325h-702l44 165h911l-44 -165q-148 -155 -287.5 -316.5t-258 -326t-211.5 -330t-148 -328.5h-204z" />
<glyph unicode="8" d="M13 367q0 78 27 150.5t76.5 131.5t119.5 101.5t155 61.5q-27 15 -53 38.5t-45.5 54t-31.5 68t-12 80.5q0 103 42 184t112 137t161 85t190 29q89 0 166.5 -23t134.5 -67t89.5 -107.5t32.5 -145.5q0 -69 -23 -128.5t-64 -106.5t-96.5 -79.5t-121.5 -47.5q34 -16 66 -42.5 t57 -64t39.5 -85.5t14.5 -105q0 -124 -49.5 -219t-132 -159t-189 -97t-220.5 -33q-90 0 -171 24t-142 72.5t-96.5 121.5t-35.5 171zM190 369q0 -115 74 -176.5t220 -65.5q75 0 144 24.5t121.5 69t84 107.5t31.5 141q0 63 -21.5 109t-60 76.5t-92 45.5t-117.5 15 q-71 0 -140 -22.5t-123 -66t-87.5 -108.5t-33.5 -149zM429 1069q0 -44 15 -81.5t45 -64.5t76.5 -42.5t109.5 -15.5q73 0 132.5 18.5t101.5 53t65 84t23 111.5q0 54 -20.5 92.5t-56 64t-82.5 37.5t-101 12q-62 0 -118 -18t-98 -52.5t-67 -84.5t-25 -114z" />
<glyph unicode="9" d="M74 13l43 162q67 -26 126.5 -36.5t130.5 -10.5q118 0 209 46.5t159.5 123.5t117 176.5t80.5 206.5q-33 -33 -75 -60.5t-90 -48t-100 -32t-106 -11.5q-91 0 -165 26.5t-126.5 74.5t-81 116.5t-28.5 152.5q0 79 19 153.5t54.5 140t86.5 119.5t114.5 93.5t138 61t158.5 21.5 q50 0 102 -9.5t100.5 -32t91.5 -58t75 -88t50.5 -122.5t18.5 -160q0 -57 -7.5 -120.5t-24.5 -136.5q-47 -213 -129.5 -361.5t-188.5 -242.5t-229.5 -136.5t-252.5 -42.5q-35 0 -72 2.5t-73 7.5t-68.5 11t-57.5 14zM352 909q0 -52 14 -94t43 -71.5t74.5 -45.5t107.5 -16 q58 0 116 18t111 48.5t97.5 71.5t75.5 86q4 29 6.5 57.5t2.5 54.5q0 70 -15 127.5t-48.5 99t-87 64t-129.5 22.5q-71 0 -137.5 -29.5t-117.5 -84t-82 -133t-31 -175.5z" />
<glyph unicode=":" horiz-adv-x="467" d="M-53 0l54 205h197l-55 -205h-196zM176 857l55 205h197l-55 -205h-197z" />
<glyph unicode=";" horiz-adv-x="479" d="M-110 -213q61 24 102 75t64 138h-98l55 205h197l-55 -205q-30 -112 -86.5 -182t-152.5 -108zM188 857l55 205h197l-55 -205h-197z" />
<glyph unicode="&#x3c;" horiz-adv-x="1112" d="M-3 635l45 168l1043 415l-47 -179l-824 -319l653 -316l-48 -179z" />
<glyph unicode="=" horiz-adv-x="1190" d="M47 417l45 168h930l-45 -168h-930zM167 862l45 168h930l-45 -168h-930z" />
<glyph unicode="&#x3e;" horiz-adv-x="1112" d="M-3 226l47 179l824 319l-653 316l48 179l822 -410l-45 -168z" />
<glyph unicode="?" horiz-adv-x="969" d="M119 0l52 195h186l-52 -195h-186zM219 361q20 93 57 165t83 129t98.5 102t104 84.5t99 76t83.5 77t57.5 87.5t21.5 107q0 31 -11.5 57.5t-37.5 46t-67.5 30t-101.5 10.5q-61 0 -111.5 -3t-96 -9t-87.5 -14.5t-85 -18.5l46 170q60 11 143.5 20.5t195.5 9.5q100 0 173 -22 t121 -60t71 -90t23 -113q0 -80 -21.5 -141.5t-58 -110.5t-84 -89t-99.5 -78.5t-104 -79t-98 -90t-82.5 -111t-55.5 -142.5h-176z" />
<glyph unicode="@" horiz-adv-x="1939" d="M81 509q0 159 36.5 293.5t102 243.5t155 192t195.5 139t224.5 84.5t240.5 28.5q178 -1 329 -57t261 -158t172 -245.5t62 -318.5q0 -91 -16.5 -180t-48 -170.5t-77.5 -151.5t-104.5 -121.5t-129.5 -80.5t-152 -29q-88 0 -142 44t-54 130q-60 -92 -144 -132.5t-191 -40.5 q-72 0 -137 28.5t-114 85t-78 140t-29 194.5q0 143 36.5 263.5t103 208t160.5 136.5t209 49q48 0 94 -11.5t84.5 -34.5t67 -57.5t43.5 -80.5l33 162h172l-163 -805q-2 -12 -3.5 -24t-1.5 -24q0 -18 4 -34t13.5 -27.5t26 -18.5t41.5 -7q72 0 136.5 48t113 130t76.5 189.5 t28 226.5q0 159 -54.5 278.5t-148 200t-217 121t-261.5 40.5q-184 0 -333.5 -63.5t-256 -177t-164.5 -269t-58 -339.5q0 -177 56.5 -324.5t162 -253.5t256.5 -165t340 -59q102 0 201.5 16t190 51t167.5 91t134 136h174q-42 -77 -100.5 -138.5t-128.5 -109t-148.5 -81.5 t-161 -55.5t-166.5 -31.5t-165 -10q-131 0 -253 27t-228 80t-193 132t-149.5 183t-96.5 233t-34 281zM620 434q0 -62 11 -118t37.5 -98t70 -66.5t109.5 -24.5q79 0 142 43t106.5 115t66.5 166t23 196q0 69 -17 122.5t-48 90t-76 56t-100 19.5q-66 0 -124.5 -29.5t-102 -91 t-70 -156t-28.5 -224.5z" />
<glyph unicode="A" horiz-adv-x="1338" d="M-198 0q49 103 115.5 226t144 254.5t163 267t171.5 264t170 244.5t159 210h276q25 -94 46 -207.5t37.5 -239t29.5 -258t21.5 -264.5t12.5 -258.5t4 -238.5h-189q0 60 -2 137t-5.5 164.5t-9.5 184t-14 195.5h-470l110 174h344q-12 117 -27 228t-35 211h-46 q-75 -100 -152.5 -213t-154 -230t-149 -235t-136.5 -228.5t-117 -209.5t-91 -178h-206z" />
<glyph unicode="B" horiz-adv-x="1352" d="M-46 0l392 1466q71 0 136.5 3.5t129.5 7.5t128.5 7.5t134.5 3.5q103 0 182.5 -24t133.5 -68t81.5 -105.5t27.5 -136.5q0 -70 -18.5 -133t-56.5 -114.5t-95 -88t-134 -54.5q45 -15 79.5 -42.5t58.5 -63t36.5 -77.5t12.5 -87q0 -92 -24.5 -164.5t-68 -127.5t-103.5 -93 t-131.5 -62.5t-151 -35.5t-162.5 -11h-588zM190 176h369q83 0 160.5 12.5t137.5 46.5t96 95t36 158q0 43 -18 79t-52.5 61t-85.5 39t-118 14h-309l46 174h269q76 0 145.5 15t122 48.5t84 88t31.5 134.5q0 95 -61 138t-174 43q-77 0 -134.5 -3.5t-101.5 -7t-78 -7t-63 -3.5z " />
<glyph unicode="C" horiz-adv-x="1228" d="M51 462q0 122 39 271q50 187 121 328.5t172 236.5t237.5 142.5t317.5 47.5q80 0 181.5 -11.5t212.5 -34.5l-50 -177q-109 26 -205 42.5t-182 16.5q-108 0 -200.5 -30t-169 -99.5t-137 -182.5t-104.5 -279q-40 -150 -40 -260q0 -174 97 -252t281 -78q39 0 85 2.5t94.5 8 t97.5 14t96 20.5l-47 -177q-34 -6 -65 -12.5t-71 -11t-93 -7.5t-130 -3q-132 0 -232.5 32.5t-168.5 94.5t-102.5 152t-34.5 206z" />
<glyph unicode="D" horiz-adv-x="1465" d="M-46 0l392 1466q81 1 144.5 4.5t121.5 7.5t116.5 7t129.5 3q138 0 237.5 -36t164 -101t95.5 -156t31 -201q0 -130 -39 -278q-46 -177 -118.5 -311t-176.5 -224t-242 -135.5t-314 -45.5h-542zM192 176h330q117 0 215.5 29.5t178 96t139.5 172.5t100 259q20 76 30 141.5 t10 122.5q0 169 -89.5 249.5t-271.5 80.5q-111 0 -195 -8.5t-144 -8.5z" />
<glyph unicode="E" horiz-adv-x="1272" d="M-46 0l392 1466h979l-46 -172h-788l-118 -439h695l-46 -174h-695l-136 -505h811l-47 -176h-1001z" />
<glyph unicode="F" horiz-adv-x="1179" d="M-46 0l392 1466h979l-46 -172h-788l-118 -439h695l-46 -174h-695l-183 -681h-190z" />
<glyph unicode="G" horiz-adv-x="1462" d="M54 470q0 121 37 263q49 192 124.5 334t181 235.5t243 139.5t311.5 46q99 0 211 -13.5t242 -39.5l-48 -181q-37 11 -88 23.5t-109 23t-120.5 17t-123.5 6.5q-125 0 -224 -35.5t-176.5 -108.5t-134.5 -184.5t-97 -262.5q-20 -75 -29.5 -139t-9.5 -119q0 -89 24 -152.5 t69 -104.5t110 -60.5t147 -19.5q65 0 127 3.5t114 8t89.5 8t53.5 3.5l139 520h-405l46 174h591l-229 -855q-93 0 -164 -3.5t-134 -7.5t-125 -7.5t-138 -3.5q-116 0 -209.5 32t-159 94t-101 154t-35.5 212z" />
<glyph unicode="H" horiz-adv-x="1403" d="M-46 0l392 1466h191l-164 -611h726l164 611h191l-393 -1466h-191l183 681h-726l-183 -681h-190z" />
<glyph unicode="I" horiz-adv-x="486" d="M-46 0l392 1466h191l-393 -1466h-190z" />
<glyph unicode="J" horiz-adv-x="486" d="M-465 -293l47 176q17 -3 34 -4t35 -1q58 0 111.5 15.5t100 55t85.5 108.5t67 176l331 1233h191l-343 -1280q-34 -127 -92 -218.5t-134 -150.5t-168 -87t-195 -28q-18 0 -35.5 1t-34.5 4z" />
<glyph unicode="K" horiz-adv-x="1305" d="M-46 0l392 1466h191l-164 -611h18q36 0 91.5 16t122.5 49t142.5 83t151 117.5t147.5 154t133 191.5h216q-70 -123 -150.5 -225.5t-166.5 -185t-173.5 -146t-171.5 -108.5q65 -84 124 -179.5t104 -198t72 -209.5t27 -214h-190q-1 73 -21.5 161.5t-60 183.5t-97.5 192 t-134 186q-62 -21 -115.5 -31.5t-96.5 -10.5h-18l-183 -681h-190z" />
<glyph unicode="L" horiz-adv-x="1029" d="M-46 0l392 1466h191l-346 -1290h688l-47 -176h-878z" />
<glyph unicode="M" horiz-adv-x="1688" d="M-46 0l392 1466h193q27 -37 57 -94.5t58.5 -127t55 -147t48 -154t36.5 -148t20 -128.5q41 67 94 140.5t112.5 148.5t123.5 148t127.5 139.5t124.5 123.5t114 99h229l-393 -1466h-191l319 1189l13 41q-69 -62 -150.5 -152.5t-165.5 -196t-165.5 -220.5t-148.5 -227h-171 q-6 72 -19.5 152t-32 160t-39.5 156t-43 140.5t-43 113t-38 73.5q-1 -7 -3.5 -18t-5.5 -23l-318 -1188h-190z" />
<glyph unicode="N" horiz-adv-x="1434" d="M-46 0l392 1466h196q34 -29 75.5 -84.5t86 -130.5t89.5 -166t84.5 -191t72 -205.5t51.5 -208.5q2 -10 2.5 -35.5t0.5 -49.5v-28q3 14 6.5 31t7 33t7 29.5t5.5 20.5l264 985h191l-393 -1466h-188q-9 137 -34.5 272.5t-61.5 262.5t-79.5 241.5t-87.5 209t-85.5 164.5 t-73.5 109l-338 -1259h-190z" />
<glyph unicode="O" horiz-adv-x="1464" d="M49 477q0 60 9.5 124t27.5 132q42 157 105 294.5t156.5 240t222.5 161.5t303 59q140 0 241.5 -37t167.5 -103.5t98 -158.5t32 -201q0 -120 -36 -255q-28 -104 -65 -201t-85 -180.5t-109.5 -152.5t-140 -118t-174.5 -76t-214 -27q-140 0 -241.5 37t-167.5 103.5t-98 158 t-32 200.5zM242 468q0 -164 86 -247t263 -83q121 0 213 38.5t162.5 114t121.5 186.5t90 256q41 155 41 267q0 328 -349 328q-121 0 -213 -38.5t-162.5 -114t-121.5 -186.5t-90 -256q-41 -153 -41 -265z" />
<glyph unicode="P" horiz-adv-x="1335" d="M-46 0l392 1466q84 0 157 3t136 7.5t117 8t100 3.5q120 0 207.5 -27.5t144.5 -78t84 -121t27 -155.5q0 -127 -46 -220.5t-126 -155t-188 -92t-231 -30.5q-80 0 -163.5 12.5t-156.5 40.5l49 177q31 -18 71.5 -30t81 -18.5t75.5 -9.5t55 -3q79 0 150 19.5t124 58.5t84 99 t31 141q0 50 -13.5 91t-46.5 70.5t-87.5 46t-136.5 16.5q-113 0 -199 -9t-153 -9l-349 -1301h-190z" />
<glyph unicode="Q" horiz-adv-x="1473" d="M50 470q0 122 38 263q42 157 109.5 294.5t167 240t233 161.5t307.5 59q138 0 236.5 -36t162 -100t93.5 -153.5t30 -195.5q0 -99 -23 -209.5t-63.5 -218t-96 -203.5t-119.5 -166q36 -26 76.5 -47t88.5 -35l-49 -164q-81 11 -143 45.5t-118 79.5q-82 -51 -180.5 -79 t-219.5 -28q-139 0 -239 36.5t-164.5 101.5t-95.5 155.5t-31 198.5zM244 468q0 -164 86 -247t263 -83q74 0 136.5 14t117.5 43q-44 33 -92 61t-107 45l50 164q46 -7 86.5 -22t76 -35t68 -45t64.5 -51q30 34 58.5 82t55 105t49 120t38.5 127.5t25.5 127t9.5 119.5 q0 170 -86 252.5t-251 82.5q-121 0 -216.5 -38.5t-169.5 -114t-128 -186.5t-93 -256q-41 -153 -41 -265z" />
<glyph unicode="R" horiz-adv-x="1387" d="M-46 0l392 1466q84 0 157 3t136 7.5t117 8t100 3.5q125 0 212.5 -30t143 -82t81 -120.5t25.5 -145.5q0 -119 -40 -207t-110.5 -146.5t-166 -87t-206.5 -28.5q-14 0 -27.5 0.5t-27.5 1.5q74 -54 138 -133t113 -167t82 -177.5t45 -165.5h-193q-8 48 -30 110t-56.5 129 t-80 135t-100.5 127t-117 104.5t-130 68.5l50 180q35 -15 76.5 -26.5t81.5 -19t73.5 -11.5t53.5 -4q81 0 151 17.5t121 54.5t80.5 95t29.5 139q0 43 -13 83t-45.5 70t-87 48t-137.5 18q-113 0 -199 -8.5t-153 -8.5l-349 -1301h-190z" />
<glyph unicode="S" horiz-adv-x="1227" d="M-51 40l48 185q73 -30 179.5 -55t252.5 -25q81 0 154 17t128 51t87 85.5t32 121.5q0 58 -27 99.5t-71.5 73t-101 56.5t-115 51t-115 55.5t-101 70.5t-71.5 97t-27 134q0 105 46.5 185.5t128.5 135t195 82.5t247 28q97 0 192.5 -8.5t197.5 -29.5l-50 -185q-37 10 -76 20.5 t-83.5 18t-95 12.5t-111.5 5q-79 0 -149.5 -15t-124 -45.5t-84.5 -78t-31 -113.5q0 -51 27 -87.5t71.5 -64t101 -51t115 -49t115 -57t101 -76.5t71.5 -106t27 -146q0 -116 -48.5 -201.5t-134.5 -141.5t-205 -83.5t-261 -27.5q-63 0 -128 5t-123.5 14t-106.5 20t-76 23z" />
<glyph unicode="T" horiz-adv-x="1163" d="M170 1294l46 172h1122l-46 -172h-463l-347 -1294h-191l347 1294h-468z" />
<glyph unicode="U" horiz-adv-x="1401" d="M71 369q0 65 19 137l257 960h191l-267 -996q-14 -53 -14 -96q0 -111 77.5 -175t220.5 -64q95 0 168.5 26.5t128.5 75t92.5 118.5t60.5 157l255 954h191l-257 -960q-71 -263 -233.5 -395.5t-410.5 -132.5q-100 0 -187.5 26t-152 75.5t-102 122.5t-37.5 167z" />
<glyph unicode="V" horiz-adv-x="1257" d="M179 1255q0 61 2.5 114t9.5 97h184q-6 -35 -8.5 -82t-2.5 -104q0 -70 4 -151.5t11 -170t17 -182t21.5 -186t25 -182.5t28.5 -172q76 103 156 218.5t158 233t149.5 232.5t131 217t103 186.5t64.5 142.5h205q-33 -85 -93.5 -200.5t-138.5 -247.5t-167.5 -272.5t-181 -274.5 t-178.5 -254.5t-160 -212.5q0 -3 1 -4h-190q-17 75 -35 171.5t-35 204.5t-31.5 223t-25.5 229.5t-17.5 223t-6.5 203.5z" />
<glyph unicode="W" horiz-adv-x="1834" d="M177 1217q0 72 3 135t11 114h184q-7 -41 -10 -96.5t-3 -123.5q0 -106 7 -234.5t19.5 -263.5t29.5 -284.5t37 -267.5q87 117 179 248t182 265q-10 148 -15 262t-5 217q0 81 3.5 151.5t11.5 126.5h184q-8 -45 -11 -107t-3 -138q0 -105 6 -228.5t16.5 -252.5t26 -277 t33.5 -266q74 114 152.5 237.5t154.5 247.5t145 239.5t126 217t99 186t63 141.5h205q-33 -85 -92 -201t-135 -248.5t-164 -273.5t-177.5 -275.5t-175.5 -255t-158 -212.5h-186q-21 93 -40.5 199t-36.5 273q-95 -137 -184.5 -258t-162.5 -214h-186q-17 73 -33 165.5t-31 196 t-27.5 214.5t-22 222t-14.5 217.5t-5 201.5z" />
<glyph unicode="X" horiz-adv-x="1243" d="M-200 0q66 98 147.5 194.5t173 191t190 187t197.5 183.5q-45 84 -88 169t-80.5 173t-66.5 180t-45 188h189q28 -151 90 -295.5t139 -287.5q80 74 157 147.5t147 146t132 145t112 144.5h226q-69 -100 -150.5 -195.5t-170 -188t-181.5 -181t-187 -175.5q47 -88 93 -176.5 t85.5 -178.5t69.5 -182.5t47 -188.5h-189q-15 76 -39.5 151.5t-57 150t-70 148.5t-77.5 149q-83 -76 -162 -151t-151.5 -149.5t-137 -149t-117.5 -149.5h-225z" />
<glyph unicode="Y" horiz-adv-x="1279" d="M172 1466h184q12 -72 38 -152t62.5 -164.5t81 -172t94.5 -173.5q96 86 189.5 173.5t177 172t154.5 164.5t122 152h215q-62 -90 -147.5 -190t-187 -204.5t-215 -211t-231.5 -210.5l-174 -650h-194l174 651q-62 104 -118.5 210.5t-102.5 210.5t-77.5 204t-44.5 190z" />
<glyph unicode="Z" horiz-adv-x="1263" d="M-116 0l48 178q38 57 108 139.5t162.5 180t201 204t222 211.5t226 203t211.5 178h-822l46 172h1078l-46 -173q-79 -61 -167 -134t-179 -152.5t-181.5 -163t-175.5 -165t-160.5 -158t-136.5 -142t-104 -117.5t-62 -85h879l-47 -176h-1101z" />
<glyph unicode="[" horiz-adv-x="562" d="M-100 -407l40 149l420 1575l40 149h382l-39 -149h-209l-423 -1575h209l-39 -149h-381z" />
<glyph unicode="\" horiz-adv-x="576" d="M156 1466h139l123 -1466h-138z" />
<glyph unicode="]" horiz-adv-x="562" d="M-220 -407l39 149h208l423 1575h-209l39 149h382l-39 -149l-422 -1575l-40 -149h-381z" />
<glyph unicode="^" horiz-adv-x="919" d="M-57 690l553 801h139l126 -801h-174l-77 597l-391 -597h-176z" />
<glyph unicode="_" horiz-adv-x="1086" d="M-47 -407l35 130h1145l-35 -130h-1145z" />
<glyph unicode="`" horiz-adv-x="441" d="M68 1466h193l81 -289h-164z" />
<glyph unicode="a" horiz-adv-x="1117" d="M10 328q0 78 17.5 164t54 170t92 160.5t132 134.5t174.5 92.5t219 34.5q64 0 119.5 -6.5t102 -16.5t83 -22t61.5 -23l-272 -1016h-158l52 181q5 18 11.5 37t12.5 38q-25 -63 -64.5 -114.5t-89.5 -87.5t-108.5 -56t-119.5 -20q-69 0 -127 21.5t-101 65t-67 109.5t-24 154z M184 332q0 -104 42 -154.5t136 -50.5q66 0 131 41.5t123 116t106.5 177.5t81.5 226l60 223q-30 11 -74 17.5t-95 6.5q-95 0 -170 -30.5t-132 -80.5t-96.5 -114t-64.5 -131t-36.5 -131.5t-11.5 -115.5z" />
<glyph unicode="b" horiz-adv-x="1128" d="M-32 46l378 1420h173l-138 -509q-8 -26 -16.5 -54.5t-18.5 -56.5q18 43 52 85.5t80.5 76.5t104 55t120.5 21q69 0 127 -21.5t101 -65t67 -109.5t24 -154q0 -78 -17 -164t-52.5 -170t-90.5 -160.5t-131.5 -134.5t-175.5 -92.5t-222 -34.5q-27 0 -67 2t-88 9.5t-102 20.5 t-108 36zM168 159q29 -14 72 -22t97 -8q95 0 170 30.5t132 80t96.5 113t64.5 130.5t36.5 131.5t11.5 115.5q0 104 -42 154.5t-136 50.5q-66 0 -132 -44t-125 -120t-107.5 -178t-79.5 -219z" />
<glyph unicode="c" horiz-adv-x="912" d="M16 339q0 85 19 173t55.5 171t90.5 156t124 127.5t155.5 86t186.5 31.5q32 0 68 -2.5t72 -7.5t70 -12.5t61 -16.5l-40 -154q-50 17 -112 30t-140 13q-70 0 -130 -27t-108.5 -72.5t-85.5 -105t-62 -125.5t-38 -134t-13 -130q0 -59 15 -99t44.5 -65.5t74 -36.5t103.5 -11 q80 0 148.5 16.5t122.5 40.5l-44 -168q-51 -17 -106.5 -28t-126.5 -11q-203 0 -303.5 94t-100.5 267z" />
<glyph unicode="d" horiz-adv-x="1117" d="M10 328q0 78 17.5 164t54 170t92 160.5t132 134.5t174.5 92.5t219 34.5q27 0 55 -2t55 -6t51 -8.5t43 -10.5l109 409h173l-392 -1466h-158l51 179q5 18 14 41.5t14 41.5q-23 -59 -61 -110.5t-87.5 -90t-109.5 -61t-127 -22.5q-69 0 -127 21.5t-101 65t-67 109.5t-24 154z M184 332q0 -104 42 -154.5t136 -50.5q66 0 131.5 44t124 120t107 178t79.5 219l58 218q-29 14 -71 20.5t-96 6.5q-95 0 -170 -30.5t-132 -80t-96.5 -113t-64.5 -130.5t-36.5 -131.5t-11.5 -115.5z" />
<glyph unicode="e" horiz-adv-x="1039" d="M35 348q0 93 20 183.5t58 172t92.5 151.5t124 120.5t152 79.5t176.5 29q73 0 134 -16.5t105 -50t68.5 -83t24.5 -115.5q0 -76 -41 -145t-133 -122t-240 -85t-363 -33q-6 -47 -6 -91q0 -68 19 -110t51 -65t74 -31.5t88 -8.5q32 0 68 3.5t72 10.5t70.5 18t64.5 25l-44 -168 q-43 -17 -103.5 -28t-130.5 -11q-113 0 -189.5 28.5t-123.5 78t-67.5 117.5t-20.5 146zM247 582q133 1 238.5 17t178.5 45t111.5 71.5t38.5 97.5q0 65 -40.5 93t-118.5 28q-77 0 -141.5 -28.5t-115.5 -76.5t-89 -112t-62 -135z" />
<glyph unicode="f" horiz-adv-x="616" d="M-14 0l243 907h-146l42 155h145l12 43q32 120 80 195t107.5 116.5t127.5 56.5t141 15q26 0 54.5 -2t55.5 -6l-42 -154q-25 5 -47 9t-48 4q-46 0 -84.5 -12t-70 -40t-56 -72.5t-42.5 -109.5l-12 -43h241l-42 -155h-240l-243 -907h-176z" />
<glyph unicode="g" horiz-adv-x="1116" d="M-42 -398l41 154q19 -7 44 -12.5t52.5 -9t56 -5.5t55.5 -2q76 0 142 14.5t119.5 48t93 88.5t63.5 137l23 79q8 26 16 55t19 58q-18 -43 -53 -84t-82 -73.5t-103 -52t-116 -19.5q-69 0 -127 21.5t-101 65t-67 109.5t-24 154q0 78 17.5 164t54 170t92 160.5t132 134.5 t174.5 92.5t219 34.5q27 0 67 -2t88 -9.5t102 -21t108 -35.5l-264 -991q-31 -117 -88 -202.5t-135 -141t-175.5 -82t-209.5 -26.5q-26 0 -57 2t-62.5 5.5t-61 9t-53.5 12.5zM184 332q0 -104 42 -154.5t136 -50.5q66 0 132 44t125 120t107.5 178t79.5 219l58 218 q-29 14 -72 20.5t-97 6.5q-95 0 -170 -30.5t-132 -80t-96.5 -113t-64.5 -130.5t-36.5 -131.5t-11.5 -115.5z" />
<glyph unicode="h" horiz-adv-x="1060" d="M-44 0l393 1466h174l-152 -566q-5 -17 -12.5 -37.5t-15.5 -43.5q25 61 64 110.5t86.5 83.5t99.5 52.5t103 18.5q68 0 117 -20.5t80.5 -55t46 -81t14.5 -98.5q0 -29 -4 -58.5t-12 -58.5l-192 -712h-174l194 718q17 62 17 110q0 49 -24.5 78t-86.5 29q-54 0 -116 -35 t-122 -105.5t-113.5 -175.5t-90.5 -245l-100 -374h-174z" />
<glyph unicode="i" horiz-adv-x="455" d="M-44 0l284 1062h176l-285 -1062h-175zM291 1257l56 209h176l-56 -209h-176z" />
<glyph unicode="j" horiz-adv-x="455" d="M-446 -418l41 154q26 -5 48 -9t48 -4q45 0 83 9.5t69.5 35t56 71.5t44.5 118l295 1105h176l-296 -1105q-31 -116 -79 -190.5t-107 -117.5t-127.5 -59t-141.5 -16q-26 0 -54.5 2t-55.5 6zM291 1257l56 209h176l-56 -209h-176z" />
<glyph unicode="k" horiz-adv-x="1019" d="M-44 0l392 1466h176l-221 -824q63 0 133 34t139.5 91.5t134.5 133.5t117 161h187q-34 -64 -80 -131t-101.5 -130t-120.5 -118.5t-136 -97.5q80 -113 126.5 -262.5t46.5 -322.5h-169q-5 87 -15.5 158t-28.5 132t-46.5 116t-69.5 110q-77 -24 -157 -24l-132 -492h-175z" />
<glyph unicode="l" horiz-adv-x="460" d="M-44 0l392 1466h176l-393 -1466h-175z" />
<glyph unicode="m" horiz-adv-x="1636" d="M-44 0l285 1062h158l-48 -167q-5 -17 -13 -40.5t-13 -40.5q28 66 69 116.5t89 84.5t100 51.5t103 17.5q65 0 112 -19.5t77 -52t44 -75.5t14 -89q0 -3 -0.5 -9t-2.5 -13q30 73 74 122.5t92.5 79.5t97 43t88.5 13q68 0 115.5 -20.5t77 -55t42.5 -81t13 -98.5 q0 -29 -4 -58.5t-12 -58.5l-192 -712h-174l194 718q17 62 17 110q0 24 -4.5 44t-15.5 34t-30.5 21.5t-50.5 7.5q-50 0 -109.5 -35t-118.5 -105.5t-112 -175.5t-91 -245l-101 -374h-174l194 718q17 62 17 110q0 24 -4.5 44t-15.5 34t-30.5 21.5t-50.5 7.5q-50 0 -109.5 -35 t-119 -105.5t-113 -175.5t-90.5 -245l-100 -374h-174z" />
<glyph unicode="n" horiz-adv-x="1060" d="M-44 0l285 1062h158l-47 -171q-5 -17 -13 -40.5t-13 -40.5q27 66 69 117t91 86t102.5 53t104.5 18q68 0 117.5 -20.5t81.5 -55t47 -81t15 -98.5q0 -29 -4 -58.5t-12 -58.5l-192 -712h-174l194 718q17 62 17 110q0 49 -24.5 78t-86.5 29q-54 0 -116 -35t-122 -105.5 t-113.5 -175.5t-90.5 -245l-100 -374h-174z" />
<glyph unicode="o" horiz-adv-x="1087" d="M26 331q0 27 6 73.5t19.5 104.5t36 123.5t56.5 129t80 122t106 103t135 71t168 26.5q96 0 163 -26t109.5 -71.5t62 -107.5t19.5 -133q0 -80 -16.5 -168t-50 -173.5t-83.5 -162.5t-117 -136t-150.5 -93.5t-183.5 -34.5q-94 0 -162 25t-112 71t-65 111.5t-21 145.5z M198 323q0 -92 45 -143.5t150 -51.5q66 0 119 24t94.5 63.5t73.5 90.5t55 105.5t38 109t24.5 100t13 78.5t3.5 45q0 92 -47.5 141.5t-150.5 49.5q-63 0 -114 -23t-92.5 -61t-73 -87.5t-55 -103t-39.5 -107t-26 -99.5t-14 -80.5t-4 -50.5z" />
<glyph unicode="p" horiz-adv-x="1128" d="M-153 -407l392 1469h158l-57 -200l-19 -59q23 64 62 116t89 88.5t109 56.5t122 20q69 0 127 -21.5t101 -65t67 -109.5t24 -154q0 -78 -17 -164t-52.5 -170t-90.5 -160.5t-131.5 -134.5t-175.5 -92.5t-222 -34.5q-27 0 -55.5 2t-55.5 6t-51.5 8.5t-43.5 10.5l-109 -412 h-171zM168 159q29 -14 72 -22t97 -8q95 0 170 30.5t132 80t96.5 113t64.5 130.5t36.5 131.5t11.5 115.5q0 104 -42 154.5t-136 50.5q-66 0 -132 -44t-125 -120t-107.5 -178t-79.5 -219z" />
<glyph unicode="q" horiz-adv-x="1116" d="M10 328q0 78 17.5 164t54 170t92 160.5t132 134.5t174.5 92.5t219 34.5q27 0 67 -2t88 -9.5t102 -21t108 -35.5l-379 -1423h-173l134 501q7 26 16 55t20 56q-18 -43 -51 -83.5t-78.5 -72.5t-102 -51.5t-121.5 -19.5q-69 0 -127 21.5t-101 65t-67 109.5t-24 154zM184 332 q0 -104 42 -155t136 -51q66 0 132 44t124.5 120.5t107 178.5t79.5 219l58 218q-29 14 -71.5 20.5t-96.5 6.5q-95 0 -170 -30.5t-132 -80t-96.5 -113t-64.5 -130.5t-36.5 -131.5t-11.5 -115.5z" />
<glyph unicode="r" horiz-adv-x="779" d="M-44 0l285 1062h158l-53 -186q-5 -17 -13 -40.5t-13 -40.5q27 67 70 120.5t94 91t106 57.5t106 20q38 0 72 -4.5t54 -11.5l-43 -165q-26 14 -56.5 18.5t-59.5 4.5q-55 0 -115.5 -34t-118.5 -102.5t-110 -172t-89 -243.5l-100 -374h-174z" />
<glyph unicode="s" horiz-adv-x="891" d="M-81 28l41 156q54 -22 131.5 -39t184.5 -17q129 0 197 45.5t68 146.5q0 40 -19 68.5t-50 49.5t-70.5 37.5t-81 33.5t-81 37t-70.5 48t-50 66t-19 92q0 85 36 148t98 103.5t145 60.5t177 20q90 0 161.5 -11.5t117.5 -27.5l-40 -151q-61 19 -122 29.5t-138 10.5 q-58 0 -105.5 -10t-81.5 -29.5t-52.5 -49t-18.5 -68.5q0 -45 32.5 -72.5t81.5 -49.5t105.5 -43.5t105.5 -55t81.5 -84t32.5 -130.5q0 -100 -35 -169t-97 -112.5t-146.5 -63t-182.5 -19.5q-46 0 -95.5 4t-95.5 10.5t-84.5 15.5t-60.5 20z" />
<glyph unicode="t" horiz-adv-x="656" d="M39 229q0 66 22 148l142 530h-149l42 155h149l66 244l197 78l-87 -322h232l-42 -155h-231l-146 -546q-10 -38 -15 -67.5t-5 -53.5q0 -34 9.5 -56t28 -34.5t45 -17.5t60.5 -5q52 0 103 13l-42 -154q-14 -2 -25.5 -3.5t-22.5 -2.5t-22 -1.5t-24 -0.5q-59 0 -111 13.5 t-90.5 43t-61 77.5t-22.5 117z" />
<glyph unicode="u" horiz-adv-x="1071" d="M29 233v11q-1 24 3 48q4 30 13 58l191 712h174l-193 -718q-17 -62 -17 -110q0 -49 24 -78t86 -29q54 0 115.5 35t121.5 105.5t113.5 175.5t91.5 245l100 374h174l-285 -1062h-158l53 194q4 14 10.5 34t12.5 34q-27 -63 -68 -115.5t-91 -90t-105 -58t-109 -20.5 q-68 0 -117 20.5t-80 55t-45.5 81t-14.5 98.5z" />
<glyph unicode="v" horiz-adv-x="961" d="M97 855q0 60 3 112.5t8 94.5h172q-6 -47 -9 -101.5t-3 -114.5q0 -74 4 -154t11 -162t16.5 -164t20.5 -160q46 65 95.5 139.5t98 152t95 155.5t87.5 151.5t74 139.5t54 118h187q-25 -61 -66.5 -142t-94.5 -173.5t-114 -192.5t-124.5 -198t-127 -189t-120.5 -167h-179 q-20 87 -36 194.5t-27.5 221t-18 227t-6.5 212.5z" />
<glyph unicode="w" horiz-adv-x="1447" d="M112 779q0 84 3 155.5t11 127.5h172q-8 -60 -11.5 -130.5t-3.5 -149.5q0 -139 10 -289t28 -320q70 97 143 199.5t139 204.5q-3 115 -3 197q0 85 3 158t11 130h172q-8 -59 -11.5 -129.5t-3.5 -148.5q0 -137 10 -284.5t27 -315.5q75 128 150.5 249t142.5 233t121.5 214 t87.5 182h187q-25 -61 -66.5 -142t-94.5 -173.5t-114 -192.5t-124.5 -198t-127 -189t-120.5 -167h-179q-17 75 -29.5 164.5t-21.5 186.5q-68 -97 -134.5 -186.5t-123.5 -164.5h-179q-18 79 -31 175t-22 198.5t-13.5 206.5t-4.5 199z" />
<glyph unicode="x" horiz-adv-x="976" d="M-144 0q52 78 111.5 150t123.5 139.5t130 131t132 125.5q-30 58 -59 118.5t-54.5 124t-46.5 131.5t-35 142h172q18 -104 58 -202.5t90 -197.5q106 100 200.5 197.5t165.5 202.5h197q-53 -77 -111.5 -147.5t-121.5 -137t-128.5 -129.5t-130.5 -124q32 -62 63 -125.5 t57.5 -128.5t47 -132.5t32.5 -137.5h-169q-24 112 -65.5 211.5t-90.5 196.5q-106 -100 -202 -199.5t-173 -208.5h-193z" />
<glyph unicode="y" horiz-adv-x="985" d="M-318 -407l42 155q14 -8 30 -12t30 -6t25 -2.5t16 -0.5q29 0 64 13.5t79 46t98 87.5t121 138q-18 87 -34 193.5t-27 218.5t-17.5 223.5t-6.5 208.5q0 60 3 112t8 94h170q-6 -45 -8.5 -95t-2.5 -106q0 -76 4.5 -159t12 -168t18 -170t22.5 -165q78 109 156 227t146.5 232 t123.5 218.5t88 185.5h189q-25 -60 -66 -140.5t-93 -172.5t-112.5 -191t-124.5 -196.5t-128.5 -188.5t-125.5 -167q-92 -115 -164.5 -197t-139.5 -134.5t-136 -77t-154 -24.5q-5 0 -17.5 0.5t-28 2.5t-32 6t-28.5 11z" />
<glyph unicode="z" horiz-adv-x="985" d="M-102 0l39 145q41 61 102 133.5t132 148t145.5 150t143.5 138.5t126 114t92 77h-511l42 156h779l-37 -136q-63 -43 -137.5 -104t-152.5 -131t-155.5 -144.5t-146.5 -146t-126.5 -135t-94.5 -110.5q63 0 147.5 -3.5t174 -11t176 -20t153.5 -30.5l-42 -155 q-86 24 -189.5 37.5t-214.5 19.5t-224.5 7t-220.5 1z" />
<glyph unicode="{" horiz-adv-x="666" d="M58 449l43 163q58 0 103 22.5t81 73t66.5 130.5t61.5 194q26 98 54 181.5t73.5 144.5t116 95.5t181.5 34.5h54l-41 -155h-30q-67 0 -107 -22t-66.5 -66t-44.5 -110l-42 -154q-30 -110 -62.5 -189.5t-71.5 -134.5t-85 -87.5t-102 -48.5q30 -14 52.5 -32t38 -42t23.5 -55.5 t8 -72.5q0 -42 -7.5 -87.5t-18 -92.5t-23.5 -92.5t-23.5 -86.5t-18 -76t-7.5 -59q0 -49 27.5 -73t98.5 -24h30l-41 -155h-37q-54 0 -99.5 13t-78.5 39t-52 65.5t-19 93.5q0 8 0.5 15.5t1.5 15.5q7 60 23 121t33 122.5t30 123.5t13 124q0 76 -32.5 109.5t-103.5 33.5z" />
<glyph unicode="|" horiz-adv-x="450" d="M-106 -427l512 1915h150l-513 -1915h-149z" />
<glyph unicode="}" horiz-adv-x="666" d="M-176 -427l41 155h30q67 0 107 22t66.5 66t44.5 110l42 154q30 110 62.5 189.5t71.5 134.5t85 87.5t102 48.5q-30 14 -52.5 32t-38 42t-23.5 55.5t-8 72.5t7.5 87t18 93t23.5 92.5t23.5 86.5t18 75.5t7.5 59.5q0 49 -27.5 73t-98.5 24h-30l41 155h37q54 0 99.5 -13 t78.5 -39t52 -65.5t19 -93.5q0 -8 -0.5 -15.5t-1.5 -15.5q-7 -60 -23 -121t-33 -122.5t-30 -124t-13 -123.5q0 -76 32.5 -109.5t103.5 -33.5l-43 -163q-59 0 -103.5 -22.5t-80.5 -73t-66.5 -130.5t-61.5 -194q-26 -98 -54 -181.5t-73.5 -144.5t-116 -95.5t-181.5 -34.5h-54z " />
<glyph unicode="~" horiz-adv-x="1082" d="M50 390v185q101 120 266 120q64 0 127 -21t123 -46t115 -46t103 -21q30 0 62 10t64 28t63.5 43.5t58.5 55.5v-192q-59 -59 -122.5 -86.5t-143.5 -27.5q-56 0 -116.5 21t-121.5 46t-119 46t-109 21q-32 0 -59 -6t-55.5 -21t-61 -41.5t-74.5 -67.5z" />
<glyph unicode="&#xad;" horiz-adv-x="704" d="M25 440l49 181h492l-49 -181h-492z" />
<glyph unicode="&#x401;" horiz-adv-x="1272" d="M-46 0l392 1466h979l-46 -172h-788l-118 -439h695l-46 -174h-695l-136 -505h811l-47 -176h-1001zM587 1555l53 197h182l-53 -197h-182zM915 1555l53 197h182l-53 -197h-182z" />
<glyph unicode="&#x402;" horiz-adv-x="1569" d="M160 1294l46 172h1122l-46 -172h-463l-118 -441q72 24 143 34t126 10q93 0 172 -24t136.5 -71t90 -116t32.5 -159q0 -107 -44.5 -202.5t-130.5 -167.5t-212.5 -114.5t-291.5 -42.5l47 176q109 0 191.5 25t137.5 70.5t83 109.5t28 141q0 106 -71 155.5t-195 49.5 q-23 0 -59 -3t-76.5 -10t-81.5 -18t-75 -27l-179 -669h-191l347 1294h-468z" />
<glyph unicode="&#x403;" horiz-adv-x="1050" d="M-46 0l392 1466h900l-46 -172h-708l-347 -1294h-191zM694 1581l234 289h223l-264 -289h-193z" />
<glyph unicode="&#x404;" horiz-adv-x="1203" d="M32 483q0 131 42 287q50 186 129.5 321.5t191 223.5t255 130.5t321.5 42.5q67 0 118 -3t91 -8t71 -10.5t58 -11.5l-47 -177q-40 12 -85.5 19.5t-91.5 12t-91 6.5t-84 2q-108 0 -200 -26t-167.5 -81.5t-135.5 -143.5t-105 -212h677l-47 -174h-681q-14 -58 -20 -109t-6 -96 q0 -169 91.5 -248.5t274.5 -79.5q54 0 100.5 3t90 9t85.5 14t85 19l-50 -185q-32 -6 -66.5 -11t-72.5 -9.5t-81.5 -7t-94.5 -2.5q-140 0 -244 35t-173 100t-103.5 159t-34.5 211z" />
<glyph unicode="&#x405;" horiz-adv-x="1227" d="M-51 40l48 185q73 -30 179.5 -55t252.5 -25q81 0 154 17t128 51t87 85.5t32 121.5q0 58 -27 99.5t-71.5 73t-101 56.5t-115 51t-115 55.5t-101 70.5t-71.5 97t-27 134q0 105 46.5 185.5t128.5 135t195 82.5t247 28q97 0 192.5 -8.5t197.5 -29.5l-50 -185q-37 10 -76 20.5 t-83.5 18t-95 12.5t-111.5 5q-79 0 -149.5 -15t-124 -45.5t-84.5 -78t-31 -113.5q0 -51 27 -87.5t71.5 -64t101 -51t115 -49t115 -57t101 -76.5t71.5 -106t27 -146q0 -116 -48.5 -201.5t-134.5 -141.5t-205 -83.5t-261 -27.5q-63 0 -128 5t-123.5 14t-106.5 20t-76 23z" />
<glyph unicode="&#x406;" horiz-adv-x="486" d="M-46 0l392 1466h191l-393 -1466h-190z" />
<glyph unicode="&#x407;" horiz-adv-x="486" d="M-46 0l392 1466h191l-393 -1466h-190zM225 1635l53 197h182l-53 -197h-182zM553 1635l53 197h182l-53 -197h-182z" />
<glyph unicode="&#x408;" horiz-adv-x="486" d="M-465 -293l47 176q17 -3 34 -4t35 -1q58 0 111.5 15.5t100 55t85.5 108.5t67 176l331 1233h191l-343 -1280q-34 -127 -92 -218.5t-134 -150.5t-168 -87t-195 -28q-18 0 -35.5 1t-34.5 4z" />
<glyph unicode="&#x409;" horiz-adv-x="2197" d="M-134 -22l42 178q47 2 97.5 28t104 85.5t110.5 157.5t118 242.5t126 341.5t134 455h868l-46 -172l-300 -1118h348q92 0 160 14.5t116 44.5t78.5 76.5t48.5 111.5q12 45 12 86q0 50 -18 90.5t-51 69t-80.5 43.5t-106.5 15q-78 0 -150.5 -16.5t-144.5 -42.5l49 184 q63 22 134 33.5t133 11.5q99 0 178 -26.5t134.5 -75.5t85.5 -119t30 -157q0 -62 -13.5 -125t-43.5 -120.5t-78 -107.5t-117.5 -87t-162 -58t-210.5 -21h-570l347 1294h-485q-78 -270 -152 -473t-146 -349t-143 -241.5t-142.5 -151.5t-144.5 -78.5t-149 -22.5z" />
<glyph unicode="&#x40a;" horiz-adv-x="2234" d="M-46 0l392 1466h191l-164 -611h725l164 611h192l-346 -1290h348q92 0 160 14.5t116 44.5t78.5 76.5t48.5 111.5q12 45 12 86q0 50 -18 90.5t-51 69t-80.5 43.5t-106.5 15q-78 0 -150.5 -16.5t-144.5 -42.5l49 184q63 22 134 33.5t133 11.5q99 0 178 -26.5t134.5 -75.5 t85.5 -119t30 -157q0 -62 -13.5 -125t-43.5 -120.5t-78 -107.5t-117.5 -87t-162 -58t-210.5 -21h-569l182 681h-725l-183 -681h-190z" />
<glyph unicode="&#x40b;" horiz-adv-x="1650" d="M160 1294l46 172h1122l-46 -172h-463l-107 -398q55 24 103.5 39t91.5 23t81.5 10.5t73.5 2.5q201 0 301 -85t100 -246q0 -87 -28 -190l-121 -450h-190l128 476q11 43 17.5 79.5t6.5 67.5q0 90 -54 132.5t-176 42.5q-95 0 -186 -15.5t-194 -59.5l-194 -723h-191l347 1294 h-468z" />
<glyph unicode="&#x40c;" horiz-adv-x="1305" d="M-46 0l392 1466h191l-164 -611h18q36 0 91.5 16t122.5 49t142.5 83t151 117.5t147.5 154t133 191.5h216q-70 -123 -150.5 -225.5t-166.5 -185t-173.5 -146t-171.5 -108.5q65 -84 124 -179.5t104 -198t72 -209.5t27 -214h-190q-1 73 -21.5 161.5t-60 183.5t-97.5 192 t-134 186q-62 -21 -115.5 -31.5t-96.5 -10.5h-18l-183 -681h-190zM659 1581l234 289h223l-264 -289h-193z" />
<glyph unicode="&#x40e;" horiz-adv-x="1254" d="M77 0q85 92 189 209.5t216 249.5q-49 117 -96 240t-84 244.5t-59.5 237.5t-22.5 218q0 34 3 67h188q-2 -14 -3 -29.5t-1 -32.5q0 -75 16.5 -167t45 -194t66 -210t79.5 -216q102 124 198.5 247t177.5 235t140.5 206.5t87.5 160.5h206q-26 -63 -74 -144t-111.5 -174.5 t-139 -195.5t-157.5 -206.5t-167 -208.5t-166.5 -200t-157 -182t-138.5 -155h-236zM603 1835q0 17 3 35h152q-1 -6 -1 -11.5v-10.5q0 -32 10.5 -51.5t29 -31t43.5 -15.5t54 -4q31 0 60.5 5t56 18.5t48.5 37.5t39 63h161q-23 -58 -58 -105t-81.5 -80t-104 -51t-125.5 -18 q-62 0 -114.5 15.5t-90.5 44t-60 69t-22 90.5z" />
<glyph unicode="&#x40f;" horiz-adv-x="1403" d="M-52 0l393 1466h192l-347 -1294h695l347 1294h191l-392 -1466h-436l-63 -232h-186l63 232h-457z" />
<glyph unicode="&#x410;" horiz-adv-x="1348" d="M-198 0q49 103 115.5 226t144 254.5t163 267t171.5 264t170 244.5t159 210h276q25 -94 46 -207.5t37.5 -239t29.5 -258t21.5 -264.5t12.5 -258.5t4 -238.5h-189q0 60 -2 137t-5.5 164.5t-9.5 184t-14 195.5h-470l110 174h344q-12 117 -27 228t-35 211h-46 q-75 -100 -152.5 -213t-154 -230t-149 -235t-136.5 -228.5t-117 -209.5t-91 -178h-206z" />
<glyph unicode="&#x411;" horiz-adv-x="1315" d="M-44 0l390 1466h960l-47 -173h-766l-299 -1117h348q92 0 160 14.5t116 44.5t78.5 76.5t48.5 111.5q12 45 12 86q0 50 -18 90.5t-51 69t-80.5 43.5t-106.5 15q-78 0 -150.5 -16.5t-144.5 -42.5l49 184q63 22 134 33.5t133 11.5q99 0 178 -26.5t134.5 -75.5t85.5 -119 t30 -157q0 -62 -13.5 -125t-43.5 -120.5t-78 -107.5t-117.5 -87t-162 -58t-210.5 -21h-569z" />
<glyph unicode="&#x412;" horiz-adv-x="1352" d="M-46 0l392 1466q71 0 136.5 3.5t129.5 7.5t128.5 7.5t134.5 3.5q103 0 182.5 -24t133.5 -68t81.5 -105.5t27.5 -136.5q0 -70 -18.5 -133t-56.5 -114.5t-95 -88t-134 -54.5q45 -15 79.5 -42.5t58.5 -63t36.5 -77.5t12.5 -87q0 -92 -24.5 -164.5t-68 -127.5t-103.5 -93 t-131.5 -62.5t-151 -35.5t-162.5 -11h-588zM190 176h369q83 0 160.5 12.5t137.5 46.5t96 95t36 158q0 43 -18 79t-52.5 61t-85.5 39t-118 14h-309l46 174h269q76 0 145.5 15t122 48.5t84 88t31.5 134.5q0 95 -61 138t-174 43q-77 0 -134.5 -3.5t-101.5 -7t-78 -7t-63 -3.5z " />
<glyph unicode="&#x413;" horiz-adv-x="1050" d="M-46 0l392 1466h900l-46 -172h-708l-347 -1294h-191z" />
<glyph unicode="&#x414;" horiz-adv-x="1455" d="M-238 -232l109 408h120q42 20 85.5 62t88.5 112t93 170.5t99 237t106 312t114 396.5h888l-346 -1290h172l-109 -408h-192l62 232h-1037l-61 -232h-192zM248 176h679l300 1118h-504q-64 -222 -122.5 -398.5t-115.5 -313.5t-115 -237t-122 -169z" />
<glyph unicode="&#x415;" horiz-adv-x="1272" d="M-46 0l392 1466h979l-46 -172h-788l-118 -439h695l-46 -174h-695l-136 -505h811l-47 -176h-1001z" />
<glyph unicode="&#x416;" horiz-adv-x="1960" d="M-149 0q26 57 68.5 123.5t97.5 137.5t121.5 143.5t140.5 142t153 133t160 115.5q-52 43 -99 105.5t-84 145.5t-61.5 187.5t-31.5 232.5h184q16 -175 57 -293t97 -189t122 -101.5t132 -30.5l165 614h192l-165 -614q61 0 138 30.5t168.5 101.5t195.5 189t220 293h206 q-86 -144 -173 -258t-172.5 -200.5t-169.5 -147t-163 -99.5q77 -78 138 -173t103.5 -196.5t65 -202.5t22.5 -189h-185q-2 80 -23.5 172.5t-62 186t-99.5 181.5t-135 159q-32 -7 -61 -10.5t-58 -3.5l-183 -685h-192l183 685q-55 0 -112 19q-77 -48 -151 -105t-142 -118.5 t-129 -125.5t-112.5 -126.5t-92 -120.5t-68.5 -108h-205z" />
<glyph unicode="&#x417;" horiz-adv-x="1150" d="M-147 70l49 185q69 -42 178.5 -71.5t255.5 -29.5q95 0 178 21.5t144.5 64t96.5 106.5t35 150q0 50 -21 85.5t-60.5 57.5t-97.5 32t-133 10h-220l46 174h220q78 0 142 12t112 38t80 67t47 99q5 19 7.5 35.5t2.5 32.5q0 48 -21.5 82t-59 55.5t-88 31.5t-108.5 10 q-122 0 -220 -19.5t-187 -50.5l50 185q68 22 156.5 38.5t210.5 16.5q103 0 188.5 -21.5t147.5 -63t96.5 -103t34.5 -141.5q0 -61 -19.5 -124.5t-58 -118t-95 -94.5t-130.5 -53q85 -34 129.5 -99t44.5 -162q0 -122 -49 -220t-136 -167t-207.5 -106t-264.5 -37 q-68 0 -140.5 7.5t-138 20.5t-118 29.5t-79.5 34.5z" />
<glyph unicode="&#x418;" horiz-adv-x="1436" d="M-46 0l392 1466h192l-264 -985q-2 -7 -6 -20.5t-9 -29.5t-10.5 -33t-10.5 -31q6 11 14.5 27t17.5 32.5t16.5 30t12.5 20.5q67 103 152 208t177 205.5t187 192t181 167t159 131.5t122 85h210l-393 -1466h-192l334 1248q-51 -41 -127.5 -111t-169 -162.5t-196 -204.5 t-207.5 -237t-204 -260t-186 -273h-192z" />
<glyph unicode="&#x419;" horiz-adv-x="1436" d="M-46 0l392 1466h192l-264 -985q-2 -7 -6 -20.5t-9 -29.5t-10.5 -33t-10.5 -31q6 11 14.5 27t17.5 32.5t16.5 30t12.5 20.5q67 103 152 208t177 205.5t187 192t181 167t159 131.5t122 85h210l-393 -1466h-192l334 1248q-51 -41 -127.5 -111t-169 -162.5t-196 -204.5 t-207.5 -237t-204 -260t-186 -273h-192zM659 1795q0 17 3 35h152q-1 -6 -1 -11.5v-10.5q0 -32 10.5 -51.5t29 -31t43.5 -15.5t54 -4q31 0 60.5 5t56 18.5t48.5 37.5t39 63h161q-23 -58 -58 -105t-81.5 -80t-104 -51t-125.5 -18q-62 0 -114.5 15.5t-90.5 44t-60 69t-22 90.5z " />
<glyph unicode="&#x41a;" horiz-adv-x="1305" d="M-46 0l392 1466h191l-164 -611h18q36 0 91.5 16t122.5 49t142.5 83t151 117.5t147.5 154t133 191.5h216q-70 -123 -150.5 -225.5t-166.5 -185t-173.5 -146t-171.5 -108.5q65 -84 124 -179.5t104 -198t72 -209.5t27 -214h-190q-1 73 -21.5 161.5t-60 183.5t-97.5 192 t-134 186q-62 -21 -115.5 -31.5t-96.5 -10.5h-18l-183 -681h-190z" />
<glyph unicode="&#x41b;" horiz-adv-x="1354" d="M-194 -22l42 178q47 2 97.5 28t104 85.5t110.5 157.5t118 242.5t126 341.5t134 455h867l-393 -1466h-191l347 1294h-485q-78 -270 -152 -473t-146 -349t-143 -241.5t-142.5 -151.5t-144.5 -78.5t-149 -22.5z" />
<glyph unicode="&#x41c;" horiz-adv-x="1688" d="M-46 0l392 1466h193q27 -37 57 -94.5t58.5 -127t55 -147t48 -154t36.5 -148t20 -128.5q41 67 94 140.5t112.5 148.5t123.5 148t127.5 139.5t124.5 123.5t114 99h229l-393 -1466h-191l319 1189l13 41q-69 -62 -150.5 -152.5t-165.5 -196t-165.5 -220.5t-148.5 -227h-171 q-6 72 -19.5 152t-32 160t-39.5 156t-43 140.5t-43 113t-38 73.5q-1 -7 -3.5 -18t-5.5 -23l-318 -1188h-190z" />
<glyph unicode="&#x41d;" horiz-adv-x="1403" d="M-46 0l392 1466h191l-164 -611h726l164 611h191l-393 -1466h-191l183 681h-726l-183 -681h-190z" />
<glyph unicode="&#x41e;" horiz-adv-x="1464" d="M49 477q0 60 9.5 124t27.5 132q42 157 105 294.5t156.5 240t222.5 161.5t303 59q140 0 241.5 -37t167.5 -103.5t98 -158.5t32 -201q0 -120 -36 -255q-28 -104 -65 -201t-85 -180.5t-109.5 -152.5t-140 -118t-174.5 -76t-214 -27q-140 0 -241.5 37t-167.5 103.5t-98 158 t-32 200.5zM242 468q0 -164 86 -247t263 -83q121 0 213 38.5t162.5 114t121.5 186.5t90 256q41 155 41 267q0 328 -349 328q-121 0 -213 -38.5t-162.5 -114t-121.5 -186.5t-90 -256q-41 -153 -41 -265z" />
<glyph unicode="&#x41f;" horiz-adv-x="1374" d="M-46 0l392 1466h1079l-393 -1466h-192l347 1294h-695l-347 -1294h-191z" />
<glyph unicode="&#x420;" horiz-adv-x="1335" d="M-46 0l392 1466q84 0 157 3.5t136 7.5t117 7.5t100 3.5q120 0 207.5 -27.5t144.5 -78t84 -121t27 -155.5q0 -127 -46 -220.5t-126 -155t-188 -92t-231 -30.5q-80 0 -163.5 12.5t-156.5 40.5l49 177q31 -18 71.5 -30t81 -18.5t75.5 -9.5t55 -3q79 0 150 19.5t124 58.5 t84 99t31 141q0 50 -13.5 91t-46.5 70.5t-87.5 46t-136.5 16.5q-113 0 -199 -9t-153 -9l-349 -1301h-190z" />
<glyph unicode="&#x421;" horiz-adv-x="1228" d="M51 462q0 122 39 271q50 187 121 328.5t172 236.5t237.5 142.5t317.5 47.5q80 0 181.5 -11.5t212.5 -34.5l-50 -177q-109 26 -205 42.5t-182 16.5q-108 0 -200.5 -30t-169 -99.5t-137 -182.5t-104.5 -279q-40 -150 -40 -260q0 -174 97 -252t281 -78q39 0 85 2.5t94.5 8 t97.5 14t96 20.5l-47 -177q-34 -6 -65 -12.5t-71 -11t-93 -7.5t-130 -3q-132 0 -232.5 32.5t-168.5 94.5t-102.5 152t-34.5 206z" />
<glyph unicode="&#x422;" horiz-adv-x="1163" d="M170 1294l46 172h1122l-46 -172h-463l-347 -1294h-191l347 1294h-468z" />
<glyph unicode="&#x423;" horiz-adv-x="1254" d="M77 0q85 92 189 209.5t216 249.5q-49 117 -96 240t-84 244.5t-59.5 237.5t-22.5 218q0 34 3 67h188q-2 -14 -3 -29.5t-1 -32.5q0 -75 16.5 -167t45 -194t66 -210t79.5 -216q102 124 198.5 247t177.5 235t140.5 206.5t87.5 160.5h206q-26 -63 -74 -144t-111.5 -174.5 t-139 -195.5t-157.5 -206.5t-167 -208.5t-166.5 -200t-157 -182t-138.5 -155h-236z" />
<glyph unicode="&#x424;" horiz-adv-x="1807" d="M101 583q0 48 7.5 102t24.5 114q33 121 99 219t166 166.5t234.5 105.5t302.5 37h36l38 139h186l-38 -139h18q126 0 225 -29t167.5 -85t104 -137.5t35.5 -187.5q0 -95 -30 -207q-35 -129 -100.5 -226.5t-164.5 -163t-233.5 -98t-306.5 -32.5h-27l-43 -161h-186l43 161h-17 q-127 0 -227.5 26t-170 78.5t-106.5 131.5t-37 186zM287 583q0 -62 20 -111.5t64 -84t115.5 -53t173.5 -18.5h40l230 856h-21q-140 0 -241.5 -30.5t-172 -86t-114 -132t-67.5 -168.5q-13 -48 -20 -90.5t-7 -81.5zM886 316h14q140 0 240.5 26.5t169.5 77t112 124.5t69 170 q24 87 24 165q0 64 -19.5 118t-63 93t-113.5 60.5t-170 21.5h-33z" />
<glyph unicode="&#x425;" horiz-adv-x="1243" d="M-200 0q66 98 147.5 194.5t173 191t190 187t197.5 183.5q-45 84 -88 169t-80.5 173t-66.5 180t-45 188h189q28 -151 90 -295.5t139 -287.5q80 74 157 147.5t147 146t132 145t112 144.5h226q-69 -100 -150.5 -195.5t-170 -188t-181.5 -181t-187 -175.5q47 -88 93 -176.5 t85.5 -178.5t69.5 -182.5t47 -188.5h-189q-15 76 -39.5 151.5t-57 150t-70 148.5t-77.5 149q-83 -76 -162 -151t-151.5 -149.5t-137 -149t-117.5 -149.5h-225z" />
<glyph unicode="&#x426;" horiz-adv-x="1413" d="M-15 0l392 1466h192l-346 -1290h695l346 1290h192l-346 -1290h190l-109 -408h-193l62 232h-1075z" />
<glyph unicode="&#x427;" horiz-adv-x="1298" d="M167 826q0 87 28 190l121 450h190l-128 -476q-11 -43 -17.5 -79.5t-6.5 -67.5q0 -90 54 -132.5t176 -42.5q48 0 94 3.5t92.5 12t94.5 23t100 36.5l194 723h190l-393 -1466h-190l153 570q-56 -24 -104.5 -39t-91.5 -23t-81.5 -10.5t-73.5 -2.5q-201 0 -301 85t-100 246z " />
<glyph unicode="&#x428;" horiz-adv-x="1902" d="M-46 0l392 1466h191l-346 -1290h517l346 1290h191l-346 -1290h517l346 1290h191l-393 -1466h-1606z" />
<glyph unicode="&#x429;" horiz-adv-x="1970" d="M-46 0l392 1466h191l-346 -1290h517l346 1290h191l-346 -1290h517l346 1290h191l-346 -1290h200l-109 -408h-192l62 232h-1614z" />
<glyph unicode="&#x42a;" horiz-adv-x="1414" d="M81 0l48 178l298 1116h-288l46 172h480l-346 -1290h348q92 0 160 14.5t116 44.5t78.5 76.5t48.5 111.5q12 45 12 86q0 50 -18 90.5t-51 69t-80.5 43.5t-106.5 15q-78 0 -150.5 -16.5t-144.5 -42.5l49 184q63 22 134 33.5t133 11.5q99 0 178 -26.5t134.5 -75.5t85.5 -119 t30 -157q0 -62 -13.5 -125t-43.5 -120.5t-78 -107.5t-117.5 -87t-162 -58t-210.5 -21h-569z" />
<glyph unicode="&#x42b;" horiz-adv-x="1715" d="M-46 0l392 1466h192l-346 -1290h348q92 0 160 14.5t116 44.5t78.5 76.5t48.5 111.5q12 45 12 86q0 50 -18 90.5t-51 69t-80.5 43.5t-106.5 15q-78 0 -150.5 -16.5t-144.5 -42.5l49 184q63 22 134 33.5t133 11.5q99 0 178 -26.5t134.5 -75.5t85.5 -119t30 -157 q0 -62 -13.5 -125t-43.5 -120.5t-78 -107.5t-117.5 -87t-162 -58t-210.5 -21h-569zM1183 0l392 1466h191l-393 -1466h-190z" />
<glyph unicode="&#x42c;" horiz-adv-x="1305" d="M-46 0l392 1466h192l-346 -1290h348q92 0 160 14.5t116 44.5t78.5 76.5t48.5 111.5q12 45 12 86q0 50 -18 90.5t-51 69t-80.5 43.5t-106.5 15q-78 0 -150.5 -16.5t-144.5 -42.5l49 184q63 22 134 33.5t133 11.5q99 0 178 -26.5t134.5 -75.5t85.5 -119t30 -157 q0 -62 -13.5 -125t-43.5 -120.5t-78 -107.5t-117.5 -87t-162 -58t-210.5 -21h-569z" />
<glyph unicode="&#x42d;" horiz-adv-x="1240" d="M-113 11l47 177q40 -12 85.5 -20t91.5 -12.5t91 -6t84 -1.5q114 0 210 29t174.5 92t139 162t104.5 240h-680l47 174h676q7 40 10.5 76t3.5 69q0 169 -91.5 248.5t-274.5 79.5q-54 0 -101 -3t-90.5 -9t-85 -14.5t-84.5 -18.5l50 185q64 11 138.5 20.5t176.5 9.5 q139 0 243.5 -35t173.5 -100t103.5 -159t34.5 -211q0 -131 -42 -287q-50 -186 -129.5 -321.5t-191 -223.5t-255 -130.5t-321.5 -42.5q-68 0 -118.5 3t-90.5 8t-71 10.5t-58 11.5z" />
<glyph unicode="&#x42e;" horiz-adv-x="1959" d="M-46 0l392 1466h192l-166 -621h290q40 130 100.5 247t150.5 205t213 139.5t290 51.5q130 0 224 -34.5t155 -97.5t89.5 -151.5t28.5 -196.5q0 -72 -11.5 -149t-34.5 -162q-26 -95 -61 -185.5t-82 -170.5t-108 -146.5t-139 -115t-175 -75t-216 -26.5q-132 0 -225.5 33.5 t-153.5 94.5t-87.5 147t-27.5 191q0 53 6 109.5t19 117.5h-292l-180 -671h-191zM785 443q0 -147 74.5 -221t237.5 -74q118 0 208.5 35.5t159.5 107.5t120.5 182t91.5 260q44 164 44 279q0 153 -76 229.5t-235 76.5q-126 0 -217.5 -37t-159 -110.5t-115.5 -183t-87 -254.5 q-23 -85 -34.5 -157t-11.5 -133z" />
<glyph unicode="&#x42f;" horiz-adv-x="1320" d="M-181 0q52 90 119.5 180t149 173t178 156t206.5 130q-57 8 -109.5 34t-93 68t-64.5 99t-24 127q0 47 10.5 102.5t37 111t71.5 107t114.5 91t165.5 63.5t224 24h567l-393 -1466h-192l347 1294h-355q-89 0 -153.5 -16.5t-109 -43.5t-71.5 -62t-42 -72.5t-20 -73.5t-5 -66 q0 -43 18 -79t51.5 -61.5t81.5 -40t108 -14.5q24 0 59.5 4t76 11.5t81.5 17.5t75 22l-48 -180q-90 -18 -178.5 -56t-171 -90t-157.5 -113.5t-137.5 -127t-111.5 -130.5t-79 -123h-226z" />
<glyph unicode="&#x430;" horiz-adv-x="1117" d="M10 328q0 78 17.5 164t54 170t92 160.5t132 134.5t174.5 92.5t219 34.5q64 0 119.5 -6.5t102 -16.5t83 -22t61.5 -23l-272 -1016h-158l52 181q5 18 11.5 37t12.5 38q-25 -63 -64.5 -114.5t-89.5 -87.5t-108.5 -56t-119.5 -20q-69 0 -127 21.5t-101 65t-67 109.5t-24 154z M184 332q0 -104 42 -154.5t136 -50.5q66 0 131 41.5t123 116t106.5 177.5t81.5 226l60 223q-30 11 -74 17.5t-95 6.5q-95 0 -170 -30.5t-132 -80.5t-96.5 -114t-64.5 -131t-36.5 -131.5t-11.5 -115.5z" />
<glyph unicode="&#x431;" horiz-adv-x="1116" d="M48 350q0 66 14 158t42.5 195t70 209t97 200t124 168t150.5 114q77 37 155.5 51.5t157.5 19.5t158.5 8t159.5 18l-40 -154q-59 -17 -127 -19t-137 -5t-134.5 -14t-120.5 -45q-75 -47 -134.5 -123t-106.5 -167q62 43 142 70.5t168 27.5q81 0 141.5 -26.5t101 -72.5 t60.5 -109t20 -136q0 -60 -14 -138.5t-44 -160.5t-77 -161.5t-114 -141.5t-154.5 -100t-198.5 -38q-92 0 -160 24.5t-112.5 72t-66 117t-21.5 158.5zM218 357q0 -70 14.5 -114.5t40.5 -70t62 -35t79 -9.5q87 0 152 37t112 95t77.5 128t48.5 135.5t25 118t7 76.5 q0 100 -50 147t-134 47q-55 0 -108 -14t-100.5 -38.5t-88 -57t-70.5 -69.5q-35 -112 -51 -211t-16 -165z" />
<glyph unicode="&#x432;" horiz-adv-x="1071" d="M26 330q0 85 18 174t54 172.5t89 158t124 130t158.5 87.5t191.5 32q72 0 131.5 -14.5t101.5 -44.5t65.5 -76t23.5 -110q0 -44 -17 -87.5t-49.5 -83t-81 -73.5t-111.5 -59q60 -34 87.5 -85.5t27.5 -121.5q0 -61 -29.5 -123.5t-87 -113.5t-142 -83t-193.5 -32 q-98 0 -166.5 27t-111.5 74.5t-63 112t-20 139.5zM198 325q0 -66 18 -105.5t46.5 -61t64.5 -28t71 -6.5q60 0 109.5 17.5t84 46.5t53.5 67t19 79q0 44 -17 71.5t-45.5 43t-66.5 21t-81 5.5q-26 0 -55 -1.5t-58.5 -3t-57.5 -3t-51 -1.5q-6 0 -11.5 0.5t-10.5 0.5 q-12 -74 -12 -142zM249 612q130 2 233.5 15.5t175.5 40.5t110.5 69.5t38.5 102.5q0 53 -43.5 75t-124.5 22q-76 -2 -137 -28t-109 -70t-84 -102.5t-60 -124.5z" />
<glyph unicode="&#x433;" horiz-adv-x="923" d="M-34 218q0 81 30.5 138.5t80 99t113 71t129.5 53.5t129.5 46t113 49t80 63t30.5 88q0 55 -43.5 81.5t-144.5 26.5q-77 0 -143 -10.5t-137 -29.5l41 156q55 16 123 25t132 9q75 0 137.5 -15t107.5 -45t70 -76.5t25 -109.5q0 -79 -30.5 -136t-80 -98.5t-112.5 -71 t-129.5 -53.5t-129.5 -46t-112.5 -49t-80 -62t-30.5 -84q0 -57 44.5 -83.5t143.5 -26.5q107 0 193.5 17t152.5 39l-42 -156q-29 -11 -69 -20t-82.5 -15.5t-84 -10.5t-74.5 -4q-82 0 -147 16t-110.5 46.5t-69.5 75t-24 102.5z" />
<glyph unicode="&#x434;" horiz-adv-x="1089" d="M26 331q0 45 12.5 116.5t41 152.5t74.5 163.5t113.5 149t158.5 108t208 41.5q83 0 139 -15t90 -33q0 7 0.5 13t0.5 13q0 67 -12.5 122t-42.5 94t-80.5 60.5t-126.5 21.5q-39 0 -72.5 -2.5t-65.5 -7.5t-64 -12.5t-68 -17.5l41 156q55 16 118 25t127 9q85 0 161.5 -24 t135 -77.5t93 -138.5t34.5 -208q0 -134 -18 -265t-54.5 -249t-90.5 -218.5t-127 -173.5t-164.5 -114.5t-201.5 -41.5q-95 0 -163.5 25.5t-112 72t-64 111.5t-20.5 144zM198 323q0 -55 14 -92.5t39.5 -60t61.5 -32.5t80 -10q67 0 125 27.5t105.5 77t85.5 117t67 146.5t48 167 t29 179q-33 26 -90.5 48.5t-142.5 22.5q-76 0 -137 -33t-107.5 -85.5t-80.5 -118t-55.5 -131t-31.5 -124.5t-10 -98z" />
<glyph unicode="&#x435;" horiz-adv-x="1040" d="M27 348q0 93 20 183.5t58 172t92.5 151.5t124 120.5t152 79.5t176.5 29q73 0 134 -16.5t105 -50t68.5 -83t24.5 -115.5q0 -76 -41 -145t-133 -122t-240 -85t-363 -33q-6 -47 -6 -91q0 -68 19 -110t51 -65t74 -31.5t88 -8.5q32 0 68 3.5t72 10.5t70.5 18t64.5 25l-44 -168 q-43 -17 -103.5 -28t-130.5 -11q-113 0 -189.5 28.5t-123.5 78t-67.5 117.5t-20.5 146zM239 582q133 1 238.5 17t178.5 45t111.5 71.5t38.5 97.5q0 65 -40.5 93t-118.5 28q-77 0 -141.5 -28.5t-115.5 -76.5t-89 -112t-62 -135z" />
<glyph unicode="&#x436;" horiz-adv-x="1903" d="M-115 -5l39 149q27 -8 60.5 -12t76.5 -4q62 0 119 27t106.5 72.5t90.5 105t70 125.5t45 134t16 130q0 51 -9 90.5t-32 67t-62.5 42t-100.5 14.5q-50 0 -84.5 -8.5t-70.5 -21.5l43 161q32 8 60.5 12.5t66.5 4.5q180 0 271 -92.5t91 -268.5q0 -45 -6 -88h167l115 427h172 l-115 -427h164q37 91 95 172.5t132 143t163 97.5t189 36q42 0 80 -4.5t74 -12.5l-40 -149q-27 8 -60 12t-75 4q-62 0 -119 -27t-106.5 -72.5t-90.5 -105t-70 -125.5t-45 -134t-16 -130q0 -51 9 -90.5t32 -67t62.5 -42t100.5 -14.5q49 0 83 7.5t70 20.5l-43 -160 q-32 -7 -60 -11.5t-65 -4.5q-180 0 -271 92.5t-91 268.5q0 35 3.5 70t10.5 71h-157l-129 -480h-172l129 480h-162q-34 -99 -91.5 -190t-135 -160t-171.5 -110.5t-201 -41.5q-43 0 -81 4.5t-74 12.5z" />
<glyph unicode="&#x437;" horiz-adv-x="947" d="M-114 21l43 161q53 -22 141 -37.5t195 -15.5q153 0 237 54t84 165q0 68 -57 93.5t-174 25.5h-176l42 155h176q44 0 92 8.5t88.5 31t66.5 62t26 101.5q0 61 -51 85t-139 24q-90 0 -161.5 -8.5t-134.5 -23.5l43 160q24 4 55 8t65.5 7t71 5t70.5 2q177 0 268.5 -62 t91.5 -176q0 -17 -3.5 -41.5t-12 -52.5t-23.5 -57.5t-38 -55.5t-55.5 -47t-75.5 -32q61 -30 91.5 -74.5t30.5 -113.5q0 -81 -31.5 -152.5t-95 -125.5t-159 -85t-222.5 -31q-46 0 -101.5 3.5t-108 9.5t-95.5 13.5t-64 16.5z" />
<glyph unicode="&#x438;" horiz-adv-x="1071" d="M29 233q-1 29 3.5 58.5t12.5 58.5l191 712h174l-193 -718q-17 -62 -17 -110q0 -49 24 -78t86 -29q54 0 115.5 35t121.5 105.5t113.5 175.5t91.5 245l100 374h174l-285 -1062h-158l53 194q4 14 10.5 34t12.5 34q-27 -63 -68 -115.5t-91 -90t-105 -58t-109 -20.5 q-68 0 -117 20.5t-80 55t-45.5 81t-14.5 98.5z" />
<glyph unicode="&#x439;" horiz-adv-x="1071" d="M29 233q-1 29 3.5 58.5t12.5 58.5l191 712h174l-193 -718q-17 -62 -17 -110q0 -49 24 -78t86 -29q54 0 115.5 35t121.5 105.5t113.5 175.5t91.5 245l100 374h174l-285 -1062h-158l53 194q4 14 10.5 34t12.5 34q-27 -63 -68 -115.5t-91 -90t-105 -58t-109 -20.5 q-68 0 -117 20.5t-80 55t-45.5 81t-14.5 98.5zM412 1418q0 15 2 31h136q-1 -5 -1 -10v-10q0 -28 9.5 -45.5t26 -28t38.5 -14t48 -3.5q28 0 54.5 4.5t50 16.5t43 33.5t34.5 56.5h144q-21 -52 -52 -94t-72.5 -71.5t-93 -45.5t-111.5 -16q-56 0 -102.5 14t-80.5 39.5 t-53.5 61.5t-19.5 81z" />
<glyph unicode="&#x43a;" horiz-adv-x="1015" d="M-44 0l284 1062h176l-110 -416q78 0 155 35t147 93t131.5 133t109.5 155h188q-42 -76 -92 -146t-106.5 -131.5t-119 -113t-130.5 -89.5q94 -112 150.5 -258.5t60.5 -323.5h-173q-8 176 -58.5 302.5t-137.5 213.5q-84 -23 -168 -23l-132 -493h-175z" />
<glyph unicode="&#x43b;" horiz-adv-x="1078" d="M-160 -22l41 151q29 1 57.5 10t58 33t61.5 67.5t67.5 113.5t76.5 170.5t88 239.5q49 143 148.5 221t239.5 78h369l-283 -1062h-176l241 907h-158q-80 0 -134 -41t-84 -132q-58 -175 -112 -299t-105.5 -208t-100.5 -133.5t-98 -75t-98 -33t-99 -7.5z" />
<glyph unicode="&#x43c;" horiz-adv-x="1360" d="M-44 0l284 1062h182q19 -25 38.5 -66t38 -93.5t35 -112.5t30 -122t23.5 -122.5t14 -114.5q34 54 76.5 114.5t89.5 122.5t96 122t95.5 112t89 93.5t76.5 66.5h197l-285 -1062h-176l213 793q2 8 4.5 15t4.5 12q-5 -7 -12.5 -14.5l-12.5 -12.5q-109 -126 -214.5 -272 t-203.5 -303h-173q-10 156 -34.5 300.5t-71.5 275.5l-5 12.5t-5 15.5l-2.5 -12.5t-3.5 -15.5l-213 -794h-175z" />
<glyph unicode="&#x43d;" horiz-adv-x="1108" d="M-44 0l284 1062h176l-118 -439h477l118 439h176l-285 -1062h-176l126 468h-477l-126 -468h-175z" />
<glyph unicode="&#x43e;" horiz-adv-x="1087" d="M26 331q0 27 6 73.5t19.5 104.5t36 123.5t56.5 129t80 122t106 103t135 71t168 26.5q96 0 163 -26t109.5 -71.5t62 -107.5t19.5 -133q0 -80 -16.5 -168t-50 -173.5t-83.5 -162.5t-117 -136t-150.5 -93.5t-183.5 -34.5q-94 0 -162 25t-112 71t-65 111.5t-21 145.5z M198 323q0 -92 45 -143.5t150 -51.5q66 0 119 24t94.5 63.5t73.5 90.5t55 105.5t38 109t24.5 100t13 78.5t3.5 45q0 92 -47.5 141.5t-150.5 49.5q-63 0 -114 -23t-92.5 -61t-73 -87.5t-55 -103t-39.5 -107t-26 -99.5t-14 -80.5t-4 -50.5z" />
<glyph unicode="&#x43f;" horiz-adv-x="1078" d="M-44 0l284 1062h799l-285 -1062h-176l243 907h-447l-243 -907h-175z" />
<glyph unicode="&#x440;" horiz-adv-x="1128" d="M-153 -407l392 1469h158l-57 -200l-19 -59q23 64 62 116t89 88.5t109 56.5t122 20q69 0 127 -21.5t101 -65t67 -109.5t24 -154q0 -78 -17 -164t-52.5 -170t-90.5 -160.5t-131.5 -134.5t-175.5 -92.5t-222 -34.5q-27 0 -55.5 2t-55.5 6t-51.5 8.5t-43.5 10.5l-109 -412 h-171zM168 159q29 -14 72 -22t97 -8q95 0 170 30.5t132 80t96.5 113t64.5 130.5t36.5 131.5t11.5 115.5q0 104 -42 154.5t-136 50.5q-66 0 -132 -44t-125 -120t-107.5 -178t-79.5 -219z" />
<glyph unicode="&#x441;" horiz-adv-x="922" d="M26 339q0 85 19 173t55.5 171t90.5 156t124 127.5t155.5 86t186.5 31.5q32 0 68 -2.5t72 -7.5t70 -12.5t61 -16.5l-40 -154q-50 17 -112 30t-140 13q-70 0 -130 -27t-108.5 -72.5t-85.5 -105t-62 -125.5t-38 -134t-13 -130q0 -59 15 -99t44.5 -65.5t74 -36.5t103.5 -11 q80 0 148.5 16.5t122.5 40.5l-44 -168q-51 -17 -106.5 -28t-126.5 -11q-203 0 -303.5 94t-100.5 267z" />
<glyph unicode="&#x442;" horiz-adv-x="1636" d="M-44 0l285 1062h158l-48 -167q-5 -17 -13 -40.5t-13 -40.5q28 66 69 116.5t89 84.5t100 51.5t103 17.5q65 0 112 -19.5t77 -52t44 -75.5t14 -89q0 -3 -0.5 -9t-2.5 -13q30 73 74 122.5t92.5 79.5t97 43t88.5 13q68 0 115.5 -20.5t77 -55t42.5 -81t13 -98.5 q0 -29 -4 -58.5t-12 -58.5l-192 -712h-174l194 718q17 62 17 110q0 24 -4.5 44t-15.5 34t-30.5 21.5t-50.5 7.5q-50 0 -109.5 -35t-118.5 -105.5t-112 -175.5t-91 -245l-101 -374h-174l194 718q17 62 17 110q0 24 -4.5 44t-15.5 34t-30.5 21.5t-50.5 7.5q-50 0 -109.5 -35 t-119 -105.5t-113 -175.5t-90.5 -245l-100 -374h-174z" />
<glyph unicode="&#x443;" horiz-adv-x="985" d="M-318 -407l42 155q14 -8 30 -12t30 -6t25 -2.5t16 -0.5q29 0 64 13.5t79 46t98 87.5t121 138q-18 87 -34 193.5t-27 218.5t-17.5 223.5t-6.5 208.5q0 60 3 112t8 94h170q-6 -45 -8.5 -95t-2.5 -106q0 -76 4.5 -159t12 -168t18 -170t22.5 -165q78 109 156 227t146.5 232 t123.5 218.5t88 185.5h189q-25 -60 -66 -140.5t-93 -172.5t-112.5 -191t-124.5 -196.5t-128.5 -188.5t-125.5 -167q-92 -115 -164.5 -197t-139.5 -134.5t-136 -77t-154 -24.5q-5 0 -17.5 0.5t-28 2.5t-32 6t-28.5 11z" />
<glyph unicode="&#x444;" horiz-adv-x="1639" d="M26 319q0 55 11.5 133.5t38 163.5t71 168.5t110 150t155 108t205.5 41.5q27 0 54.5 -3t53.5 -9t48.5 -14.5t39.5 -19.5l115 428h176l-115 -428q26 15 54 24t53.5 14t48 6.5t37.5 1.5q69 0 129 -16.5t103.5 -54.5t68.5 -100t25 -153q0 -75 -13.5 -162t-43 -174 t-76.5 -167.5t-112.5 -142.5t-152 -99t-195.5 -37q-60 0 -110 8.5t-89 28.5l-113 -422h-176l113 422q-47 -20 -93.5 -28.5t-80.5 -8.5q-74 0 -136.5 19t-107.5 60.5t-70.5 106t-25.5 155.5zM200 314q0 -53 13 -89t38 -57.5t60.5 -30.5t80.5 -9q53 0 97.5 7t91.5 36l191 713 q-45 50 -164 50q-67 0 -120.5 -24t-95 -63.5t-71.5 -91t-51.5 -106.5t-35 -109.5t-21 -100.5t-10.5 -79t-3 -46zM757 170q32 -29 72.5 -35.5t94.5 -6.5q66 0 118.5 23t94 61.5t71.5 88.5t51.5 103.5t35.5 107.5t22 100.5t11 81t3 50.5q0 53 -13 89.5t-37.5 59t-60 32 t-80.5 9.5q-121 0 -192 -49z" />
<glyph unicode="&#x445;" horiz-adv-x="976" d="M-144 0q52 78 111.5 150t123.5 139.5t130 131t132 125.5q-30 58 -59 118.5t-54.5 124t-46.5 131.5t-35 142h172q18 -104 58 -202.5t90 -197.5q106 100 200.5 197.5t165.5 202.5h197q-53 -77 -111.5 -147.5t-121.5 -137t-128.5 -129.5t-130.5 -124q32 -62 63 -125.5 t57.5 -128.5t47 -132.5t32.5 -137.5h-169q-24 112 -65.5 211.5t-90.5 196.5q-106 -100 -202 -199.5t-173 -208.5h-193z" />
<glyph unicode="&#x446;" horiz-adv-x="1184" d="M29 233q-1 29 3.5 58.5t12.5 58.5l191 712h174l-193 -718q-17 -62 -17 -110q0 -49 24 -78t86 -29q54 0 115.5 35t121.5 105.5t113.5 175.5t91.5 245l100 374h174l-202 -751q-16 -57 -16 -92q0 -26 8.5 -41t25 -22t40 -8.5t52.5 -1.5h138q-13 -88 -33.5 -151t-43.5 -107.5 t-46 -73t-40 -46.5h-209q22 16 46.5 41.5t48 57t42.5 66t29 67.5q-39 0 -78 9.5t-70.5 31t-51 56t-19.5 84.5v16t2 16q1 8 3 21.5t7 27.5q-26 -63 -67.5 -115.5t-91.5 -90t-105 -58t-109 -20.5q-68 0 -117 20.5t-80 55t-45.5 81t-14.5 98.5z" />
<glyph unicode="&#x447;" horiz-adv-x="1013" d="M71 582q-1 29 3.5 58.5t12.5 58.5l97 363h174l-99 -369q-17 -62 -17 -110q0 -49 24 -78t86 -29q63 0 125.5 35.5t118.5 99.5t102 153t75 197l27 101h174l-285 -1062h-175l126 467q4 14 11 34t12 34q-28 -41 -64 -78.5t-78 -66t-90.5 -46t-102.5 -17.5q-68 0 -117 20.5 t-80 55t-45.5 81t-14.5 98.5z" />
<glyph unicode="&#x448;" horiz-adv-x="1643" d="M30 233q0 29 4 58.5t12 58.5l192 712h174l-194 -718q-17 -62 -17 -110q0 -24 4 -44t15.5 -34t31 -21.5t50.5 -7.5q50 0 109.5 35t118.5 105.5t112 175.5t91 245l101 374h174l-194 -718q-17 -62 -17 -110q0 -24 4 -44t15.5 -34t31 -21.5t50.5 -7.5q50 0 109.5 35 t119 105.5t112.5 175.5t91 245l100 374h174l-285 -1062h-158l48 167q5 17 13 40.5t13 40.5q-29 -66 -69.5 -116.5t-88.5 -84.5t-100 -51.5t-103 -17.5q-65 0 -112 19.5t-77 52t-44 75t-14 89.5q0 8 3 22q-30 -74 -74 -123.5t-92.5 -79.5t-97 -42.5t-88.5 -12.5 q-68 0 -115.5 20.5t-77 55t-42.5 81t-13 98.5z" />
<glyph unicode="&#x449;" horiz-adv-x="1782" d="M29 233q0 29 4 58.5t12 58.5l192 712h174l-194 -718q-17 -62 -17 -110q0 -49 24.5 -78t86.5 -29q51 0 109.5 31.5t116 95t109.5 158.5t91 221l116 429h174l-194 -718q-17 -62 -17 -110q0 -24 4 -44t15.5 -34t31 -21.5t50.5 -7.5q50 0 109.5 35t119 105.5t112.5 175.5 t91 245l100 374h174l-201 -751q-16 -57 -16 -92q0 -26 8.5 -41t25 -22t40 -8.5t52.5 -1.5h138q-13 -88 -33.5 -151t-43.5 -107.5t-46 -73t-40 -46.5h-209q22 16 46.5 41.5t48 57t42.5 66t29 67.5q-39 0 -78 9.5t-70.5 31t-51 56t-19.5 84.5q0 16 2 35t12 51 q-27 -67 -68.5 -120.5t-90.5 -91t-102.5 -57.5t-104.5 -20q-65 0 -112 19.5t-77 52t-44 75t-14 89.5v9t1 14q-4 -13 -11 -29.5t-18 -33.5q-68 -101 -152.5 -148.5t-178.5 -47.5q-68 0 -117 20.5t-80.5 55t-46 81t-14.5 98.5z" />
<glyph unicode="&#x44a;" horiz-adv-x="1038" d="M20 941l44 162q40 -14 83 -22t96.5 -12.5t121.5 -5.5t157 -1q-26 -68 -51 -134.5t-47.5 -127.5t-41.5 -114t-33 -92q32 40 73 66.5t84.5 42.5t85.5 22.5t75 6.5q65 0 119 -22t92.5 -61t60 -91.5t21.5 -113.5q0 -104 -40.5 -189.5t-111 -147t-165.5 -95.5t-203 -34 q-94 0 -158.5 19.5t-104 56t-57 88.5t-17.5 116t15.5 139.5t41 159t59 173t70.5 182.5q-26 0 -62 1.5t-74 5.5t-73.5 9t-59.5 13zM276 264q0 -27 7.5 -51.5t27.5 -43t54.5 -30t87.5 -11.5q83 0 145.5 26.5t104.5 69.5t63 98.5t21 112.5q0 35 -12.5 62.5t-35 46.5t-54 29 t-68.5 10q-38 0 -83 -13t-89 -38.5t-85 -63.5t-71 -87q-5 -20 -9 -52.5t-4 -64.5z" />
<glyph unicode="&#x44b;" horiz-adv-x="1403" d="M33 245q0 58 18 124l185 693h174l-124 -461q49 58 123.5 94.5t157.5 36.5q73 0 126.5 -23t88.5 -63t52 -94.5t17 -117.5q0 -95 -39 -178.5t-106.5 -145t-158.5 -97t-196 -35.5q-83 0 -143 19.5t-99 54.5t-57.5 84t-18.5 109zM207 264q0 -27 4.5 -51.5t20.5 -43t47.5 -30 t84.5 -11.5q74 0 132 26.5t98.5 69.5t62 97.5t21.5 109.5q0 73 -36.5 112.5t-111.5 39.5q-35 0 -73.5 -10.5t-77.5 -33t-76.5 -57t-69.5 -81.5l-11 -40q-6 -23 -10.5 -47.5t-4.5 -49.5zM904 0l284 1062h176l-285 -1062h-175z" />
<glyph unicode="&#x44c;" horiz-adv-x="1022" d="M24 245q0 58 18 124l185 693h174l-124 -461q24 29 59 53t75 41.5t83 27t84 9.5q73 0 129.5 -23t95.5 -63t59 -94.5t20 -117.5q0 -101 -41 -185t-111.5 -144t-165 -93.5t-202.5 -33.5q-88 0 -151.5 19.5t-105 54.5t-61.5 84t-20 109zM198 264q0 -27 7.5 -51.5t27.5 -43 t54.5 -30t87.5 -11.5q82 0 144.5 26.5t104.5 69.5t63.5 97.5t21.5 109.5q0 73 -46.5 112.5t-121.5 39.5q-35 0 -76.5 -10.5t-84.5 -33t-83.5 -57t-72.5 -81.5l-11 -40q-6 -23 -10.5 -47.5t-4.5 -49.5z" />
<glyph unicode="&#x44d;" horiz-adv-x="947" d="M-93 2l40 151q45 -11 105 -18t140 -7q74 0 138 15.5t117.5 53.5t97 103.5t76.5 166.5h-468l42 155h465q4 25 6 47.5t2 42.5q0 118 -65 170t-186 52q-78 0 -145 -8t-125 -22l43 158q67 10 120.5 16t109.5 6q210 0 316 -96t106 -277q0 -47 -7.5 -98t-21.5 -108 q-33 -131 -86 -229.5t-130 -164.5t-179 -99.5t-233 -33.5q-158 0 -278 24z" />
<glyph unicode="&#x44e;" horiz-adv-x="1472" d="M-48 0l284 1062h174l-116 -434h197q26 80 69 161.5t107 147t152 106.5t205 41q96 0 160 -26t102.5 -71.5t55 -107.5t16.5 -133q0 -80 -15 -168t-46.5 -173.5t-79 -162.5t-112 -136t-146.5 -93.5t-182 -34.5q-94 0 -158.5 25t-105 71t-58.5 111.5t-18 145.5q0 23 3.5 61.5 t12.5 87.5h-199l-129 -480h-173zM609 323q0 -46 7.5 -82.5t27.5 -61.5t53.5 -38t86.5 -13q66 0 118 24t92.5 63.5t70.5 90.5t51 105.5t34.5 109t21 100t10.5 78.5t3 45q0 46 -8.5 81.5t-29.5 60t-55 37t-85 12.5q-63 0 -113.5 -23t-90 -61t-69.5 -87.5t-51.5 -103t-36 -107 t-22.5 -99.5t-11.5 -80.5t-3.5 -50.5z" />
<glyph unicode="&#x44f;" horiz-adv-x="1070" d="M-136 0q50 76 111.5 146.5t126.5 130.5t130.5 107.5t124.5 76.5q-53 4 -96 25t-73 53.5t-46.5 75.5t-16.5 91q0 39 10 76q21 81 68 135t109 86t133.5 45.5t142.5 13.5h443l-285 -1062h-176l123 457q-66 -13 -144.5 -48t-161 -92.5t-165 -137t-157.5 -179.5h-201zM300 712 q0 -33 14 -60t40 -46t62 -29.5t81 -10.5q60 0 114.5 9.5t122.5 35.5l79 295h-248q-128 0 -196.5 -50t-68.5 -144z" />
<glyph unicode="&#x451;" horiz-adv-x="1043" d="M35 348q0 93 20 183.5t58 172t92.5 151.5t124 120.5t152 79.5t176.5 29q73 0 134 -16.5t105 -50t68.5 -83t24.5 -115.5q0 -76 -41 -145t-133 -122t-240 -85t-363 -33q-6 -47 -6 -91q0 -68 19 -110t51 -65t74 -31.5t88 -8.5q32 0 68 3.5t72 10.5t70.5 18t64.5 25l-44 -168 q-43 -17 -103.5 -28t-130.5 -11q-113 0 -189.5 28.5t-123.5 78t-67.5 117.5t-20.5 146zM247 582q133 1 238.5 17t178.5 45t111.5 71.5t38.5 97.5q0 65 -40.5 93t-118.5 28q-77 0 -141.5 -28.5t-115.5 -76.5t-89 -112t-62 -135zM453 1269l53 197h182l-53 -197h-182zM781 1269 l53 197h182l-53 -197h-182z" />
<glyph unicode="&#x452;" horiz-adv-x="1095" d="M-2 0l328 1229h-169l42 155h169l22 82h176l-22 -82h175l-42 -155h-175l-86 -322q-5 -17 -13.5 -40.5t-13.5 -40.5q27 67 69.5 115.5t91 80t98 47t91.5 15.5q68 0 118.5 -21t83.5 -57t49.5 -85t16.5 -106q0 -64 -16.5 -146.5t-44.5 -174t-64.5 -187.5t-77 -187t-81.5 -172 t-78 -142h-183q35 57 76 137t82 171.5t79 189t67.5 190t47 174.5t17.5 143t-27 92.5t-89 31.5q-54 0 -116 -35t-122 -105.5t-113.5 -175.5t-90.5 -245l-100 -374h-175z" />
<glyph unicode="&#x453;" horiz-adv-x="759" d="M-25 218q0 81 30.5 138.5t80 99t113 71t129.5 53.5t129.5 46t113 49t80 63t30.5 88q0 55 -43.5 81.5t-144.5 26.5q-77 0 -143 -10.5t-137 -29.5l41 156q55 16 123 25t132 9q75 0 137.5 -15t107.5 -45t70 -76.5t25 -109.5q0 -79 -30.5 -136t-80 -98.5t-112.5 -71 t-129.5 -53.5t-129.5 -46t-112.5 -49t-80 -62t-30.5 -84q0 -57 44.5 -83.5t143.5 -26.5q107 0 193.5 17t152.5 39l-42 -156q-29 -11 -69 -20t-82.5 -15.5t-84 -10.5t-74.5 -4q-82 0 -147 16t-110.5 46.5t-69.5 75t-24 102.5zM438 1177l234 289h223l-264 -289h-193z" />
<glyph unicode="&#x454;" horiz-adv-x="969" d="M28 348q0 49 8 102.5t23 111.5q69 260 222 391t403 131q49 0 87.5 -1.5t70.5 -4.5t61 -7.5t59 -10.5l-40 -151q-45 11 -105 18t-140 7q-74 0 -138 -15.5t-117.5 -53.5t-97 -103.5t-76.5 -166.5h468l-42 -155h-465q-4 -24 -6 -46.5t-2 -42.5q0 -119 65 -171t186 -52 q78 0 145 8t125 22l-43 -158q-68 -11 -126 -16.5t-116 -5.5q-106 0 -183 26t-127 74.5t-74.5 117t-24.5 152.5z" />
<glyph unicode="&#x455;" horiz-adv-x="891" d="M-81 28l41 156q54 -22 131.5 -39t184.5 -17q129 0 197 45.5t68 146.5q0 40 -19 68.5t-50 49.5t-70.5 37.5t-81 33.5t-81 37t-70.5 48t-50 66t-19 92q0 85 36 148t98 103.5t145 60.5t177 20q90 0 161.5 -11.5t117.5 -27.5l-40 -151q-61 19 -122 29.5t-138 10.5 q-58 0 -105.5 -10t-81.5 -29.5t-52.5 -49t-18.5 -68.5q0 -45 32.5 -72.5t81.5 -49.5t105.5 -43.5t105.5 -55t81.5 -84t32.5 -130.5q0 -100 -35 -169t-97 -112.5t-146.5 -63t-182.5 -19.5q-46 0 -95.5 4t-95.5 10.5t-84.5 15.5t-60.5 20z" />
<glyph unicode="&#x456;" horiz-adv-x="455" d="M-44 0l284 1062h176l-285 -1062h-175zM291 1257l56 209h176l-56 -209h-176z" />
<glyph unicode="&#x457;" horiz-adv-x="442" d="M-7 0l284 1062h176l-285 -1062h-175zM155 1269l53 197h182l-53 -197h-182zM483 1269l53 197h182l-53 -197h-182z" />
<glyph unicode="&#x458;" horiz-adv-x="455" d="M-446 -418l41 154q26 -5 48 -9t48 -4q45 0 83 9.5t69.5 35t56 71.5t44.5 118l295 1105h176l-296 -1105q-31 -116 -79 -190.5t-107 -117.5t-127.5 -59t-141.5 -16q-26 0 -54.5 2t-55.5 6zM291 1257l56 209h176l-56 -209h-176z" />
<glyph unicode="&#x459;" horiz-adv-x="1655" d="M-85 -22l41 151q29 1 57.5 10t58 33t61.5 67.5t67.5 113.5t76 170.5t88.5 239.5q49 143 148.5 221t239.5 78h367l-124 -461q60 63 139 97t160 34q73 0 130 -22.5t96 -62.5t59.5 -94.5t20.5 -118.5q0 -101 -41 -185t-111.5 -144t-165 -93.5t-202.5 -33.5 q-88 0 -151.5 19.5t-105 54.5t-61.5 84t-20 109q0 58 18 124l143 538h-158q-80 0 -134 -41t-84 -132q-58 -175 -112 -299t-105.5 -208t-100.5 -133.5t-98 -75t-98 -33t-99 -7.5zM917 264q0 -27 7.5 -51.5t27.5 -43t54.5 -30t87.5 -11.5q82 0 144.5 26.5t104.5 69.5 t63.5 97.5t21.5 109.5q0 72 -46 112t-120 40q-34 0 -76 -11t-85.5 -33.5t-84.5 -56.5t-73 -81l-11 -40q-6 -23 -10.5 -47.5t-4.5 -49.5z" />
<glyph unicode="&#x45a;" horiz-adv-x="1677" d="M-7 0l284 1062h176l-118 -439h480l117 439h174l-124 -461q60 64 139 97.5t160 33.5q73 0 130 -22.5t96 -62.5t59.5 -94.5t20.5 -118.5q0 -101 -41 -185t-111.5 -144t-165 -93.5t-202.5 -33.5q-89 0 -153 20t-105 55.5t-60.5 84.5t-19.5 108q0 29 5 60t13 63l26 99h-479 l-126 -468h-175zM903 264q0 -27 7.5 -51.5t27.5 -43t54.5 -30t87.5 -11.5q82 0 144.5 26.5t104.5 69.5t63.5 97.5t21.5 109.5q0 36 -12.5 64.5t-34.5 48t-53 29.5t-68 10q-35 0 -77 -11t-85 -33.5t-83.5 -56.5t-71.5 -81l-11 -40q-6 -23 -10.5 -47.5t-4.5 -49.5z" />
<glyph unicode="&#x45b;" horiz-adv-x="1060" d="M-44 0l329 1229h-161l42 155h161l22 82h174l-22 -82h185l-42 -155h-185l-88 -329q-5 -17 -12.5 -37.5t-15.5 -43.5q25 61 64 110.5t86.5 83.5t99.5 52.5t103 18.5q68 0 117 -20.5t80.5 -55t46 -81t14.5 -98.5q0 -29 -4 -58.5t-12 -58.5l-192 -712h-174l194 718 q17 62 17 110q0 49 -24.5 78t-86.5 29q-54 0 -116 -35t-122 -105.5t-113.5 -175.5t-90.5 -245l-100 -374h-174z" />
<glyph unicode="&#x45c;" horiz-adv-x="979" d="M-11 0l284 1062h176l-110 -416q78 0 155 35t147 93t131.5 133t109.5 155h188q-42 -76 -92 -146t-106.5 -131.5t-119 -113t-130.5 -89.5q94 -112 150.5 -258.5t60.5 -323.5h-173q-8 176 -58.5 302.5t-137.5 213.5q-84 -23 -168 -23l-132 -493h-175zM493 1177l234 289h223 l-264 -289h-193z" />
<glyph unicode="&#x45e;" horiz-adv-x="985" d="M-318 -407l42 155q14 -8 30 -12t30 -6t25 -2.5t16 -0.5q29 0 64 13.5t79 46t98 87.5t121 138q-18 87 -34 193.5t-27 218.5t-17.5 223.5t-6.5 208.5q0 60 3 112t8 94h170q-6 -45 -8.5 -95t-2.5 -106q0 -76 4.5 -159t12 -168t18 -170t22.5 -165q78 109 156 227t146.5 232 t123.5 218.5t88 185.5h189q-25 -60 -66 -140.5t-93 -172.5t-112.5 -191t-124.5 -196.5t-128.5 -188.5t-125.5 -167q-92 -115 -164.5 -197t-139.5 -134.5t-136 -77t-154 -24.5q-5 0 -17.5 0.5t-28 2.5t-32 6t-28.5 11zM316 1431q0 17 3 35h152q-1 -6 -1 -11.5v-10.5 q0 -32 10.5 -51.5t29 -31t43.5 -15.5t54 -4q31 0 60.5 5t56 18.5t48.5 37.5t39 63h161q-23 -58 -58 -105t-81.5 -80t-104 -51t-125.5 -18q-62 0 -114.5 15.5t-90.5 44t-60 69t-22 90.5z" />
<glyph unicode="&#x45f;" horiz-adv-x="1085" d="M-44 0l285 1062h176l-243 -907h447l243 907h175l-284 -1062h-314l-57 -216h-172l57 216h-313z" />
<glyph unicode="&#x490;" horiz-adv-x="1050" d="M-46 0l392 1466h728l57 216h172l-57 -216l-46 -172h-708l-347 -1294h-191z" />
<glyph unicode="&#x491;" horiz-adv-x="923" d="M-34 218q0 81 30.5 138.5t80 99t113 71t129.5 53.5t129.5 46t113 49t80 63t30.5 88q0 55 -43.5 81.5t-144.5 26.5q-77 0 -143 -10.5t-137 -29.5l41 156q39 11 85.5 19t94.5 12l46 175h172l-47 -179q55 -8 100 -27t77 -48.5t49.5 -70.5t17.5 -93q0 -79 -30.5 -136 t-80 -98.5t-112.5 -71t-129.5 -53.5t-129.5 -46t-112.5 -49t-80 -62t-30.5 -84q0 -57 44.5 -83.5t143.5 -26.5q107 0 193.5 17t152.5 39l-42 -156q-29 -11 -69 -20t-82.5 -15.5t-84 -10.5t-74.5 -4q-82 0 -147 16t-110.5 46.5t-69.5 75t-24 102.5z" />
<glyph unicode="&#x531;" horiz-adv-x="1446" d="M73 369q0 65 19 137l257 960h191l-267 -996q-14 -53 -14 -96q0 -111 77.5 -175t220.5 -64q77 0 139 17t112 49q-41 38 -87.5 68t-106.5 46l82 146q70 -14 125 -52t106 -85q26 40 46 87t34 101l255 954h191l-257 -960q-48 -178 -141 -299q35 -28 72 -50.5t82 -37.5 l-93 -150q-58 18 -103 49t-85 67q-155 -107 -376 -107q-100 0 -187.5 26t-152 75.5t-102 122.5t-37.5 167z" />
<glyph unicode="&#x532;" horiz-adv-x="1406" d="M-49 0l257 960q70 263 236 395.5t414 132.5q100 0 186 -26t150 -75.5t100.5 -122t36.5 -165.5q0 -32 -4 -67t-15 -72l-20 -72h-191l30 105q13 48 13 93q0 55 -20.5 100t-58.5 76.5t-93 48.5t-125 17q-95 0 -168.5 -26.5t-128.5 -75t-92.5 -118.5t-60.5 -157l-92 -343h926 l-47 -174h-926l-116 -434h-191z" />
<glyph unicode="&#x533;" horiz-adv-x="1502" d="M188 848q0 37 5 76t16 81q33 126 97.5 217t150.5 150t187.5 87.5t206.5 28.5q102 0 189.5 -26t151.5 -76t100.5 -123t36.5 -168q0 -34 -4.5 -70t-15.5 -75l-92 -342h246l-47 -174h-246l-116 -434h-186l116 434h-326q-107 0 -193.5 29t-148 83t-95 130.5t-33.5 171.5z M377 863q0 -60 20 -107.5t57 -80t90.5 -50t120.5 -17.5h365l103 382q14 54 14 98q0 58 -22 103t-63.5 75.5t-99.5 46t-130 15.5q-174 0 -287 -94.5t-155 -270.5q-13 -52 -13 -100z" />
<glyph unicode="&#x534;" horiz-adv-x="1488" d="M188 888l19 72q70 263 231 395.5t413 132.5q100 0 187.5 -26t152 -75.5t102 -122.5t37.5 -167q0 -65 -19 -137l-95 -352h245l-47 -174h-244l-116 -434h-191l269 1003q12 45 12 87q0 54 -20.5 98t-58.5 75t-93.5 48t-125.5 17q-95 0 -168.5 -26t-128.5 -74.5t-93 -117.5 t-60 -156l-17 -66h-191z" />
<glyph unicode="&#x535;" horiz-adv-x="1406" d="M73 369q0 65 19 137l257 960h191l-109 -404h928l-47 -174h-928l-112 -418q-14 -53 -14 -96q0 -112 79 -174t219 -62q95 0 168.5 26t128 74t92 117.5t61.5 156.5l26 96h191l-27 -102q-70 -263 -233 -395.5t-411 -132.5q-100 0 -187.5 26t-152 75.5t-102 122.5t-37.5 167z " />
<glyph unicode="&#x536;" horiz-adv-x="1444" d="M-68 0l88 333h186l-42 -157h156q102 27 203.5 70t194.5 100.5t172.5 129t138 156t92 181t33.5 204.5q0 66 -21 123t-61.5 99t-101.5 65.5t-140 23.5q-110 0 -189.5 -32t-135 -86t-91 -126t-57.5 -152l-12 -44h-194l16 56q35 121 91 221.5t137 172t190 111t250 39.5 q124 0 219 -37.5t159.5 -101.5t98 -149t33.5 -179q0 -119 -40 -240t-119 -232.5t-197 -207.5t-273 -165h427l-47 -176h-1164z" />
<glyph unicode="&#x537;" horiz-adv-x="1186" d="M-46 0l392 1466h192l-108 -404h794l-47 -174h-794l-191 -712h690l-47 -176h-881z" />
<glyph unicode="&#x538;" horiz-adv-x="1406" d="M-49 0l257 960q70 263 236 395.5t414 132.5q100 0 186 -26t150 -75.5t100.5 -122t36.5 -165.5q0 -32 -4 -67t-15 -72l-20 -72h-191l30 105q13 48 13 93q0 55 -20.5 100t-58.5 76.5t-93 48.5t-125 17q-95 0 -168.5 -26.5t-128.5 -75t-92.5 -118.5t-60.5 -157l-208 -775 h926l-47 -176h-1117z" />
<glyph unicode="&#x539;" horiz-adv-x="1714" d="M-46 0l245 922q35 132 95 237t150 178t212.5 112t283.5 39q138 0 243 -36.5t176 -99t107 -145.5t36 -175q0 -74 -23 -155l-6 -21h224l-46 -174h-224l-86 -310q-54 -195 -172 -295t-297 -100q-86 0 -155.5 25t-118 70.5t-74.5 109t-26 141.5q0 111 36 208t100.5 169 t154 114t196.5 42h303l12 44q18 64 18 130q0 60 -20 115t-66 96t-121.5 65.5t-186.5 24.5q-141 0 -235.5 -36.5t-156.5 -99.5t-98.5 -146.5t-61.5 -176.5l-234 -872h-184zM677 319q0 -88 50.5 -136.5t144.5 -48.5q56 0 101 13t81 44.5t64 85t50 133.5l73 272h-265 q-77 0 -133 -30.5t-93 -81t-55 -116t-18 -135.5z" />
<glyph unicode="&#x53a;" horiz-adv-x="1502" d="M31 445q0 50 12.5 115.5t42 134t79 134.5t124 118t177 83.5t236.5 31.5h417l108 404h186l-108 -404h246l-47 -174h-246l-118 -443q-30 -114 -86.5 -201t-135 -146t-178.5 -89.5t-217 -30.5q-109 0 -199.5 32.5t-155.5 93t-101 147t-36 194.5zM219 444q0 -71 22 -128 t63.5 -96.5t101 -60.5t135.5 -21q77 0 144 20.5t121 62.5t93.5 105.5t62.5 149.5l110 412h-396q-105 0 -179 -26.5t-125 -68t-81 -92.5t-46 -100t-21 -91.5t-5 -65.5z" />
<glyph unicode="&#x53b;" horiz-adv-x="1304" d="M-46 0l392 1466h191l-128 -477q70 42 159 68.5t198 26.5q101 0 185.5 -28.5t145.5 -79.5t95 -122.5t34 -157.5q0 -65 -20 -140l-33 -122h-191l41 149q15 57 15 104q0 58 -21 102.5t-59.5 75t-93 46t-122.5 15.5q-117 0 -220 -45t-175 -125l-203 -756h-190z" />
<glyph unicode="&#x53c;" horiz-adv-x="1029" d="M-46 0l392 1466h191l-346 -1290h688l-47 -176h-878z" />
<glyph unicode="&#x53d;" horiz-adv-x="1784" d="M-33 0l392 1466h193l-108 -404h540l-157 -586q-21 -77 -21 -137q0 -99 57 -150t178 -51q70 0 124.5 20.5t97.5 62.5t74.5 105.5t54.5 149.5l157 586h195l-160 -605q-33 -126 -83 -216.5t-119 -149t-158 -86t-201 -27.5q-96 0 -171.5 24.5t-128 71t-80 113t-27.5 150.5 q0 38 5.5 77.5t17.5 83.5l105 390h-347l-238 -888h-192z" />
<glyph unicode="&#x53e;" horiz-adv-x="1539" d="M94 445q0 162 71 319t202 298h-168l108 404h186l-63 -234h111q76 58 161 105.5t176.5 81t187.5 51.5t194 18q105 0 187.5 -12.5t146.5 -28.5l-49 -185q-35 12 -69 22.5t-72 18.5t-82 12.5t-97 4.5q-48 0 -99 -6t-102 -18t-100 -29t-93 -38q150 -11 254.5 -54t170 -108.5 t95.5 -148.5t30 -174q0 -47 -14 -122t-47 -160t-88.5 -171.5t-139.5 -156t-198.5 -113t-265.5 -43.5q-146 0 -247.5 39t-165.5 103.5t-92.5 149t-28.5 175.5zM284 445q0 -77 24 -134.5t69.5 -96t110.5 -57.5t146 -19q104 0 186 31.5t143.5 83t104.5 117t70 133.5t39 131.5 t12 112.5q0 73 -26 131.5t-79.5 99t-135.5 62.5t-194 22h-151q-72 -64 -130.5 -137.5t-100.5 -153t-65 -162.5t-23 -164z" />
<glyph unicode="&#x53f;" horiz-adv-x="1404" d="M191 806q0 68 19 138l141 522h191l-149 -549q-15 -57 -15 -104q0 -58 21 -102.5t59.5 -75t93 -46t122.5 -15.5q117 0 221 45.5t176 125.5l85 317h190l-284 -1062h-191l137 511q-69 -43 -159 -69t-199 -26q-112 0 -197.5 29.5t-143.5 82t-88 123.5t-30 155z" />
<glyph unicode="&#x540;" horiz-adv-x="1253" d="M69 681l46 174h473q99 0 168.5 22t113.5 60t64.5 87.5t20.5 105.5q0 37 -13 67t-42.5 51t-77.5 32.5t-117 11.5h-318l47 174h279q109 0 191 -25.5t136.5 -69.5t81.5 -103.5t27 -127.5q0 -59 -18 -118t-58 -110t-103 -91t-153 -61q50 -20 85 -48.5t56.5 -62t31.5 -70 t10 -72.5q1 -29 -4 -58t-12 -56l-105 -393h-186l109 405q5 20 8.5 40.5t3.5 40.5q0 40 -16 76t-49 62t-84.5 41.5t-122.5 15.5h-473z" />
<glyph unicode="&#x541;" horiz-adv-x="1382" d="M-2 260q0 75 33 132t87 95t124 57t144 19q67 0 131.5 -13.5t125.5 -37t118 -56t109 -70.5q63 60 117.5 130t94.5 148t63 163t23 174q0 76 -21 137t-62.5 103t-103.5 64.5t-144 22.5q-110 0 -189 -32t-134 -86t-89.5 -126t-56.5 -152l-12 -44h-191l7 29q28 115 80.5 219 t134.5 182t195.5 124t262.5 46q131 0 227.5 -39t160.5 -106t95 -157t31 -191q0 -104 -26.5 -203.5t-74 -191.5t-112 -174.5t-140.5 -152.5q29 -28 56 -56t51 -56l-58 -211q-46 55 -94.5 107t-100.5 100q-125 -85 -256.5 -132.5t-252.5 -47.5q-59 0 -121 14.5t-114 48 t-85 87.5t-33 133zM179 263q0 -32 14.5 -55.5t38.5 -39t55.5 -23.5t66.5 -8q84 0 179.5 35t190.5 98q-85 61 -169 97.5t-165 36.5q-30 0 -66.5 -5.5t-69 -21t-54 -43t-21.5 -71.5z" />
<glyph unicode="&#x542;" horiz-adv-x="1488" d="M188 888l19 72q70 263 231 395.5t413 132.5q100 0 187.5 -26t152 -75.5t102 -122.5t37.5 -167q0 -65 -19 -137l-211 -786h244l-47 -174h-434l269 1003q12 45 12 87q0 54 -20.5 98t-58.5 75t-93.5 48t-125.5 17q-95 0 -168.5 -26t-128.5 -74.5t-93 -117.5t-60 -156 l-17 -66h-191z" />
<glyph unicode="&#x543;" horiz-adv-x="1521" d="M51 888l47 174h174l10 36q22 81 68.5 149t113 116.5t151.5 75.5t185 27h500l-46 -173h-467q-63 0 -116 -16.5t-93.5 -47t-69.5 -73t-44 -94.5h376q102 0 181 -30.5t134 -83t83.5 -122.5t28.5 -150q0 -58 -17 -123l-148 -553h-560q-96 0 -175.5 26.5t-137.5 76t-90 119.5 t-32 156q0 31 4 64t14 68l101 378h-175zM295 378q0 -202 257 -202h406l109 405q8 27 11 51.5t3 46.5q0 53 -18 92t-50.5 65t-77 39t-98.5 13h-420l-104 -388q-18 -69 -18 -122z" />
<glyph unicode="&#x544;" horiz-adv-x="1507" d="M73 369q0 65 19 137l257 960h191l-267 -996q-14 -53 -14 -96q0 -111 77.5 -175t220.5 -64q95 0 168.5 26.5t128.5 75t92.5 118.5t60.5 157l255 954h444l-46 -172h-253l-211 -788q-71 -263 -233.5 -395.5t-410.5 -132.5q-100 0 -187.5 26t-152 75.5t-102 122.5t-37.5 167z " />
<glyph unicode="&#x545;" horiz-adv-x="1430" d="M37 336q0 45 12 98h188q-8 -24 -11 -45t-3 -41q0 -56 26.5 -95.5t73.5 -65t112 -37.5t142 -12q101 0 184 20t141.5 61.5t90.5 105.5t32 153q0 49 -16.5 87t-53.5 64t-96 39t-143 13h-588l46 174h575q74 0 138.5 8t115.5 32t86 67.5t49 114.5q5 28 5 49q0 46 -19 83.5 t-55 64t-87.5 40.5t-115.5 14q-83 0 -147 -14t-111.5 -44t-79.5 -78t-50 -115l-4 -15h-193l16 60q23 85 70.5 153t119.5 115.5t168.5 72.5t216.5 25q108 0 192.5 -26.5t143.5 -74.5t90 -115t31 -147q0 -59 -18 -118t-55 -109.5t-93 -87.5t-131 -52q38 -12 72 -37t59 -60.5 t39.5 -81.5t14.5 -101q0 -120 -51 -213t-138.5 -156.5t-205.5 -97t-252 -33.5q-108 0 -204.5 21.5t-169.5 65.5t-116 111.5t-43 159.5z" />
<glyph unicode="&#x546;" horiz-adv-x="1437" d="M153 1294l46 172h439l-267 -996q-14 -53 -14 -96q0 -111 77.5 -175t220.5 -64q95 0 169 26.5t129 75t92 118.5t60 157l25 96h191l-27 -102q-69 -263 -232.5 -395.5t-411.5 -132.5q-100 0 -187.5 26t-152 75.5t-102 122.5t-37.5 167q0 65 19 137l211 788h-248z" />
<glyph unicode="&#x547;" horiz-adv-x="1385" d="M73 452q0 156 53 291t145 239.5t216 172.5t267 89q-96 35 -183.5 55t-155.5 20h-55l46 147h55q127 0 244.5 -27.5t224 -69.5t201.5 -93t178 -98l-54 -174q-57 32 -113 61.5t-110 55.5q-16 1 -31.5 1.5t-31.5 0.5q-164 0 -294.5 -54.5t-222 -146.5t-140 -212.5 t-48.5 -251.5q0 -64 18.5 -122t58 -102t102.5 -70t152 -26q102 0 178.5 32.5t132 87t91.5 126t58 150.5l12 44h197l-21 -77q-27 -101 -80 -195t-134 -167t-191.5 -117t-253.5 -44q-128 0 -223.5 37t-159.5 101.5t-96 151t-32 184.5z" />
<glyph unicode="&#x548;" horiz-adv-x="1400" d="M-46 0l257 960q71 263 233.5 395.5t410.5 132.5q100 0 187.5 -26t152 -75.5t102 -122.5t37.5 -167q0 -65 -19 -137l-257 -960h-191l267 996q14 53 14 96q0 111 -77.5 175t-220.5 64q-95 0 -168.5 -26.5t-128.5 -75t-92.5 -118.5t-60.5 -157l-255 -954h-191z" />
<glyph unicode="&#x549;" horiz-adv-x="1372" d="M155 265l55 173q63 -24 120.5 -46.5t111.5 -45.5q177 3 313.5 58.5t229.5 147.5t141 211t48 249q0 66 -15.5 123.5t-52.5 100t-98.5 67.5t-152.5 25q-110 0 -190.5 -33.5t-137.5 -89t-92.5 -126.5t-54.5 -147l-11 -44h-196l23 86q25 96 77 188t133.5 164.5t195 117 t262.5 44.5q128 0 222 -35.5t155.5 -99t91.5 -152.5t30 -197q0 -94 -22.5 -183t-65.5 -168.5t-104 -147.5t-138.5 -121.5t-169.5 -89.5t-196 -51q58 -29 113 -59.5t110 -64.5l-55 -175q-69 43 -155.5 88.5t-178.5 88t-181.5 80t-164.5 64.5z" />
<glyph unicode="&#x54a;" horiz-adv-x="1653" d="M118 888l27 101q36 133 110 228t175.5 155t224.5 88t256 28q137 0 253 -28.5t201 -84t132.5 -137.5t47.5 -190q0 -69 -21 -148l-241 -900h-191l250 934q15 57 15 107q0 60 -22 108t-63.5 83.5t-101.5 58t-136 32.5l-175 -652h-190l176 658q-102 -6 -186 -30.5 t-148.5 -70.5t-109 -113.5t-69.5 -159.5l-18 -67h-196z" />
<glyph unicode="&#x54b;" horiz-adv-x="1445" d="M-72 0l88 333h190l-42 -157h161q106 31 209 76t195 103t170 129t134.5 154t88.5 177.5t32 199.5q0 87 -30.5 146.5t-84 96t-127 52.5t-159.5 16q-67 0 -139.5 -7t-143.5 -24q-15 -39 -32.5 -82t-31.5 -86.5t-23.5 -86.5t-9.5 -82q0 -63 32.5 -106.5t98.5 -79.5t167 -71 t238 -82q-32 -45 -63 -78.5t-64 -58.5q-77 28 -151 53t-140 51.5t-121.5 57.5t-96 72t-63 94t-22.5 124q0 54 12.5 112.5t33.5 121.5t47.5 130t55.5 138q49 14 101 24t104 16t103 9t98 3q132 0 243 -27.5t190.5 -85t124 -146t44.5 -210.5q0 -144 -50 -273t-136 -237 t-200 -192.5t-243 -140.5h425l-47 -176h-1166z" />
<glyph unicode="&#x54c;" horiz-adv-x="1404" d="M14 0l257 960q71 263 233.5 395.5t410.5 132.5q100 0 187.5 -26t152 -75.5t102 -122.5t37.5 -167q0 -65 -19 -137l-95 -352h243l-47 -174h-242l-116 -434h-191l267 996q14 53 14 96q0 111 -77.5 175t-220.5 64q-95 0 -168.5 -26.5t-128.5 -75t-92.5 -118.5t-60.5 -157 l-255 -954h-191z" />
<glyph unicode="&#x54d;" horiz-adv-x="1400" d="M71 369q0 65 19 137l257 960h191l-267 -996q-14 -53 -14 -96q0 -111 77.5 -175t220.5 -64q95 0 168.5 26.5t128.5 75t92.5 118.5t60.5 157l255 954h191l-257 -960q-71 -263 -233.5 -395.5t-410.5 -132.5q-100 0 -187.5 26t-152 75.5t-102 122.5t-37.5 167z" />
<glyph unicode="&#x54e;" horiz-adv-x="1440" d="M121 812q0 32 4 65t14 67l33 118h191l-41 -145q-8 -29 -11.5 -55t-3.5 -49q0 -58 21 -102.5t59.5 -75t93 -46t122.5 -15.5q118 0 222 46t176 127l193 719h191l-347 -1292h242l-47 -174h-432l136 509q-71 -45 -161.5 -69t-202.5 -24q-105 0 -188.5 29.5t-142 82.5 t-90 125.5t-31.5 158.5z" />
<glyph unicode="&#x54f;" horiz-adv-x="1270" d="M-60 336q0 23 2.5 47.5t8.5 50.5h189q-13 -42 -13 -81q0 -59 29 -99.5t77.5 -66.5t112 -37.5t132.5 -11.5q214 0 321.5 69.5t107.5 206.5q0 44 -17.5 82t-58.5 72t-107.5 64t-164.5 59q-65 19 -130 49t-117.5 75t-85 105t-32.5 139q0 106 44 186.5t120 134.5t177 81 t214 27q123 0 214.5 -27.5t152 -74.5t90.5 -110t30 -135q0 -20 -1.5 -39.5t-6.5 -39.5h-193q6 28 6 55q0 46 -18.5 85t-56.5 67t-95 43.5t-134 15.5q-78 0 -142 -17t-110 -48.5t-71.5 -77.5t-25.5 -104q0 -51 22.5 -89t64 -67.5t101 -53t133.5 -45.5q84 -25 155.5 -60.5 t124.5 -84.5t83 -111t30 -139q0 -93 -37 -175.5t-114.5 -144t-198 -97.5t-287.5 -36q-121 0 -218 24t-165.5 70t-105 112.5t-36.5 151.5z" />
<glyph unicode="&#x550;" horiz-adv-x="1334" d="M-49 0l257 960q70 263 236 395.5t414 132.5q100 0 186 -26t150 -75.5t100.5 -122t36.5 -165.5q0 -32 -4 -67t-15 -72l-20 -72h-191l30 105q13 48 13 93q0 55 -20.5 100t-58.5 76.5t-93 48.5t-125 17q-95 0 -168.5 -26.5t-128.5 -75t-92.5 -118.5t-60.5 -157l-255 -951 h-191z" />
<glyph unicode="&#x551;" horiz-adv-x="1387" d="M22 336q0 45 12 98h190q-16 -45 -16 -87q0 -99 88.5 -154t258.5 -55q90 0 165.5 14t133 45.5t95.5 82.5t54 125q9 42 9 78q0 103 -77.5 150.5t-243.5 47.5h-578l46 174h196q-41 29 -62.5 80t-21.5 114q0 35 7 69q16 80 64 148t123 117.5t175 77t220 27.5q105 0 190 -26 t145 -72.5t92 -111t32 -141.5q0 -47 -12.5 -102t-45.5 -106.5t-91 -93.5t-148 -64q83 -30 133 -103t50 -176q0 -56 -16 -116q-27 -101 -85 -175.5t-141.5 -124t-189.5 -74t-227 -24.5q-108 0 -203 22t-166.5 66.5t-113 112t-41.5 157.5zM459 1047q0 -48 20 -84t57 -60 t87.5 -36t112.5 -12q78 0 143 10t114.5 35t82.5 68t47 109q6 27 6 52q0 47 -20 84t-56 62.5t-87 39t-113 13.5q-69 0 -133.5 -12.5t-117 -40t-88.5 -71.5t-49 -106q-6 -27 -6 -51z" />
<glyph unicode="&#x552;" horiz-adv-x="946" d="M-41 0l392 1466h191l-108 -404h599l-47 -174h-599l-238 -888h-190z" />
<glyph unicode="&#x553;" horiz-adv-x="1807" d="M101 583q0 48 7.5 102t24.5 114q33 121 99 219t166 166.5t234.5 105.5t302.5 37h36l38 139h186l-38 -139h18q126 0 225 -29t167.5 -85t104 -137.5t35.5 -187.5q0 -95 -30 -207q-35 -129 -100.5 -226.5t-164.5 -163t-233.5 -98t-306.5 -32.5h-27l-43 -161h-186l43 161h-17 q-127 0 -227.5 26t-170 78.5t-106.5 131.5t-37 186zM287 583q0 -62 20 -111.5t64 -84t115.5 -53t173.5 -18.5h40l230 856h-21q-140 0 -241.5 -30.5t-172 -86t-114 -132t-67.5 -168.5q-13 -48 -20 -90.5t-7 -81.5zM886 316h14q140 0 240.5 26.5t169.5 77t112 124.5t69 170 q24 87 24 165q0 64 -19.5 118t-63 93t-113.5 60.5t-170 21.5h-33z" />
<glyph unicode="&#x554;" horiz-adv-x="1447" d="M-112 138l47 176h157l190 708q33 123 91 211t137.5 145t177.5 83.5t211 26.5q107 0 198.5 -28.5t158.5 -82.5t105 -132.5t38 -177.5q0 -138 -49.5 -245t-134.5 -180t-197.5 -110.5t-238.5 -37.5q-125 0 -232 35t-178 104l-86 -319h898l-47 -176h-898l-37 -138h-191 l37 138h-157zM417 813q56 -78 152 -118t211 -40q98 0 176.5 27.5t133.5 80t84.5 128t29.5 171.5q0 61 -21.5 110.5t-61.5 84t-98 53t-131 18.5q-84 0 -152 -18.5t-121.5 -59t-92 -105t-62.5 -155.5z" />
<glyph unicode="&#x555;" horiz-adv-x="1464" d="M49 477q0 60 9.5 124t27.5 132q42 157 105 294.5t156.5 240t222.5 161.5t303 59q140 0 241.5 -37t167.5 -103.5t98 -158.5t32 -201q0 -120 -36 -255q-28 -104 -65 -201t-85 -180.5t-109.5 -152.5t-140 -118t-174.5 -76t-214 -27q-140 0 -241.5 37t-167.5 103.5t-98 158 t-32 200.5zM242 468q0 -164 86 -247t263 -83q121 0 213 38.5t162.5 114t121.5 186.5t90 256q41 155 41 267q0 328 -349 328q-121 0 -213 -38.5t-162.5 -114t-121.5 -186.5t-90 -256q-41 -153 -41 -265z" />
<glyph unicode="&#x556;" horiz-adv-x="1704" d="M115 405q0 34 4.5 70t15.5 74l16 59h201l-24 -88q-16 -57 -16 -110q0 -68 25.5 -119t70.5 -85t106 -51t131 -17h21l203 760h-64q-73 0 -137.5 15.5t-113 47.5t-76.5 79.5t-28 112.5q0 94 36.5 155t95.5 96t133 48.5t149 13.5h344l-109 -404h18q120 0 210 -30t151 -85 t91.5 -132t30.5 -171q0 -42 -9 -107t-36 -139t-77.5 -149t-134 -135t-205 -98t-289.5 -38h-197q-125 0 -224.5 31t-169 87t-106.5 135t-37 174zM641 1168q0 -51 39 -78.5t121 -27.5h112l66 244h-120q-47 0 -86.5 -5.5t-69 -21t-46 -42.5t-16.5 -69zM852 138h17 q97 0 171.5 18t131 48t96 69.5t66 82.5t41.5 86.5t23 82t10 69t2 47.5q0 54 -13.5 101t-49.5 81.5t-98.5 54.5t-159.5 20h-34z" />
<glyph unicode="&#x559;" horiz-adv-x="535" d="M437 971l55 205q29 108 90 181.5t149 108.5l27 -77q-63 -25 -103 -73.5t-64 -139.5h98l-55 -205h-197z" />
<glyph unicode="&#x55a;" horiz-adv-x="486" d="M210 1048q63 25 103 73.5t64 139.5h-98l55 205h197l-55 -205q-29 -108 -90 -181.5t-149 -108.5z" />
<glyph unicode="&#x55b;" horiz-adv-x="472" d="M-35 1177l319 389h223l-349 -389h-193z" />
<glyph unicode="&#x55c;" horiz-adv-x="497" d="M-54 1177q2 67 22 114.5t52 81.5t72 57t82.5 41.5t84.5 34.5t77 36t61 46.5t36 65.5q2 9 3.5 16.5t0.5 12.5v8h113q-2 -67 -22.5 -114.5t-52 -81.5t-71.5 -57t-82.5 -41.5t-84.5 -34.5t-77.5 -36t-61.5 -46.5t-36 -65.5q-5 -22 -5 -30q0 -2 0.5 -3.5t0.5 -3.5h-112z" />
<glyph unicode="&#x55d;" horiz-adv-x="458" d="M69 1566h223l110 -389h-194z" />
<glyph unicode="&#x55e;" horiz-adv-x="582" d="M-33 1196v19q0 86 25 169t75.5 148.5t125.5 106t174 40.5q45 0 84.5 -11.5t69.5 -34t47 -56t17 -78.5q0 -13 -2 -27t-5 -29q-9 -40 -33.5 -72.5t-59 -55t-77 -35t-87.5 -12.5l30 112q46 0 76 26t30 74q0 34 -23 57t-70 23q-73 0 -125.5 -31.5t-86.5 -81t-50 -111 t-16 -121.5q0 -10 0.5 -19.5t1.5 -18.5h-120q-1 10 -1 19z" />
<glyph unicode="&#x55f;" horiz-adv-x="1148" d="M177 1566l103 388h145l-68 -254h823l-35 -134h-968z" />
<glyph unicode="&#x561;" horiz-adv-x="1643" d="M30 233q0 29 4 58.5t12 58.5l192 712h174l-194 -718q-17 -62 -17 -110q0 -24 4 -44t15.5 -34t31 -21.5t50.5 -7.5q50 0 109.5 35t118.5 105.5t112 175.5t91 245l101 374h174l-194 -718q-17 -62 -17 -110q0 -24 4 -44t15.5 -34t31 -21.5t50.5 -7.5q50 0 109.5 35 t119 105.5t112.5 175.5t91 245l100 374h174l-285 -1062h-158l48 167q5 17 13 40.5t13 40.5q-29 -66 -69.5 -116.5t-88.5 -84.5t-100 -51.5t-103 -17.5q-65 0 -112 19.5t-77 52t-44 75t-14 89.5q0 8 3 22q-30 -74 -74 -123.5t-92.5 -79.5t-97 -42.5t-88.5 -12.5 q-68 0 -115.5 20.5t-77 55t-42.5 81t-13 98.5z" />
<glyph unicode="&#x562;" horiz-adv-x="1055" d="M-153 -407l394 1469h158l-53 -186q-5 -17 -13 -40.5t-13 -40.5q27 67 70 120.5t94 91t106 57.5t106 20q68 0 117 -20.5t80.5 -55t46 -81t14.5 -98.5q0 -29 -4 -58.5t-12 -58.5l-105 -390h-174l107 396q17 62 17 110q0 49 -24.5 78t-86.5 29q-54 0 -116 -35t-122 -105.5 t-113.5 -175.5t-90.5 -245l-59 -219h681l-41 -155h-681l-109 -407h-174z" />
<glyph unicode="&#x563;" horiz-adv-x="1162" d="M10 328q0 78 17.5 164t54 170t92 160.5t132 134.5t174.5 92.5t219 34.5q27 0 67 -2t88 -9.5t102 -21t108 -35.5l-229 -861h190l-41 -155h-191l-108 -407h-173l134 501q7 26 16 55t20 56q-18 -43 -51 -83.5t-78.5 -72.5t-102 -51.5t-121.5 -19.5q-69 0 -127 21.5t-101 65 t-67 109.5t-24 154zM184 332q0 -104 42 -155t136 -51q66 0 132 44t124.5 120.5t107 178.5t79.5 219l58 218q-29 14 -71.5 20.5t-96.5 6.5q-95 0 -170 -30.5t-132 -80t-96.5 -113t-64.5 -130.5t-36.5 -131.5t-11.5 -115.5z" />
<glyph unicode="&#x564;" horiz-adv-x="1077" d="M-44 0l285 1062h158l-47 -171q-5 -17 -13 -40.5t-13 -40.5q27 66 69 117t91 86t102.5 53t104.5 18q68 0 117.5 -20.5t81.5 -55t47 -81t15 -98.5q0 -29 -4 -58.5t-12 -58.5l-150 -557h191l-42 -155h-191l-108 -407h-175l303 1125q17 62 17 110q0 49 -24.5 78t-86.5 29 q-54 0 -116 -35t-122 -105.5t-113.5 -175.5t-90.5 -245l-100 -374h-174z" />
<glyph unicode="&#x565;" horiz-adv-x="1065" d="M29 233q-1 29 3.5 58.5t12.5 58.5l299 1116h174l-109 -404h678l-42 -155h-678l-151 -563q-17 -62 -17 -110q0 -49 24.5 -77t86.5 -28q50 0 106.5 30t113 89.5t108 149.5t90.5 210h176l-163 -608h-158l55 194q4 14 10.5 34t12.5 34q-27 -63 -68.5 -115.5t-91.5 -90 t-105.5 -58t-109.5 -20.5q-68 0 -117 20.5t-80 55t-45.5 81t-14.5 98.5z" />
<glyph unicode="&#x566;" horiz-adv-x="1063" d="M29 233q-1 29 3.5 58.5t12.5 58.5l191 712h174l-193 -718q-17 -62 -17 -110q0 -49 24 -78t86 -29q54 0 115.5 35t121.5 105.5t113.5 175.5t91.5 245l100 374h174l-353 -1314h189l-42 -155h-362l151 562q4 14 11 34t12 34q-20 -48 -56.5 -92.5t-83 -78.5t-99.5 -54 t-107 -20q-68 0 -117 20.5t-80 55t-45.5 81t-14.5 98.5z" />
<glyph unicode="&#x567;" horiz-adv-x="927" d="M-44 0l392 1466h176l-108 -404h599l-42 -155h-599l-201 -752h476l-42 -155h-651z" />
<glyph unicode="&#x568;" horiz-adv-x="1058" d="M-153 -407l392 1469h158l-53 -186q-5 -17 -13 -40.5t-13 -40.5q27 67 70 120.5t94 91t106 57.5t106 20q68 0 117 -20.5t80.5 -55t46 -81t14.5 -98.5q0 -29 -4 -58.5t-12 -58.5l-192 -712h-174l194 718q17 62 17 110q0 49 -24.5 78t-86.5 29q-54 0 -115.5 -35t-122 -105.5 t-114 -175.5t-90.5 -245l-166 -626h676l-41 -155h-850z" />
<glyph unicode="&#x569;" horiz-adv-x="1368" d="M-153 -407l392 1469h158l-53 -186q-5 -17 -13 -40.5t-13 -40.5q29 71 77.5 125t110.5 91t134 55.5t148 18.5q103 0 176.5 -29.5t120.5 -81t69.5 -121.5t22.5 -152q0 -11 -1 -31.5t-3 -47.5h137l-38 -152h-121q-11 -54 -28.5 -111t-43.5 -111.5t-61.5 -103.5t-82.5 -85.5 t-106.5 -58t-133.5 -21.5q-64 0 -116.5 19.5t-90 54.5t-58 83.5t-20.5 105.5q0 96 32 167.5t83.5 118.5t117 70.5t131.5 23.5h227q2 29 3 49t1 27q0 46 -9.5 89.5t-36 77.5t-74 54t-122.5 20q-90 0 -170.5 -33.5t-148.5 -103.5t-122.5 -176.5t-93.5 -251.5l-207 -781h-174z M568 252q0 -55 33 -89.5t105 -34.5q62 0 108 31t78.5 80.5t53.5 110t33 120.5h-203q-55 0 -94 -18t-64.5 -48.5t-37.5 -70t-12 -81.5z" />
<glyph unicode="&#x56a;" horiz-adv-x="1190" d="M27 358q0 28 5 73t17.5 99.5t33.5 115t53.5 120t77 113t104.5 94.5t136 65t171 24h270l109 404h172l-108 -404h190l-42 -155h-190l-111 -417q-32 -121 -77.5 -216t-108.5 -161t-145.5 -100.5t-189.5 -34.5q-91 0 -160 27t-115 76.5t-69 119.5t-23 157zM202 349 q0 -111 47 -167.5t152 -56.5q73 0 127.5 27.5t95.5 78.5t71.5 125t55.5 167l103 384h-241q-89 0 -153.5 -34t-110.5 -87t-74.5 -117.5t-44.5 -126.5t-22 -114t-6 -79z" />
<glyph unicode="&#x56b;" horiz-adv-x="1060" d="M-153 -407l502 1873h173l-145 -539q-2 -8 -7.5 -22.5t-12 -30t-12 -30t-7.5 -22.5q25 60 64.5 108.5t87 82.5t100 52.5t103.5 18.5q68 0 117.5 -20.5t81.5 -55t47 -81t15 -98.5q0 -29 -4 -58.5t-12 -58.5l-192 -712h-174l194 718q17 62 17 110q0 49 -24.5 78t-86.5 29 q-54 0 -116 -35t-122 -105.5t-113.5 -175.5t-90.5 -245l-209 -781h-174z" />
<glyph unicode="&#x56c;" horiz-adv-x="455" d="M-153 -407l392 1469h176l-352 -1314h270l-41 -155h-445z" />
<glyph unicode="&#x56d;" horiz-adv-x="1646" d="M-153 -407l501 1873h174l-147 -545q-5 -17 -13 -40.5t-13 -40.5q22 52 59 97t82 77.5t95 51t100 18.5q65 0 112 -19.5t77 -52t44 -75.5t14 -89q0 -2 -1 -18t-4 -41t-8 -56.5t-14 -62.5l-88 -326q-17 -62 -17 -110q0 -24 4 -44t15.5 -34t31 -21.5t50.5 -7.5q50 0 109.5 35 t119 105.5t112.5 175.5t91 245l100 374h174l-285 -1062h-158l53 186q5 17 13 40.5t13 40.5q-27 -67 -68.5 -120.5t-90.5 -91t-102.5 -57.5t-104.5 -20q-65 0 -112 19.5t-77 52t-44 75t-14 89.5q0 1 1 17.5t4 41.5t8 56t14 63l88 326q17 62 17 110q0 24 -4.5 44t-15.5 34 t-30.5 21.5t-50.5 7.5q-50 0 -110 -35t-119 -105.5t-112.5 -175.5t-90.5 -245l-208 -781h-174z" />
<glyph unicode="&#x56e;" horiz-adv-x="1103" d="M38 321q0 42 9 108t31 142t59.5 155t94.5 146t135.5 116t183.5 66l-189 159l240 253h222l-229 -235l204 -169h302l-41 -150h-129q56 -100 56 -220q0 -41 -12.5 -110t-41 -148.5t-74 -160.5t-111 -146.5t-152.5 -107t-198 -41.5q-81 0 -147.5 20t-114 61.5t-73 106.5 t-25.5 155zM211 330q0 -45 8.5 -82.5t31 -64.5t62 -42t101.5 -15q76 0 135.5 34.5t103.5 88.5t74 119.5t49 126.5t27 110.5t8 72.5q0 82 -25 136.5t-68 97.5h-74q-86 0 -151.5 -34t-114 -87.5t-80.5 -120t-51.5 -131t-27.5 -120.5t-8 -89z" />
<glyph unicode="&#x56f;" horiz-adv-x="1065" d="M29 233q0 60 16 117l299 1116h174l-301 -1122q-17 -62 -17 -110q0 -49 24 -78t86 -29q54 0 115.5 35t121.5 105.5t113.5 175.5t91.5 245l100 374h174l-394 -1469h-174l149 556q4 14 12.5 37t16.5 46q-20 -49 -57 -94.5t-84 -81t-101 -57t-108 -21.5q-68 0 -117 21.5 t-80 57t-45.5 81.5t-14.5 95z" />
<glyph unicode="&#x570;" horiz-adv-x="1060" d="M-44 0l393 1466h174l-152 -566q-5 -17 -12.5 -37.5t-15.5 -43.5q25 61 64 110.5t86.5 83.5t99.5 52.5t103 18.5q68 0 117 -20.5t80.5 -55t46 -81t14.5 -98.5q0 -29 -4 -58.5t-12 -58.5l-192 -712h-174l194 718q17 62 17 110q0 49 -24.5 78t-86.5 29q-54 0 -116 -35 t-122 -105.5t-113.5 -175.5t-90.5 -245l-100 -374h-174z" />
<glyph unicode="&#x571;" horiz-adv-x="1078" d="M12 265q0 111 34.5 230.5t112.5 234t204.5 216.5t310.5 179q5 2 12.5 4.5t13.5 3.5q-6 1 -14 2.5t-13 3.5q-56 18 -107.5 41t-90.5 53.5t-62 70.5t-23 93q0 31 9 69h174q-2 -10 -3 -18.5t-1 -16.5q0 -32 17 -55.5t51.5 -44t87.5 -40.5t126 -45q35 -12 50.5 -34t15.5 -48 q0 -13 -3 -25q-15 -58 -50 -87t-93 -48l-30 -11q41 -18 78 -46t64.5 -65.5t44 -83t16.5 -99.5q0 -47 -13 -96l-162 -603h-158l53 194q4 14 10.5 34t12.5 34q-27 -63 -69 -115.5t-94 -90t-111 -58t-119 -20.5q-65 0 -117 18t-88.5 54t-56.5 90t-20 125zM184 287 q0 -36 6 -65.5t21.5 -50.5t41.5 -32.5t65 -11.5q61 0 125 33.5t123.5 98t110 158.5t85.5 214q10 34 10 68q0 43 -15.5 79t-41.5 64.5t-59.5 48.5t-69.5 31q-106 -61 -182 -140t-125 -164.5t-72 -171t-23 -159.5z" />
<glyph unicode="&#x572;" horiz-adv-x="1070" d="M-44 0l285 1062h158l-47 -171q-5 -17 -13 -40.5t-13 -40.5q27 66 69 117t91 86t102.5 53t104.5 18q68 0 117.5 -20.5t81.5 -55t47 -81t15 -98.5q0 -29 -4 -58.5t-12 -58.5l-259 -964h190l-42 -155h-364l303 1125q17 62 17 110q0 49 -24.5 78t-86.5 29q-54 0 -116 -35 t-122 -105.5t-113.5 -175.5t-90.5 -245l-100 -374h-174z" />
<glyph unicode="&#x573;" horiz-adv-x="1106" d="M29 286q0 63 15 137t43.5 154.5t69 164t91.5 165.5h-74l42 155h141q67 85 145 159t164 128.5t178 85.5t188 31h149l-42 -155h-116q-60 0 -119.5 -18t-118 -51t-114.5 -79t-108 -101q81 -1 154 -21.5t128 -62.5t87.5 -106.5t32.5 -153.5q0 -34 -5 -71.5t-16 -79.5 l-152 -567h-158l53 194q4 14 10.5 34t12.5 34q-27 -63 -69 -115.5t-94 -90t-111 -58t-119 -20.5q-67 0 -120 19.5t-90.5 58t-57.5 96t-20 134.5zM200 287q0 -36 7.5 -65.5t24 -50.5t43.5 -32.5t66 -11.5q58 0 120.5 30.5t120.5 89t108 144.5t83 198q11 35 15.5 66t4.5 58 q0 97 -65 145.5t-201 48.5h-91q-53 -76 -96.5 -157t-74.5 -161.5t-48 -157.5t-17 -144z" />
<glyph unicode="&#x574;" horiz-adv-x="1065" d="M29 233q-1 29 3.5 58.5t12.5 58.5l191 712h174l-193 -718q-17 -62 -17 -110q0 -49 24 -78t86 -29q54 0 115.5 35t121.5 105.5t113.5 175.5t91.5 245l209 778h363l-42 -155h-190l-351 -1311h-158l53 194q3 12 9 30t11 32q-27 -62 -68 -113.5t-90.5 -88t-104 -56.5 t-107.5 -20q-68 0 -117 20.5t-80 55t-45.5 81t-14.5 98.5zM656 256l3 6z" />
<glyph unicode="&#x575;" horiz-adv-x="446" d="M-441 -418l42 154q25 -5 47 -9t48 -4q45 0 82.5 9.5t67.5 35t54 71.5t44 118l296 1105h176l-296 -1105q-31 -116 -78 -190.5t-105.5 -117.5t-126.5 -59t-141 -16q-26 0 -54.5 2t-55.5 6z" />
<glyph unicode="&#x576;" horiz-adv-x="1065" d="M29 233q0 22 4 55t12 62l257 961h-190l41 155h366l-302 -1122q-17 -62 -17 -110q0 -49 24 -78t86 -29q54 0 115.5 35t121.5 105.5t113.5 175.5t91.5 245l100 374h174l-285 -1062h-158l53 194q3 12 9 30t11 32q-27 -62 -68 -113.5t-90.5 -88t-104 -56.5t-107.5 -20 q-68 0 -117 20.5t-80 55t-45.5 81t-14.5 98.5z" />
<glyph unicode="&#x577;" horiz-adv-x="797" d="M-253 -236q0 53 34.5 106.5t91 109t128.5 112.5t147.5 117.5t147.5 124t128.5 131t91 140t34.5 150.5q0 53 -17.5 87.5t-48 55t-72.5 28.5t-90 8q-37 0 -66 -2.5t-54.5 -7t-50 -10t-53.5 -12.5l43 160q21 4 42.5 8t46.5 7t55.5 5t69.5 2q86 0 155 -21.5t117 -63.5 t74 -103t26 -139q0 -87 -34.5 -169.5t-90.5 -159t-127.5 -147t-146.5 -133.5t-146.5 -118.5t-127.5 -102t-90.5 -84t-34.5 -64.5q0 -17 10.5 -24t27.5 -7h451l-41 -155h-446q-39 0 -73 11.5t-58.5 33.5t-38.5 54t-14 72z" />
<glyph unicode="&#x578;" horiz-adv-x="1060" d="M-44 0l285 1062h158l-47 -171q-5 -17 -13 -40.5t-13 -40.5q27 66 69 117t91 86t102.5 53t104.5 18q68 0 117.5 -20.5t81.5 -55t47 -81t15 -98.5q0 -29 -4 -58.5t-12 -58.5l-192 -712h-174l194 718q17 62 17 110q0 49 -24.5 78t-86.5 29q-54 0 -116 -35t-122 -105.5 t-113.5 -175.5t-90.5 -245l-100 -374h-174z" />
<glyph unicode="&#x579;" horiz-adv-x="731" d="M-210 -235q0 49 30 98.5t79.5 100t113 101.5t131 104t133.5 108t120 112q-59 30 -111 61t-91 69t-61.5 86t-22.5 112q0 43 10 90t25.5 92.5t33.5 87.5t33 75h182q-16 -33 -34 -74.5t-33 -85t-24.5 -86t-9.5 -76.5q0 -38 15.5 -68.5t42 -57t61.5 -49t74.5 -43.5t81 -41.5 t80.5 -41.5q-47 -69 -115 -137t-143.5 -132.5t-150 -123t-134.5 -108.5t-97 -90.5t-37 -67.5q0 -17 10.5 -24t27.5 -7h451l-41 -155h-446q-39 0 -73 11.5t-58.5 33.5t-38.5 54t-14 72z" />
<glyph unicode="&#x57a;" horiz-adv-x="1643" d="M30 233q0 29 4 58.5t12 58.5l192 712h174l-194 -718q-17 -62 -17 -110q0 -24 4 -44t15.5 -34t31 -21.5t50.5 -7.5q50 0 109.5 35t118.5 105.5t112 175.5t91 245l101 374h174l-194 -718q-17 -62 -17 -110q0 -24 4 -44t15.5 -34t31 -21.5t50.5 -7.5q50 0 109.5 35 t119 105.5t112.5 175.5t91 245l100 374h174l-394 -1469h-174l149 554q5 17 13 40.5t13 40.5q-29 -66 -66 -113.5t-80 -78t-91.5 -44.5t-99.5 -14q-65 0 -112 19.5t-77 52t-44 75t-14 89.5q0 8 3 22q-30 -74 -74 -123.5t-92.5 -79.5t-97 -42.5t-88.5 -12.5q-68 0 -115.5 20.5 t-77 55t-42.5 81t-13 98.5z" />
<glyph unicode="&#x57b;" horiz-adv-x="1061" d="M-129 -239q0 61 40 115t106 105.5t150.5 102.5t172.5 105l-112 59q-151 79 -151 251q0 42 13.5 101.5t35 130t49.5 149.5t57 160q35 9 80 17t94 14t98 9.5t93 3.5q196 0 294.5 -82.5t98.5 -227.5q0 -111 -40.5 -206t-106.5 -176t-150.5 -149.5t-172.5 -126.5 t-172.5 -106.5t-150.5 -89.5t-106.5 -76t-40.5 -66q0 -15 11 -22.5t28 -7.5h591l-41 -155h-586q-45 0 -79 13t-57 36t-34.5 53.5t-11.5 65.5zM253 509q0 -45 22.5 -81t80.5 -67l135 -73q66 47 125 99t103 111t69.5 126t25.5 144q0 45 -18 77t-48 53t-70 30.5t-85 9.5 q-67 0 -127 -7.5t-98 -16.5q-20 -53 -40.5 -112.5t-37 -115t-27 -102.5t-10.5 -75z" />
<glyph unicode="&#x57c;" horiz-adv-x="1117" d="M-44 0l285 1062h158l-51 -186q-5 -17 -13 -40.5t-13 -40.5q30 72 76 126.5t100.5 90.5t112.5 54.5t111 18.5q75 0 129 -23t89 -64.5t52 -99.5t17 -128q0 -78 -23 -158.5t-63 -156.5t-93 -142.5t-114 -115.5q-11 -9 -27.5 -21.5t-37.5 -20.5h274l-42 -155h-488l34 125 q81 56 155 126.5t130 152t89 173t33 189.5q0 84 -35 126.5t-112 42.5q-59 0 -123.5 -34t-126.5 -103.5t-116.5 -175t-92.5 -248.5l-100 -374h-174z" />
<glyph unicode="&#x57d;" horiz-adv-x="1071" d="M29 233q-1 29 3.5 58.5t12.5 58.5l191 712h174l-193 -718q-17 -62 -17 -110q0 -49 24 -78t86 -29q54 0 115.5 35t121.5 105.5t113.5 175.5t91.5 245l100 374h174l-285 -1062h-158l53 194q4 14 10.5 34t12.5 34q-27 -63 -68 -115.5t-91 -90t-105 -58t-109 -20.5 q-68 0 -117 20.5t-80 55t-45.5 81t-14.5 98.5z" />
<glyph unicode="&#x57e;" horiz-adv-x="1065" d="M29 233q-1 29 3.5 58.5t12.5 58.5l191 712h174l-193 -718q-17 -62 -17 -110q0 -49 24 -78t86 -29q54 0 115.5 35t121.5 105.5t113.5 175.5t91.5 245l209 778h174l-462 -1718h189l-42 -155h-362l151 562q4 14 11 34t12 34q-20 -48 -56.5 -92.5t-83 -78.5t-99.5 -54 t-107 -20q-68 0 -117 20.5t-80 55t-45.5 81t-14.5 98.5z" />
<glyph unicode="&#x57f;" horiz-adv-x="1633" d="M31 214q0 1 1 17.5t4 41.5t8 56t14 63l180 670h174l-194 -718q-17 -62 -17 -110q0 -24 4 -44t15.5 -34t31 -21.5t50.5 -7.5q50 0 109.5 35t119 105.5t112.5 175.5t91 245l100 374h158l-53 -186q-5 -17 -13 -40.5t-13 -40.5q27 67 68.5 120.5t90.5 91t102.5 57.5t104.5 20 q65 0 112 -19.5t77 -52t44 -75.5t14 -89q0 -2 -1.5 -18t-4.5 -41t-8 -56.5t-13 -62.5l-180 -670h-174l194 718q17 62 17 110q0 24 -4.5 44t-15.5 34t-30.5 21.5t-50.5 7.5q-50 0 -109 -35t-118 -105.5t-112.5 -175.5t-91.5 -245l-101 -374h-158l53 186q5 17 13 40.5t13 40.5 q-27 -67 -68.5 -120.5t-90.5 -91t-102.5 -57.5t-104.5 -20q-65 0 -112 19.5t-77 52t-44 75t-14 89.5z" />
<glyph unicode="&#x580;" horiz-adv-x="1063" d="M-153 -407l392 1469h158l-53 -186q-5 -17 -13 -40.5t-13 -40.5q27 67 70 120.5t94 91t106 57.5t106 20q68 0 117 -20.5t80.5 -55t46 -81t14.5 -98.5q0 -29 -4 -58.5t-12 -58.5l-192 -712h-174l194 718q17 62 17 110q0 49 -24.5 78t-86.5 29q-54 0 -115.5 -35t-122 -105.5 t-114 -175.5t-90.5 -245l-207 -781h-174z" />
<glyph unicode="&#x581;" horiz-adv-x="1117" d="M-42 -398l41 154q19 -7 44 -12.5t52.5 -9t56 -5.5t55.5 -2q76 0 142 14.5t119.5 48t93 88.5t63.5 137l23 79q8 26 16 55t19 58q-18 -43 -53 -84t-82 -73.5t-103 -52t-116 -19.5q-69 0 -127 21.5t-101 65t-67 109.5t-24 154q0 78 17.5 164t54 170t92 160.5t132 134.5 t174.5 92.5t219 34.5q27 0 67 -2t88 -9.5t102 -21t108 -35.5l-264 -991q-31 -117 -88 -202.5t-135 -141t-175.5 -82t-209.5 -26.5q-26 0 -57 2t-62.5 5.5t-61 9t-53.5 12.5zM184 332q0 -104 42 -154.5t136 -50.5q66 0 132 44t125 120t107.5 178t79.5 219l58 218 q-29 14 -72 20.5t-97 6.5q-95 0 -170 -30.5t-132 -80t-96.5 -113t-64.5 -130.5t-36.5 -131.5t-11.5 -115.5z" />
<glyph unicode="&#x582;" horiz-adv-x="740" d="M-44 0l284 1062h176l-243 -907h446l-42 -155h-621z" />
<glyph unicode="&#x583;" horiz-adv-x="1633" d="M31 214q0 1 1 17.5t4 41.5t8 56t14 63l180 670h174l-194 -718q-17 -62 -17 -110q0 -24 4 -44t15.5 -34t31 -21.5t50.5 -7.5q50 0 109.5 35t119 105.5t112.5 175.5t91 245l208 778h173l-160 -599q22 45 57.5 84.5t79 69t91.5 46.5t96 17q65 0 112 -19.5t77 -52t44 -75.5 t14 -89q0 -2 -1.5 -18t-4.5 -41t-8 -56.5t-13 -62.5l-180 -670h-174l194 718q17 62 17 110q0 24 -4.5 44t-15.5 34t-30.5 21.5t-50.5 7.5q-48 0 -105.5 -33t-115 -98.5t-110 -164t-91.5 -229.5l-219 -817h-173l165 617q-24 -51 -60.5 -93.5t-80 -73.5t-92 -48t-95.5 -17 q-65 0 -112 19.5t-77 52t-44 75t-14 89.5z" />
<glyph unicode="&#x584;" horiz-adv-x="1209" d="M-160 0l41 155h162l243 907h158l-51 -186q-5 -17 -13 -40.5t-13 -40.5q31 77 81 131.5t107.5 89.5t119 51.5t115.5 16.5q66 0 123.5 -19.5t100.5 -57t68 -92.5t25 -126q0 -121 -42 -211t-116 -149.5t-175.5 -89t-221.5 -29.5q-33 0 -70.5 2.5t-75.5 7.5t-73.5 12.5 t-63.5 18.5l-52 -196h726l-41 -155h-724l-109 -407h-175l108 407h-162zM308 490q32 -11 63.5 -17.5t64.5 -10.5t69.5 -5t80.5 -1q71 0 134.5 17.5t111 55.5t75.5 99.5t28 149.5q0 39 -13.5 68.5t-37 49t-55.5 29.5t-68 10q-57 0 -118 -23t-120 -75.5t-114.5 -137.5 t-100.5 -209z" />
<glyph unicode="&#x585;" horiz-adv-x="1087" d="M26 331q0 27 6 73.5t19.5 104.5t36 123.5t56.5 129t80 122t106 103t135 71t168 26.5q96 0 163 -26t109.5 -71.5t62 -107.5t19.5 -133q0 -80 -16.5 -168t-50 -173.5t-83.5 -162.5t-117 -136t-150.5 -93.5t-183.5 -34.5q-94 0 -162 25t-112 71t-65 111.5t-21 145.5z M198 323q0 -92 45 -143.5t150 -51.5q66 0 119 24t94.5 63.5t73.5 90.5t55 105.5t38 109t24.5 100t13 78.5t3.5 45q0 92 -47.5 141.5t-150.5 49.5q-63 0 -114 -23t-92.5 -61t-73 -87.5t-55 -103t-39.5 -107t-26 -99.5t-14 -80.5t-4 -50.5z" />
<glyph unicode="&#x586;" horiz-adv-x="1327" d="M-106 101l43 153q35 -26 83.5 -48.5t104.5 -38.5t117.5 -25t123.5 -9l197 734q-74 2 -137 19t-109 49t-71.5 78.5t-25.5 107.5q0 40 12 87q37 137 150.5 197.5t307.5 60.5h205l-120 -449q108 0 190.5 -25.5t138.5 -73.5t85 -118.5t29 -160.5q0 -82 -24 -178 q-32 -127 -95.5 -218t-153 -150t-203 -87t-245.5 -28l-103 -385h-172l103 385q-25 0 -59.5 3t-74 9.5t-81.5 16.5t-81.5 24t-74.5 31.5t-60 38.5zM386 1136q0 -60 52.5 -89.5t164.5 -29.5l81 303q-63 0 -117.5 -6.5t-94.5 -26.5t-63 -56t-23 -95zM538 133q89 0 166.5 16 t139.5 55.5t108 108t72 173.5q22 85 22 152q0 63 -20.5 107t-60 71t-97.5 39t-133 12z" />
<glyph unicode="&#x587;" horiz-adv-x="1342" d="M29 233q0 57 17 117l299 1116h173l-301 -1122q-17 -62 -17 -110q0 -49 24 -78t86 -29q54 0 115.5 35t121.5 105.5t113.5 175.5t91.5 245l100 374h174l-244 -907h439l-42 -155h-596l53 194q3 12 9 30t11 32q-27 -62 -68 -113.5t-90.5 -88t-104 -56.5t-107.5 -20 q-68 0 -117 20.5t-80 55t-45.5 81t-14.5 98.5z" />
<glyph unicode="&#x589;" horiz-adv-x="535" d="M9 0l54 205h197l-55 -205h-196zM238 857l55 205h197l-55 -205h-197z" />
<glyph unicode="&#x58a;" horiz-adv-x="644" d="M67 504l50 191q54 -71 123 -99t144 -28q73 0 147 19.5t143 46.5l-44 -164q-76 -37 -151.5 -56.5t-146.5 -19.5q-79 0 -146.5 26.5t-118.5 83.5z" />
<glyph unicode="&#x58d;" horiz-adv-x="1761" d="M8 526q0 190 126 330q0 59 18 116t50 108.5t76 95.5t96 76t109.5 50t116.5 18q139 124 326 124q191 0 330 -126q88 0 171.5 -39t148.5 -104t104.5 -149t39.5 -174q124 -139 124 -326q0 -191 -126 -330q0 -59 -18 -116.5t-50 -109t-76 -95t-96 -75.5t-109.5 -50 t-116.5 -18q-139 -124 -326 -124q-190 0 -330 126q-59 0 -116 18t-108.5 50t-95.5 76t-76 96t-50 109.5t-18 116.5q-124 139 -124 326zM134 526q0 -77 29 -143.5t79 -115t117 -76.5t143 -28q106 0 193 54.5t139 167.5q-99 -48 -211 -48q-72 0 -141.5 21.5t-130.5 62 t-109 99.5t-77 134l-4 11q-27 -68 -27 -139zM259 831q0 -77 29 -143.5t78.5 -116.5t116 -78.5t141.5 -28.5q71 0 137 26q-72 25 -132 72.5t-103 109.5t-66.5 134.5t-23.5 148.5q0 110 48 212q-53 -22 -95 -57t-71 -79.5t-44 -95.5t-15 -104zM285 84q22 -53 57 -95t79.5 -71 t95.5 -44t104 -15q76 0 142.5 29t116.5 78.5t79 116t29 141.5q0 71 -26 137q-27 -73 -74.5 -133t-108.5 -103t-132.5 -67t-147.5 -24q-112 0 -214 50zM563 949q0 -106 54.5 -192.5t167.5 -138.5q-48 99 -48 210q0 72 21 141.5t61.5 130.5t99.5 109.5t135 77.5l11 4 q-67 27 -139 27q-76 0 -142 -29.5t-115 -79.5t-77.5 -117t-28.5 -143zM787 -239q69 -27 139 -27q76 0 142.5 29t115.5 79t77.5 117t28.5 143q0 105 -55 192.5t-168 139.5q48 -99 48 -210q0 -72 -21.5 -142t-62 -131t-99.5 -109t-134 -77zM864 828q0 -72 26 -138 q26 71 72 131t106.5 103.5t133.5 67.5t151 24q113 0 214 -49q-23 55 -58.5 97t-80 70.5t-95.5 43.5t-105 15q-75 0 -141.5 -28.5t-116 -78t-78 -116t-28.5 -142.5zM1018 667q99 48 211 48q72 0 141.5 -21.5t130.5 -62t109 -99.5t77 -134l4 -11q27 67 27 139 q0 75 -28.5 141.5t-78.5 116t-116.5 78.5t-143.5 29q-106 0 -193.5 -55.5t-139.5 -168.5zM1091 562q73 -27 133.5 -74t103.5 -108.5t66.5 -133t23.5 -147.5q0 -112 -50 -214q53 22 95 57t71 79.5t44 95.5t15 104q0 76 -28.5 143t-78 116.5t-116 78.5t-142.5 29 q-71 0 -137 -26z" />
<glyph unicode="&#x58e;" horiz-adv-x="1761" d="M8 526q0 187 124 326q0 90 39.5 174t104.5 149t148.5 104t171.5 39q139 126 330 126q187 0 326 -124q59 0 116.5 -18t109.5 -50t96 -76t76 -95.5t50 -108.5t18 -116q126 -140 126 -330q0 -187 -124 -326q0 -59 -18 -116.5t-50 -109.5t-76 -96t-95.5 -76t-108.5 -50 t-116 -18q-140 -126 -330 -126q-187 0 -326 124q-59 0 -116.5 18t-109.5 50t-96 75.5t-76 95t-50 109t-18 116.5q-126 139 -126 330zM134 526q0 -72 27 -139l4 11q29 75 77 134t109 99.5t130.5 62t141.5 21.5q112 0 211 -48q-52 113 -139.5 168.5t-193.5 55.5 q-77 0 -143.5 -29t-116.5 -78.5t-78.5 -116t-28.5 -141.5zM259 221q0 -53 15 -104t44 -95.5t71 -79.5t95 -57q-50 102 -50 214q0 76 23.5 147.5t66.5 133t103.5 108.5t133.5 74q-66 26 -137 26q-76 0 -142.5 -29t-116 -78.5t-78 -116.5t-28.5 -143zM285 967q101 49 214 49 q78 0 151 -24t133.5 -67.5t106.5 -103.5t72 -131q26 66 26 138q0 76 -28.5 142.5t-78 116t-116 78t-141.5 28.5q-54 0 -105 -15t-95.5 -43.5t-80 -70.5t-58.5 -97zM562 102q0 -76 28.5 -143t77.5 -117t115.5 -79t142.5 -29q70 0 139 27l-11 4q-75 29 -134 77t-99.5 109 t-62 131t-21.5 142q0 111 48 210q-113 -52 -168 -139.5t-55 -192.5zM787 1291l11 -4q76 -29 135 -77.5t99.5 -109.5t61.5 -130.5t21 -141.5q0 -111 -48 -210q113 52 167.5 138.5t54.5 192.5q0 76 -28.5 143t-77.5 117t-115 79.5t-142 29.5q-72 0 -139 -27zM864 224 q0 -75 29 -141.5t79 -116t116.5 -78.5t142.5 -29q53 0 104 15t95.5 44t79.5 71t57 95q-102 -50 -214 -50q-76 0 -147.5 24t-132.5 67t-108.5 103t-74.5 133q-26 -66 -26 -137zM1018 385q52 -113 139 -167.5t193 -54.5q76 0 143 28t117 76.5t79 115t29 143.5q0 71 -27 139 l-4 -11q-29 -75 -77 -134t-109 -99.5t-130.5 -62t-141.5 -21.5q-112 0 -211 48zM1091 490q66 -26 137 -26q75 0 141.5 28.5t116 78.5t78.5 116.5t29 143.5q0 53 -15 104t-44 95.5t-71 79.5t-95 57q48 -102 48 -212q0 -76 -23.5 -148.5t-66.5 -134.5t-103 -109.5t-132 -72.5z " />
<glyph unicode="&#x58f;" horiz-adv-x="1488" d="M126 888l19 72q70 263 231 395.5t413 132.5q100 0 187.5 -26t152 -75.5t102 -122.5t37.5 -167q0 -65 -19 -137l-95 -352h247l-37 -138h-247l-29 -109h247l-37 -138h-247l-59 -223h-191l60 223h-363l37 138h363l29 109h-363l37 138h363l106 395q12 45 12 87q0 54 -20.5 98 t-58.5 75t-93.5 48t-125.5 17q-95 0 -168.5 -26t-128.5 -74.5t-93 -117.5t-60 -156l-17 -66h-191z" />
<glyph unicode="&#x2000;" horiz-adv-x="977" />
<glyph unicode="&#x2001;" horiz-adv-x="1954" />
<glyph unicode="&#x2002;" horiz-adv-x="977" />
<glyph unicode="&#x2003;" horiz-adv-x="1954" />
<glyph unicode="&#x2004;" horiz-adv-x="651" />
<glyph unicode="&#x2005;" horiz-adv-x="488" />
<glyph unicode="&#x2006;" horiz-adv-x="325" />
<glyph unicode="&#x2007;" horiz-adv-x="325" />
<glyph unicode="&#x2008;" horiz-adv-x="244" />
<glyph unicode="&#x2009;" horiz-adv-x="390" />
<glyph unicode="&#x200a;" horiz-adv-x="108" />
<glyph unicode="&#x2010;" horiz-adv-x="704" d="M25 440l49 181h492l-49 -181h-492z" />
<glyph unicode="&#x2011;" horiz-adv-x="704" d="M25 440l49 181h492l-49 -181h-492z" />
<glyph unicode="&#x2012;" horiz-adv-x="704" d="M25 440l49 181h492l-49 -181h-492z" />
<glyph unicode="&#x2013;" horiz-adv-x="1187" d="M25 440l93 181h931l-93 -181h-931z" />
<glyph unicode="&#x2014;" horiz-adv-x="2211" d="M25 440l185 181h1863l-185 -181h-1863z" />
<glyph unicode="&#x202f;" horiz-adv-x="390" />
<glyph unicode="&#x205f;" horiz-adv-x="488" />
<glyph unicode="&#xe000;" horiz-adv-x="1060" d="M0 0v1060h1060v-1060h-1060z" />
</font>
</defs>
</svg>
